<?xml version="1.0" encoding="utf-8"?>
<!-- Generator: Adobe Illustrator 27.3.1, SVG Export Plug-In . SVG Version: 6.00 Build 0)  -->
<svg version="1.1" id="Camada_1" xmlns="http://www.w3.org/2000/svg" xmlns:xlink="http://www.w3.org/1999/xlink" x="0px" y="0px"
	 viewBox="0 0 500 500" style="enable-background:new 0 0 500 500;" xml:space="preserve">
<style type="text/css">
	.st0{clip-path:url(#SVGID_00000173161475276923503800000005139210910341288090_);}
	.st1{fill:#5BCEFA;}
	.st2{fill:#F5A9B8;}
	.st3{fill:#FFFFFF;}
	.st4{fill:#D9908A;}
	.st5{fill:#B34470;}
	.st6{fill:#7C3A48;}
	.st7{fill:#3B2C46;}
	.st8{fill:#BE6269;}
	.st9{fill:#B96274;}
	.st10{fill:#AC4A5B;}
	.st11{fill:#6D343F;}
	.st12{fill:#CF6972;}
	.st13{fill:#B85162;}
	.st14{fill:#4F3655;}
</style>
<g id="OBJECTS">
	<g>
		<g>
			<defs>
				<path id="SVGID_1_" d="M250,0H0v27.3c0,0,1.6,68,23.1,87s36.5,4.7,52.8,44.6c10.8,26.3-6.9,48.5,18.6,67.9s31.5,4.4,45.7,34.6
					s-1.3,40,24.9,52.4s54.4-3.2,57.6,22.1s-1.7,40,27.4,56.1c29.1-16.1,24.2-30.7,27.4-56.1s31.4-9.7,57.6-22.1
					s10.8-22.2,24.9-52.4s20.3-15.2,45.7-34.6s7.8-41.6,18.6-67.9c16.3-39.9,31.3-25.6,52.8-44.6c21.5-19,23.1-87,23.1-87V0H250z"/>
			</defs>
			<clipPath id="SVGID_00000142878585444165203500000017213772313390831519_">
				<use xlink:href="#SVGID_1_"  style="overflow:visible;"/>
			</clipPath>
			<g style="clip-path:url(#SVGID_00000142878585444165203500000017213772313390831519_);">
				<rect class="st1" width="500" height="67.8"/>
				<rect y="135.7" class="st1" width="500" height="67.8"/>
				<rect y="203.8" class="st2" width="500" height="67.8"/>
				<rect y="271.6" class="st1" width="500" height="67.8"/>
				<rect y="67.8" class="st2" width="500" height="67.8"/>
			</g>
		</g>
	</g>
	<path class="st3" d="M290.9,27c-0.5-0.5-1.3-0.8-2-0.7l-18.7,1.9l0.5,5l11.7-1.2l-19.8,19.8c-3-3.2-7.3-5.3-12.1-5.3
		c-5.1,0-9.6,2.3-12.6,5.9l-6.2-6.2l4.5-4.5l-3.5-3.5l-4.5,4.5L217.6,32l11.7,1.2l0.5-5l-18.7-1.9c-0.7-0.1-1.5,0.2-2,0.7
		s-0.8,1.2-0.8,2l1.4,19.2l5-0.4l-0.9-12.5l10.8,10.8l-4.5,4.5l3.5,3.5l4.5-4.5l6.9,6.9l0.7-0.7c-1,2.2-1.6,4.6-1.6,7.1
		c0,8.2,6.1,15.1,14,16.3v12.1h-7.7v5h7.7v10h5v-10h7.7v-5h-7.7V79.2c7.9-1.2,14-8,14-16.3c0-2.5-0.6-4.9-1.6-7l20.7-20.7l-0.9,12.5
		l5,0.4l1.4-19.2C291.7,28.2,291.4,27.5,290.9,27z M250.6,74.5c-6.3,0-11.5-5.2-11.5-11.5s5.2-11.5,11.5-11.5
		c6.3,0,11.5,5.2,11.5,11.5S256.9,74.5,250.6,74.5z"/>
	<g>
		<path class="st3" d="M388.8,87.9c-0.5-0.5-1.3-0.8-2-0.7l-18.7,1.9l0.5,5l11.7-1.2l-19.8,19.8c-3-3.2-7.3-5.3-12.1-5.3
			c-9.1,0-16.5,7.4-16.5,16.5s7.4,16.5,16.5,16.5c9.1,0,16.5-7.4,16.5-16.5c0-2.5-0.6-4.9-1.6-7l20.7-20.7l-0.9,12.5l5,0.4l1.4-19.2
			C389.6,89.1,389.3,88.4,388.8,87.9z M348.5,135.4c-6.3,0-11.5-5.2-11.5-11.5s5.2-11.5,11.5-11.5s11.5,5.2,11.5,11.5
			C360,130.2,354.8,135.4,348.5,135.4z"/>
		<path class="st3" d="M143.4,123.9c0-9.1-7.4-16.5-16.5-16.5s-16.5,7.4-16.5,16.5c0,8.2,6.1,15.1,14,16.3v12.1h-7.7v5h7.7v10h5v-10
			h7.7v-5h-7.7v-12.1C137.3,138.9,143.4,132.1,143.4,123.9z M115.4,123.9c0-6.3,5.2-11.5,11.5-11.5c6.3,0,11.5,5.2,11.5,11.5
			c0,6.3-5.2,11.5-11.5,11.5C120.6,135.4,115.4,130.2,115.4,123.9z"/>
	</g>
	<g>
		<g>
			<path class="st4" d="M250.1,189.8v193.9c0,0-43-14.3-60.5-43.9S171,222.5,177.2,210.5S241.4,187.8,250.1,189.8z"/>
			<path class="st4" d="M250,500V288.8c0,0-23.8,20.1-33.5,24c-9.7,3.9-1.5,42.8-10.4,67.8c-8.9,24.9-115.2,24.6-155.3,56.2
				C32.7,451,25.7,500,25.7,500L250,500L250,500z"/>
			<path class="st5" d="M250,326.1V340c0,0-12.3,1.9-21.4-7.9c-9.1-9.8-10.5-9.2-9.1-9.8C220.3,321.9,250,322.8,250,326.1z"/>
			<path class="st6" d="M238.7,249.5c0,0-0.7,2-7,3.5s-20.2-5-32.5,0c0,0,0.7-7.1,11.4-7.9C221.3,244.2,235.8,247.3,238.7,249.5z"/>
			<path class="st7" d="M225.4,265.8c0,0,0.6,11.5-7.1,12.6c-7.7,1.1-10.7-10-14.5-10.5c-3.7-0.5-6.8,3-8.1,4.6s6.1-0.4,6.1-0.4
				s-4.2,7.6-3.1,7.9s6.7-3.3,6.7-3.3s1.2,5.9,10.9,7.5C226.6,285.7,231.1,272.8,225.4,265.8z"/>
			<path class="st8" d="M205.2,357.4c0,0,24.1,20.3,44.8,18.9v23.1c-8.4,1.9-46.6-7.8-50.5-5.1C199.5,394.4,202.2,382.6,205.2,357.4
				z"/>
			<path class="st8" d="M250,348.1c0,0-5.2,0.4-10.4,0s-11-1-11-1s6.3,4,13,5.5c6.7,1.5,8.4,0,8.4,0L250,348.1L250,348.1z"/>
			<circle class="st9" cx="207.2" cy="300.5" r="10.9"/>
			<path class="st10" d="M230.5,451.8c0,0-19-14.3-26.7-20.1c-7.8-5.9-60.8-7.8-95.8-9.1l0.1-2c46.7,1.7,89.3,3.7,97,9.5
				c7.7,5.8,26.7,20.1,26.7,20.1L230.5,451.8z"/>
			<path class="st6" d="M250,210.4c0,0-4.5,17-30.2,32.5c-25.6,15.5-29.1,17.3-33.1,35.5c-8.3,38,23.5,68.3,25.1,99.3
				s-3.5,23.7-58.6,36.7S34.1,465.3,34.1,465.3c1.1-50.4,31.4-101,70.1-118.1s14.2-36.9,22.2-87.7s4.2-48,33.2-84.3
				c19.6-24.6,81.2-34.1,90.4-25.7L250,210.4z"/>
			<path class="st4" d="M178.8,275c0,0-4-18.1-10-8.7s-5.2,35.5,6.1,43.6C174.9,309.8,189.7,317.1,178.8,275z"/>
			<path class="st11" d="M220.8,147.6c0,0-47.1,15.6-55.7,66.8c-8.5,51.2-29.6,69.8-23.4,107.8s-49.1,47-72.1,78.2
				c-24.7,33.5-35.6,64.9-35.6,64.9s-3.6-51.6,22.6-83.3s67.5-52.9,68.3-69.8s-5.4-79.1,10.5-107.2S176.5,149.4,220.8,147.6z"/>
		</g>
		<g>
			<path class="st12" d="M250,189.7v180.6c0,0,40.4-15.4,56.4-42.9c15.9-27.6,15.7-107.1,10.1-118.3
				C310.9,197.8,258,187.9,250,189.7z"/>
			<path class="st12" d="M308.1,272.5c0,0,9.7-30.7,21.1-24.8c11.4,5.9,3.4,52,0,59.1s-18,9.4-18,9.4L308.1,272.5z"/>
			<path class="st12" d="M250,500V288.8c0,0,23.8,20.1,33.5,24c9.7,3.9,1.5,42.8,10.4,67.8c8.9,24.9,115.2,24.6,155.3,56.2
				c18.1,14.3,25.1,63.3,25.1,63.3L250,500L250,500z"/>
			<path class="st7" d="M250,193.6c0,0,45,4.7,50.1,14.5c5.1,9.7,0.6,43.5,7.4,51.4c6.8,7.9,0.9,39.9,9,29.3
				c8.1-10.6-1.6-29.6,8.1-38.3s8.5,23.9,6.3,41.8s-16.4,12.1-17.4,16.1c-1.1,4-10.5,18.1-7.1,19.1s23.9-12.9,33-32.8
				c9.1-19.8,5.7-74.2,0-92s-33.3-48.4-42.3-56.8c-9-8.3-10.1,6.4-7.8,8.4s-38.2-36.2-39.2-30.5C250.1,123.8,250,149.4,250,193.6z"
				/>
			<path class="st7" d="M256.3,247c0,0,0.2,4.7,2.1,6.8s24.2,0.3,27.8,0c3.6-0.3,6.9,1.2,7.5,2.4s-0.1-6.4-5.8-9.2
				S260.3,244.7,256.3,247z"/>
			<g>
				<circle class="st13" cx="292.7" cy="300.5" r="10.9"/>
			</g>
			<path class="st7" d="M269.5,264.8c0,0,1,12.5,8.7,13.6s10.7-10,14.5-10.5s-1,15.3-12.5,16.2C269.8,284.9,263.8,271.8,269.5,264.8
				z"/>
			<path class="st10" d="M250,399.5c0,0,29.1,1.5,45.8-15.6c0,0-7.1-21-6.4-31.3c0,0-26,23.3-39.4,23.8L250,399.5L250,399.5z"/>
			<path class="st10" d="M269.5,451.8l-1.2-1.6c0,0,19-14.3,26.7-20.1c7.7-5.8,50.2-7.8,97-9.5l0.1,2c-35.1,1.3-88,3.2-95.8,9.1
				C288.5,437.5,269.5,451.8,269.5,451.8z"/>
			<path class="st7" d="M250,315.9c0,0,21.9-10.2,30.2-7.1c8.3,3.1-4.7,22.6,4.8,28.1c9.5,5.5,20.9-15.9,24.2-31.7s-1.9-49,2-50.3
				c3.9-1.3,6.4,9.4,8.8,16.6c2.4,7.2-8,48-9.7,56c-5.7,28.4-20.3,35-29.6,42.9c-9.4,7.8-4.7,11.7-18,17.4
				c-1.8,0.8-12.8,1.7-12.8,1.7L250,315.9z"/>
			<path class="st12" d="M250,321.8c0,0,11.5-2.6,20.4-5.5c12-4,9.2,22.5-20.4,30.8L250,321.8z"/>
			<path class="st10" d="M250,326.1V340c0,0,7.9,1.9,16.9-7.9s7.2-12.5,5.9-11.4C271.7,321.7,250,322.8,250,326.1z"/>
			<path class="st14" d="M344.9,260.1c0,0-5-17.6-9.9-32.1s-0.9-17.6-9.3-33.9s-24.3-43.9-25.4-45s24.7,20.1,36.7,47.9
				S344.9,260.1,344.9,260.1z"/>
			<path class="st14" d="M271.5,382.1c0,0,1.8-10.8,9.1-17.8c7.3-7,23.9-26.1,30.9-42.1c0,0-3.1,26.3-14.4,35.2
				S277.1,378.1,271.5,382.1z"/>
			<path class="st14" d="M289.3,154.2c0,0-11.1-1.9-16.6-5.3c-5.4-3.3-17.4-22.2-16.4-21.5C257.4,128.2,276.5,139.1,289.3,154.2z"/>
		</g>
		<path class="st3" d="M265.5,327.4c0,0-2.5,3.1-14.5,4.6s-17.6-2.6-17.6-2.6s11.3,1.2,18.3-0.1
			C258.7,327.8,265.5,327.4,265.5,327.4z"/>
		<path class="st7" d="M235.7,304.2c0,0,9.6,4.1,14.3,3s11.3-4.5,11.3-4.5s0,4.2-8.4,8.7S235.7,304.2,235.7,304.2z"/>
		<g>
			<path class="st10" d="M413.5,500h-2l0-10.6c0-0.1,2.9-9.3,0-21.6l1.9-0.5c2.9,12.1,0.4,21.2,0,22.5L413.5,500L413.5,500z"/>
			<path class="st10" d="M88.5,500h-2v-10.1c-0.4-1.3-2.8-10.4,0-22.5l1.9,0.5c-2.9,12.4-0.1,21.5,0,21.6l0,0.3L88.5,500L88.5,500z"
				/>
		</g>
	</g>
</g>
</svg>
