<?xml version="1.0" encoding="utf-8"?>
<!-- Generator: Adobe Illustrator 27.3.1, SVG Export Plug-In . SVG Version: 6.00 Build 0)  -->
<svg version="1.1" id="Camada_1" xmlns="http://www.w3.org/2000/svg" xmlns:xlink="http://www.w3.org/1999/xlink" x="0px" y="0px"
	 viewBox="0 0 500 500" style="enable-background:new 0 0 500 500;" xml:space="preserve">
<style type="text/css">
	.st0{fill:#8394CF;}
	.st1{fill:#25223A;}
	.st2{fill:#E4A094;}
	.st3{fill:#E39C8F;}
	.st4{opacity:0.5;fill:#6D81C7;enable-background:new    ;}
	.st5{fill:#6D81C7;}
	.st6{fill:#FFFFFF;}
	.st7{fill:#DEDEE1;}
	.st8{fill:#E6A89D;}
	.st9{fill:#EEC4BC;}
	.st10{fill:#C73920;}
	.st11{font-family:'Arial-BoldMT';}
	.st12{font-size:82.0042px;}
	.st13{letter-spacing:-2.7;}
</style>
<g id="BACKGROUND">
	<path class="st0" d="M169,53c-19.1,14.7-33.9,35.3-54.2,48.5C85,121,55.4,143.7,40.2,177c-16.5,36-12.9,77.5-9.3,115.8
		c2,21,3.9,42.2,9.7,62.5c11.3,39.9,42,73.2,83.9,80.3c24.4,4.1,49.2-0.9,73.8-3.9c17.4-2.2,35.5-3.4,52.8,0.4
		c18,3.9,33.5,14.5,50.8,20.6c48.9,17.2,105.3-5.2,140.1-43.7c12.8-14.1,23.4-30.4,29.5-48.4c5.5-16.3,7.3-33.7,7.5-50.9
		c0.7-59.9-17.7-120-52.1-169.1c-20.3-29-46.1-54.2-75.6-73.9c-29.5-19.8-59.3-36-95.7-37.6c-23.6-1.1-47.5,3.6-69,13.4
		C180.3,45.2,174.5,48.9,169,53z"/>
</g>
<g id="OBJECTS">
	<g>
		<g>
			<path class="st1" d="M219.8,97.4c0,0,18.6-19.1,52.3-18.6c33.7,0.5,45,18,51.2,32.9s12.2,29.7,29.6,44.5
				c17.4,14.9,30.5,46.6,25.4,84.3s-8.4,55.4-3.9,79.8c4.5,24.4,14.6,61,9,73.8s-80.4,53.6-168.1,32.4s-82.7-102.5-76.5-123.2
				c6.2-20.7,20.2-97.7,15.7-112c-4.5-14.3,20.8-69,37.1-78C207.9,104.3,219.8,97.4,219.8,97.4z"/>
			<path class="st2" d="M288.9,274.8c0,0-3.6,27.1,3.2,32.2c6.8,5.2,73.7,13.1,90,30.7c16.3,17.5,16.7,82,15.1,107.5
				c-1.6,25.5-3.6,54.7-3.6,54.7H135.2c0,0-9.6-27.7-13.9-46c-4.4-18.3-12.7-39.8-12.7-64.9c0-21.9-12.6-28.1-12.9-45.9
				c-0.3-19.7,16.9-29.7,26-33.3c9.2-3.6,85.6-4,92.8-6.4c7.2-2.4,11.5-28.3,11.1-29.5C225.2,272.9,288.9,274.8,288.9,274.8z"/>
			<path class="st1" d="M225.6,274.1c0.2,0.7-1.3,10.7-4.2,18.9c6,4.4,18.4,12,32.7,13.1c10.9,0.9,24.1-6.1,33.9-12.6
				c-0.4-8.9,0.9-18.5,0.9-18.5S225.2,272.9,225.6,274.1z"/>
			<path class="st3" d="M312.5,203.3c0.3-0.8,4-20.4,13.5-15.9c9.6,4.5,5.3,28.9-2.4,33.4s-11.4,0.8-11.4,0.8L312.5,203.3z"/>
			<path class="st3" d="M299.6,120.8c10.5,22.2,17.5,64.9,16.3,96.8c-1.2,31.9-14.7,55.3-28.7,70.9c-9.1,10.1-28.3,15.5-47,10
				s-39-19.9-50.2-45c-11.1-25.1,0-67.3,2.4-88.8s33-58.1,52.6-62.5S296.7,114.6,299.6,120.8z"/>
			<path class="st1" d="M272.1,178.4c-0.8-1.1-2.7-4.6,0.2-5.4s6.2,6.9,14.4,8.1s10.7,1.9,13.7,2.7c2.2,0.6,4.2,1.6,3.9,2
				c-0.3,0.4-14.4,1.1-21.4-1C276.4,182.8,274,181,272.1,178.4z"/>
			<path class="st4" d="M275.7,210c-4.2-1-6.5-2.2-7-1.7c-0.5,0.5,2,8.4,11.8,12.2c9.9,3.9,18.4,0.2,22.9-4s4.2-8.9,1.4-10.9
				c-2.8-2-7.5,1.7-8.8,2.5C293.1,210,285.7,212.5,275.7,210z"/>
			<path class="st5" d="M295.2,213.5c0,0-3.8,10.1-3.1,13.8c0.7,3.7,4.8,5.6,6.7,1.8C301.6,223.5,295.2,213.5,295.2,213.5z"/>
			<g>
				<path class="st6" d="M268.6,206.8c0,0,2.5-7.2,9.5-10.6c7-3.4,16.1-0.5,18.4,2.3c2.3,2.8,3.1,5.2,3.1,5.2s-6.7,4.6-15.1,4.7
					C276.1,208.6,268.6,206.8,268.6,206.8z"/>
				<path class="st5" d="M283.9,195.1c0,0-3.5-0.1-5,4c-1.5,4.1,1.2,8.7,6.7,8.6c5-0.1,7.1-4.5,5.5-8.5
					C289.5,195.1,285.7,195.1,283.9,195.1z"/>
				<path class="st1" d="M284.6,199c0,0-1.3,0-1.9,1.6c-0.6,1.6,0.5,3.4,2.6,3.3c1.9,0,2.7-1.7,2.1-3.3
					C286.8,199,285.3,199,284.6,199z"/>
				<path class="st6" d="M287,198.7c0,0-0.5,0-0.8,0.6c-0.2,0.6,0.2,1.4,1.1,1.4c0.8,0,1.1-0.7,0.9-1.3
					C287.9,198.7,287.3,198.7,287,198.7z"/>
				<path class="st7" d="M284.8,199.5c6.8-0.7,12.3,2.5,14.8,4.4c0,0,0,0,0,0s-0.8-2.5-3.1-5.2s-11.3-5.7-18.4-2.3
					c-7,3.4-9.5,10.4-9.5,10.5C270.9,204.9,277.3,200.2,284.8,199.5z"/>
				<path class="st1" d="M268.6,206.8c0,0,4.8-8.3,11.5-10.5c6.6-2.2,12.7,0.3,15,2.5c2.5,2.4,3.8,5.4,3.8,5.4l3.5-1.7
					c0,0-5-9.2-16.1-9.1c-10.1,0.2-14,6.7-15.7,9C269,204.8,268.6,206.8,268.6,206.8z"/>
			</g>
			<path class="st1" d="M261.9,196.9c-0.8,5.6-0.6,11.3-0.1,16.9c0.3,2.8,0.6,5.6,1.1,8.4c0.3,1.4,0.5,2.7,0.9,4
				c0.4,1.3,0.9,2.5,1.6,3.8c0.6,1.2,1.3,2.4,2.1,3.6c0.4,0.6,0.8,1.1,1.2,1.7l0.6,0.8c0.2,0.3,0.5,0.6,0.7,1
				c0.4,0.7,0.8,1.5,0.9,2.3c0.2,0.9,0.1,1.8-0.2,2.7c-0.3,0.9-0.9,1.6-1.5,2.1c-0.6,0.5-1.3,0.9-2,1.3c-2.7,1.3-5.6,2-8.5,2.2
				c-2.9,0.2-5.9-0.2-8.5-1.3c5.6,1.2,11.4,0,16.1-2.5c1.1-0.7,2.1-1.5,2.4-2.5c0.2-0.5,0.2-1,0.1-1.5c-0.1-0.5-0.4-1.1-0.7-1.6
				c-0.2-0.3-0.4-0.5-0.5-0.8l-0.7-0.9c-0.4-0.6-0.9-1.2-1.3-1.8c-0.8-1.2-1.6-2.5-2.3-3.8c-0.7-1.3-1.2-2.7-1.7-4.1
				c-0.4-1.4-0.7-2.9-0.9-4.3c-0.4-2.9-0.7-5.7-0.8-8.6C259.7,208.2,260.1,202.4,261.9,196.9z"/>
			<path class="st1" d="M230.2,172.9c16.9-25.1,20.7-49,21.5-60.1c0.8-11.1-0.4-18.3-0.4-18.3s-24.5-18-51.9-12s-25.4,34-33,42.8
				S144.6,143,135.5,165c-9.4,22.6-13.2,68.7-11.5,92.6c1.2,16.3-2.1,53.9-3.4,67.4c-1.3,13.5,52.6-25.1,60.6-25.9
				c8-0.8-1.3-70.5-1.7-74.1C179.1,221.5,213.3,198,230.2,172.9z"/>
			<path class="st1" d="M246.7,107.2c0,0,9.2,18.7,27.9,26.3s29.5,16.7,32.2,23.5s1.6,22.3,4.8,31.1s6.4,13.9,6.4,13.9
				s-2-15.1,4-22.3c6-7.2,1.6-57.3-16.3-71.7c-17.9-14.3-28.3-19.9-46.2-17.1C241.5,93.7,246.7,107.2,246.7,107.2z"/>
			<path class="st1" d="M266.6,340.3c0.9,7.1,5.8,10.3,5.8,10.3s-2.9-4.7-3.7-10.9c-0.7-5.3,0.2-11.1,0.2-11.1
				S265.7,333,266.6,340.3z"/>
			<path class="st1" d="M182.8,304.7c0,0,5,62.4,46.7,90.5c36.4,24.6,70.1,21.2,86.5,0.5c16.5-20.7,14.5-45.2,12.3-58.5
				c-2.1-13.3-6.3-22.6-6.3-22.6l16.6,4.1c0,0,25.6,82.8,30.9,108.9c5.3,26-0.3,42.1-6.9,53.1c-7,11.7-14.3,19.3-14.3,19.3h-215
				c0,0-15.9-42.1-19.1-60.2s-4.9-30.6-4.9-30.6s17.1,9.4,39.9-8.7s24.4-42.5,22.8-56.3c-1.6-13.8-10-38.6-10-38.6L182.8,304.7z"/>
			<path class="st8" d="M146.9,293.8c0,0-25.2-6.6-38.8,7.2c-13.5,13.8-16.5,43-8.5,56.3c8,13.3,22.6,21.8,42.7,25.7
				c20.2,4,48.8-1.1,59.2-8.8c10.4-7.7,21-29.5,21-29.5s-11.7-52-18.8-56.8C196.5,283.2,154,295.4,146.9,293.8z"/>
			<path class="st1" d="M141.9,382c4.5,0.5,7,0.2,7,0.2s-9.4-2.6-15.6-7.7c-4.6-3.8-4.8-5.3-4.8-5.3s7.3,6.5,15.9,9.6
				c9.7,3.5,21.7,5.3,34.9,2c18.1-4.6,24.2-10,30.8-17.9c3.8-4.6,4.7-7.4,4.7-7.4l1.5-0.3c0,0-6.4,15.7-20.2,22.8
				c-13.8,7.2-35.3,7.7-49.9,6.9c-14.6-0.8-30.9-8.4-39.2-15.5C118.3,374.9,135,381.3,141.9,382z"/>
			<path class="st1" d="M123.2,293.2c-5.5,1.3-10.5,3.8-14.5,7.6c-3.9,3.8-6.8,8.5-8.8,13.6c-1,2.5-1.9,5.2-2.5,7.8
				c-0.7,2.7-1.1,5.4-1.5,8.1c-0.3,2.8-0.6,5.5-0.6,8.3c0,2.8,0.1,5.6,0.6,8.4c-1-2.6-1.5-5.5-1.8-8.3c-0.3-2.8-0.3-5.7-0.1-8.5
				c0.4-5.7,1.5-11.4,3.7-16.7c1.1-2.7,2.4-5.2,4-7.6c1.6-2.4,3.5-4.6,5.8-6.5c2.2-1.9,4.8-3.4,7.4-4.4
				C117.6,293.9,120.4,293.3,123.2,293.2z"/>
			<path class="st1" d="M365.4,327.4c4.8,1.7,9.4,3.8,13.6,6.8c4.2,3,7.5,7.1,10,11.6c2.5,4.5,4.1,9.5,5.2,14.4c0.6,2.5,1,5,1.4,7.5
				c0.5,2.5,0.9,5,1.2,7.5c1.5,10,2.1,20.2,2.2,30.3c0,5.1-0.1,10.1-0.3,15.2c-0.2,5-0.6,10.1-1.1,15.1c0.1-5,0.1-10.1,0.1-15.1
				c-0.1-5-0.1-10.1-0.4-15.1c-0.6-10.1-1.4-20.1-2.9-30c-1.7-9.9-2.8-20-7.2-28.9c-2.2-4.4-5.1-8.5-8.9-11.7
				C374.5,331.9,370,329.4,365.4,327.4z"/>
		</g>
		<g>
			<g>
				<path class="st9" d="M129.6,190.6c0,0-2.1-11.4-11.1-9s-3.5,20.4-1.6,30.5c1.9,10.1,13.5,44.3,13.8,49.6
					c0.3,5.3,4,66.6,6.1,76.7c2.1,10.1,5,19.1,13.3,22.3c8.2,3.2,27.6-3.5,32.6-1.6c5,1.9,28.7,1.9,40.3-4.2
					c11.7-6.1,19.1-14.3,26-25.7c6.9-11.4,23.4-33.4,30.3-41.7c6.9-8.2,23.9-22.6,26.3-28.7c2.4-6.1,4.5-11.7-6.6-13.3
					c-11.1-1.6-32.1,14.9-36.9,19.1c-4.8,4.2-14.9,17.8-17.5,19.1c-2.7,1.3-5.3-8.2-2.1-23.6c3.2-15.4,13-59.2,16.5-77.2
					c3.5-18,4.8-37.2-3.7-40.3c-8.5-3.2-16.7,28.1-19.4,39c-2.7,10.9-16.2,60.8-18.8,62.9c-2.7,2.1-6.4,0.8-5-11.4
					s10.9-51.2,9.3-84.4s-13.8-27.6-18.6-22.6S197,163,195.4,172s-5,39.3-5.8,45.9c-0.8,6.6-1.3,21-4.2,22.3
					c-2.9,1.3,0-15.7-0.3-28.9c-0.3-13.3,1.1-45.9,1.6-54.9s0-18.8-6.6-19.9s-10.9,6.4-12.2,15.1c-1.3,8.8-4.2,32.6-5,38.2
					c-0.8,5.6-0.5,23.6-0.8,31.3c-0.3,7.7,0,26.5-2.9,29.7c-2.9,3.2-7.2,2.7-9-2.9c-1.9-5.6-10.4-32.6-13.8-39
					C132.8,202.5,129.6,190.6,129.6,190.6z"/>
				<path class="st1" d="M133.3,301c0,0,1.2,31.5,7.2,47.5c2.9,7.9,5.1,11.7,13.1,12.2s20.3-4.1,26.8-2.9c5.5,1,11.1,2.1,18.3,1.9
					c7.2-0.3,16.1-1.7,16.1-1.7s-17.3,5.5-29.5,3.6c-6.6-1-10.8-0.9-16.3,0.5s-17,4.5-23.6-1.6c-6.6-6.1-9-14-10.6-26.6
					C132.9,319.8,133.3,301,133.3,301z"/>
				<path class="st1" d="M240,341.6c6.3-7.9,11.7-16.4,16.9-25c2.6-4.3,5.3-8.6,8.1-12.8c2.8-4.2,5.9-8.4,9.3-12.2
					c6.8-7.6,14.5-14.2,21.4-21.4c1.7-1.8,3.4-3.7,5-5.6c1.7-1.9,3.1-3.9,4.3-6.1c1.1-2.2,2-4.6,1.9-7c-0.1-1.2-0.5-2.4-1.3-3.3
					c-0.8-0.9-1.9-1.6-3.1-2c1.2,0.3,2.4,0.8,3.4,1.8c1,0.9,1.5,2.2,1.7,3.5c0.2,1.3,0,2.6-0.3,3.9c-0.3,1.3-0.7,2.5-1.3,3.7
					c-1.1,2.3-2.5,4.5-4.1,6.5c-1.5,2-3.2,4-4.9,5.9c-6.8,7.6-14.4,14.3-21,21.8c-3.4,3.7-6.3,7.7-9.2,11.8
					c-2.9,4.1-5.6,8.4-8.4,12.6C253,326,247.1,334.3,240,341.6z"/>
				<path class="st1" d="M241,275.4c-0.4-11.5,1.6-23.1,4.7-34.2c1.5-5.5,2.8-11.1,4.1-16.7l1.9-8.4c0.6-2.8,1.2-5.6,1.8-8.4
					c1.2-5.6,2.3-11.2,3.4-16.9c1.1-5.6,2.2-11.3,3.1-16.9c0.5-2.8,0.6-5.6,0.8-8.5c0.2-2.9,0.2-5.7,0.2-8.6c-0.1-2.8-0.3-5.7-1-8.4
					c-0.4-1.4-0.9-2.7-1.7-3.8c-0.8-1.2-2-2-3.5-2.2c1.4,0.1,2.8,0.9,3.7,2c1,1.1,1.6,2.5,2,3.9c0.9,2.8,1.3,5.7,1.6,8.6
					c0.2,2.9,0.3,5.8,0.2,8.7c-0.1,2.9-0.1,5.8-0.5,8.7c-1.5,11.5-3.7,22.7-5.9,34c-1.2,5.6-2.4,11.3-3.8,16.8
					c-1.4,5.6-2.8,11.2-4.5,16.7C244,252.6,241.5,263.9,241,275.4z"/>
				<path class="st1" d="M220.9,171.2c0.1,4.2-0.2,8.4-0.5,12.6c-0.4,4.2-0.8,8.3-1.4,12.5c-0.6,4.1-1.1,8.3-1.8,12.4l-1,6.2
					l-1.1,6.2c-0.4,2-0.8,4.1-1.2,6.2c-0.4,2-0.7,4.1-0.9,6.1c-0.2,2-0.4,4.1-0.3,6.1c0.1,1,0.1,2,0.3,3c0.2,0.9,0.7,1.7,1.3,2.1
					c0.7,0.4,1.5,0.3,2.2-0.4c0.7-0.6,1.2-1.6,1.7-2.5c0.9-1.8,1.7-3.8,2.4-5.7c1.4-3.9,2.5-8,3.5-12c-0.7,4.1-1.7,8.2-2.9,12.2
					c-0.6,2-1.3,4-2.2,5.9c-0.5,1-1,1.9-1.7,2.8c-0.4,0.4-0.9,0.8-1.5,1c-0.6,0.2-1.4,0.1-2-0.2c-1.2-0.6-1.8-1.8-2.1-2.9
					c-0.3-1.1-0.5-2.1-0.6-3.2c-0.2-2.2-0.2-4.3,0-6.4c0.2-2.1,0.4-4.2,0.8-6.3l1.1-6.2l4.2-24.7c0.7-4.1,1.4-8.2,2.1-12.3
					C219.8,179.5,220.5,175.4,220.9,171.2z"/>
				<path class="st1" d="M117.8,181.7c-1.8,1.6-2.6,3.7-2.9,5.9c-0.3,2.2-0.2,4.4,0,6.6c0.2,2.2,0.6,4.4,1.1,6.7
					c0.4,2.3,0.9,4.5,1.3,6.8c0.9,4.5,1.9,9,2.9,13.5c1,4.5,2.2,9,3,13.6c-1.6-4.3-3.2-8.7-4.6-13.1c-0.7-2.2-1.3-4.4-1.9-6.7
					c-0.6-2.2-1.2-4.5-1.7-6.8c-0.5-2.3-1-4.5-1.4-6.8c-0.5-2.3-0.8-4.6-1-7c-0.1-2.4,0-4.8,0.7-7.2c0.4-1.2,0.9-2.3,1.6-3.3
					C115.8,182.9,116.7,182.2,117.8,181.7z"/>
				<path class="st1" d="M121.2,213.7c1.1-1.2,2.6-2,4-2.5c1.5-0.6,3-1,4.5-1.2c-1.3,1-2.8,1.6-4.2,2.1L121.2,213.7z"/>
				<path class="st1" d="M127.2,232.4c0.8-1,1.9-1.7,3-2.1c1.1-0.4,2.3-0.7,3.5-0.9c-0.9,0.9-2.1,1.3-3.2,1.8
					C129.5,231.7,128.4,232,127.2,232.4z"/>
				<path class="st1" d="M127.8,236.8c0.5-0.8,1.2-1.5,2-2c0.8-0.6,1.6-1,2.5-1.4c1.7-0.7,3.6-1.2,5.5-1.2c-1.7,0.7-3.4,1.3-5.1,2.1
					C131,235,129.4,235.8,127.8,236.8z"/>
				<path class="st1" d="M168.2,204.2c1.7-0.4,3.3-0.5,5-0.5c1.7,0,3.3,0.1,5,0.5c-1.7,0.4-3.3,0.5-5,0.5
					C171.5,204.6,169.9,204.6,168.2,204.2z"/>
				<path class="st1" d="M181.2,209.9c-2.9-0.5-5.8-0.9-8.7-1.1c-1.4-0.1-2.9-0.1-4.3-0.1c-1.4,0.1-2.9,0.2-4.3,0.5
					c1.3-0.7,2.8-1.1,4.3-1.3c1.5-0.2,3-0.2,4.5-0.2C175.5,208.1,178.5,208.7,181.2,209.9z"/>
				<path class="st1" d="M170.8,172.9c0.9-0.5,1.8-0.7,2.8-0.9c1-0.2,1.9-0.2,2.9-0.2c1,0.1,1.9,0.2,2.9,0.4
					c0.9,0.3,1.9,0.6,2.6,1.2c-1.9-0.4-3.7-0.6-5.5-0.7C174.6,172.7,172.7,172.8,170.8,172.9z"/>
				<path class="st1" d="M203.1,155.2c1.8-0.7,3.8-1,5.8-1c1,0,2,0.1,3,0.3c1,0.2,1.9,0.5,2.8,1c-2-0.2-3.8-0.3-5.8-0.3
					C206.9,155.1,205,155.2,203.1,155.2z"/>
				<path class="st1" d="M201.3,187.3c2-0.2,4-0.6,6-0.6c1,0,2.1,0,3.1,0.3c1,0.2,2,0.7,2.8,1.3c-2-0.6-3.9-0.7-5.9-0.7
					c-1,0-2,0.1-3,0C203.3,187.6,202.3,187.5,201.3,187.3z"/>
				<path class="st1" d="M210.8,195c-2-0.5-3.9-0.6-5.9-0.5c-2,0-4,0.2-6-0.1c2-0.5,4-0.8,6-0.9c1,0,2.1,0.1,3.1,0.3
					C209,194.1,210,194.4,210.8,195z"/>
				<path class="st1" d="M243.3,170.9c0.9-0.3,1.9-0.3,2.9-0.2c1,0.1,1.9,0.3,2.9,0.6c1.9,0.6,3.6,1.3,5.3,2.3
					c-2-0.2-3.8-0.8-5.6-1.3C247,171.6,245.2,171.2,243.3,170.9z"/>
				<path class="st1" d="M249.3,205.8c-1.8-0.2-3.4-0.7-5-1.2c-1.6-0.5-3.2-1-4.9-1.3c1.7-0.4,3.6-0.1,5.2,0.4
					C246.2,204.2,247.7,204.9,249.3,205.8z"/>
				<path class="st1" d="M237.9,207.2c1.3-0.4,2.6-0.4,3.9-0.2c1.3,0.2,2.6,0.6,3.7,1.4c-1.3-0.1-2.5-0.3-3.8-0.5
					C240.4,207.7,239.2,207.5,237.9,207.2z"/>
				<path class="st1" d="M267.4,266.1c1.8,0.6,3.5,1.5,4.9,2.7c0.7,0.6,1.4,1.4,1.9,2.2c0.5,0.8,0.9,1.7,1,2.7
					c-1-1.6-2.1-2.9-3.5-4.1C270.3,268.3,268.8,267.3,267.4,266.1z"/>
			</g>
			<text transform="matrix(0.7322 0 0 1 123.236 334.9805)" class="st10 st11 st12 st13">STOP</text>
		</g>
	</g>
</g>
</svg>
