<?xml version="1.0" encoding="utf-8"?>
<!-- Generator: Adobe Illustrator 27.3.1, SVG Export Plug-In . SVG Version: 6.00 Build 0)  -->
<svg version="1.1" id="Camada_1" xmlns="http://www.w3.org/2000/svg" xmlns:xlink="http://www.w3.org/1999/xlink" x="0px" y="0px"
	 viewBox="0 0 500 500" style="enable-background:new 0 0 500 500;" xml:space="preserve">
<style type="text/css">
	.st0{fill:#FF8B00;}
	.st1{fill:#3A2B20;}
	.st2{fill:#5E1A60;}
	.st3{fill:#B27247;}
	.st4{fill:#7C247C;}
	.st5{fill:#C68355;}
	.st6{fill:#5BB29D;}
	.st7{fill:#30826D;}
	.st8{fill:#A0663F;}
	.st9{fill:#7F057F;}
	.st10{fill:#AA0CA3;}
	.st11{fill:#382111;}
	.st12{fill:#663F25;}
	.st13{fill:#202A51;}
</style>
<g id="OBJECT">
	<rect y="301" class="st0" width="500" height="199"/>
	<g>
		<path class="st1" d="M211.1,184.3c0,0-5.5-69.9-55.4-59c0,0-38.2,5.1-36.1,60.3c2.3,61.4,9.3,87.1-10.3,92.2
			c-19.6,5.1-19.9,57.4,64.7,39.2C233.1,304.3,211.1,184.3,211.1,184.3z"/>
		<g>
			<g>
				<path class="st2" d="M369.9,341.8c0,0,14-4.8,24.2,1.6c10.1,6.4,34.6,22.7,29.8,35.2c-4.9,12.5-49.6-14.4-49.6-14.4L369.9,341.8
					z"/>
				<path class="st3" d="M351.1,358.3l19.8,4c0,0,29.2,17.5,38.5,12.9c9.3-4.6-13.3-31-30.8-31l-20.3-7.9L351.1,358.3z"/>
			</g>
			<g>
				<path class="st4" d="M384.3,324.3c0,0,14.9-5.1,25.7,1.7c10.8,6.8,36.8,24.2,31.6,37.4s-52.8-15.3-52.8-15.3L384.3,324.3z"/>
				<path class="st5" d="M364.4,341.8l21,4.3c0,0,31,18.6,40.9,13.7c9.9-4.9-14.1-33-32.7-33l-21.6-8.4L364.4,341.8z"/>
			</g>
		</g>
		<g>
			<path class="st6" d="M272.2,218.8c0,0,67-4.9,61.5,66.7c0,0,40.5,17.9,43,30.8c2.5,12.7-8.7,30.2-15.8,30c0,0,3.7,10.6-7.6,17
				s-127.7-10.8-130.4-46.2C220.2,281.7,272.2,218.8,272.2,218.8z"/>
			<path class="st7" d="M247.4,278.1c0,0-11.4,35.4,111.1,67C358.5,345.1,257,313.3,247.4,278.1z"/>
			<path class="st7" d="M334.8,286c-3-3.9-7-6.8-11-9.1c-1.6-10.5-15.3-13.6-15.3-13.6c8.5,4.5,12.6,10.1,14.3,13.1
				c-9.2-4.8-18.6-5.9-18.6-5.9L334.8,286z"/>
		</g>
		<path class="st8" d="M149.2,246.7c0,0-0.7,69.7,28.1,69.9c28.9,0.2,40.9-16.2,40.9-16.2l-1.8-20.2c0,0-37.6,19.6-34.9-30.2
			L149.2,246.7z"/>
		<path class="st9" d="M164.6,187.7c0,0-17.3,5.3-17.7,20c-0.4,14.7-2.3,45.2,1.5,47.1s26.7,4.2,30.2-2.9
			C182.2,244.9,181.8,185.1,164.6,187.7z"/>
		<path class="st10" d="M245.8,191.8c-49.6-24.8-80.6-9.5-80.6-9.5c-13.9,14.7-3,49,1.1,61c4.1,12,9.3,16.1,24.8,19.9
			c15.5,3.8,19.3,25.1,31.3,30.8s61-39.5,65.4-52.8S295.4,216.6,245.8,191.8z"/>
		<path class="st9" d="M213.7,189.5c0,0-9.3,3.6-7.6,17.8c1.6,14.2,5.8,53.7,9.6,53.7s32.5,2.9,48.5-13.4c0,0-19.1,12.9-40.3,10.9
			c-4.4-0.4-8-3.8-8.7-8.2l-6.6-43.2C208.6,207.1,206.6,197.7,213.7,189.5z"/>
		<path class="st5" d="M193.9,168.7c-0.3-1.5-0.7-3-1.1-4.4c-0.2,5.2-0.9,10.9-3.1,11.3c-4.1,0.7-3.8-12.7-3.8-12.7
			s-2,14.5-8.9,14.7c-6.9,0.2-7-11.6-7-11.6s-6.4,19.1-11.1,19.1s-6.2-11.2-6.2-11.2s-3.7,13.9-11,16.9c5.4,6.1,14,8.5,23.6,7.6
			c1.3,1.5,2.8,2.7,4.4,2c1.2-0.5,1.8-1.7,2-3C186.2,193.8,196.6,183.8,193.9,168.7z"/>
		<path class="st11" d="M163.6,195.7c0,0,1.5,5.7,5.8,5s2-7.2,2-7.2s1,5.5-2.2,6.5C165.9,201,163.6,195.7,163.6,195.7z"/>
		<g>
			<path class="st5" d="M261.5,250.4c-9.1,7.4-32.8,10.7-43.5,10.4c8.3,32.8-15.1,41.1-33.3,42.7c-3.3-0.2-11.4-0.7-19.4,0.1l-0.1,0
				v0c-6.6,0.7-13.2,2.1-16.9,5.2c-9.6,8-17.8,20.9-15.7,23.3c0,0,2,1.3,4.1-0.2c0,0-1.8,4.1,1.3,5.4c3.2,1.3,7.8-4.2,7.8-4.2
				s-2.9,5.3,0.9,6.2s8.5-4.8,8.5-4.8s-1.3,3.1,2.3,4.1c3.6,1,11.2-9,14.9-9.8c0,0,0.1,0,0.2,0c14,1.9,47.5,3.4,77.8-17.1
				C269.8,298.4,268.2,273,261.5,250.4z"/>
			<path class="st12" d="M136.4,332.2c0,0,7.6-16.7,18.7-21.6C155.1,310.6,147.8,314.4,136.4,332.2z"/>
			<path class="st12" d="M145.8,333.6c0,0,6.4-14.5,15.7-18.7C161.6,314.9,155.4,318.2,145.8,333.6z"/>
			<path class="st12" d="M155.4,333.6c0,0,4.9-10.3,12-13.3C167.4,320.3,162.7,322.7,155.4,333.6z"/>
		</g>
	</g>
	<path class="st13" d="M500,324.8c-3.7-1.8-7.8-2.9-12.5-3.3c-0.5,0-1.1-0.1-1.6-0.1l-8.6-35.2c2.7-4.4,4.9-9.4,6.3-15.1
		c7.9-2.3,14.5-12.1,10.3-23.4c-1.6-4.5-4.3-5.8-7-5.5c1.9-8.7,2-17.4-0.9-26.1c-2-6-6.9-12.3-14-12.3c-1.9,0-4.1,0.7-5.5,1.8
		c0.1,0.2,0.1,0.4,0.2,0.7c-5.3-7.6-18.3-9-26.7-8.4c-10.9,0.8-20.7,7.5-31.2,10.1c-3.4,0.8-7.6,0.8-10.1-1.9
		c1.3,5.7,0.4,13.2,4.7,17.9c-2-0.3-4-1.7-5.4-3.2c0.6,6.4,3.5,10.8,7.7,13.6c-1,4-1.6,8.9-1.4,14.9l-15.9,26.1l13.7,2l-1.5,7.1
		c0,0,29.2,1.5,37.8-18.1c0,0,1.3,33.4-35.2,31.6c0,0-4.4,17.9,12.2,17.7c3.9-0.1,9.8-0.5,16.5-1.9l0.9,11.5
		c-32.9,9.2-48.8,31.2-49.2,61.3c-0.1,6.4-0.2,13.8-0.4,21.8L355.2,369l-5.9,7.2c0,0,0,0,0,0c-0.3-2.3-0.5-4.7-0.9-7
		c-0.8-5.1-1.8-10.2-3.2-15.1c-0.3-1-0.6-2.1-1.2-3c-1.2-1.6-2.8-2.5-4.7-3c-1.2-0.3-2.5-0.4-3.8-0.5c-0.3,0-0.6-0.1-0.9-0.2
		c-3.7-1.6-7.4-3.1-11-4.7c-0.8-0.3-1.4-1-2.1-1.5c-7.4-5.8-14.4-12-21.5-18.2c-1.2-1.1-2.6-1.9-4.2-2.4c0,0-0.1,0-0.1,0
		c-2.1-0.6-3.5,0.3-3.7,2.5c-0.1,1.4,0.2,2.7,0.9,4c0.7,1.2,1.7,2.2,2.6,3.2c2.4,2.5,4.8,5,7.1,7.5c1.9,2,3.8,4,5.7,6
		c1.2,1.3,2.4,2.7,3.6,4.1c0.2,0.2,0.3,0.4,0.4,0.6c-0.8,0.3-1.6,0.6-2.3,0.9c-1.4,0.6-2.5,1.5-3.3,2.8c-0.9,1.6-0.9,3.3-0.4,5
		c0.1,0.5,0.3,1,0.5,1.4c-0.7,0.4-1.5,0.8-2.1,1.2c-1.8,1.3-3,3-2.9,5.3c0.1,1.3,0.5,2.4,1.1,3.5c0.1,0.3,0.1,0.4,0,0.7
		c-0.9,1.4-1.6,2.9-1.9,4.5c-0.6,3.1,0.3,5.7,2.6,7.9c0.8,0.8,1.7,1.6,2.5,2.4c2.4,2.4,5,4.7,7.7,6.7c2.9,2.2,5.9,4.1,9.2,5.6
		c1.4,0.6,2.8,1.2,4.2,1.6c1.1,0.3,2.2,0.8,3.3,1.2l-1.8,2.3L363,500h137V324.8z"/>
	<path class="st13" d="M498.9,53.5c-6.3,0-8.1-4-13.7-5c-5.4-1-8.5,3.9-13.6,1.9c-4.4-1.8-6.6-7.4-11-9.3
		c-11.4-4.8-22.7,7-23.5,17.5c-1.1,13.9,6.6,18,15.9,20.5c-2.7,4-4.7,9.3-5.6,15.9c0,0,0,3.6-0.9,8.5c-1.9,0.3-4.1,0.1-6-1.3
		c0,0,2,3.4,5.5,4c-2,9.3-7.1,21.2-19.5,21l17,11.2c0,0-1,4.1-3.3,4.5c-2.2,0.4,4.6,12.2,21.8-1c0,0-5.8,13.7-16.3,13.2
		c0,0-1.7,0.6-1.8,2.3c-0.1,1.7,2.8,1.9,3.5,3.5c0.7,1.6-1.7,26.3,25.3,8c0,0,3.3-2,9.2-2.3c0,0.9,0,1.8,0.1,2.7
		c1,11.6,7.9,19.5,18,23.1v-21.6V68.6V53.5C499.6,53.5,499.2,53.5,498.9,53.5z"/>
	<path class="st13" d="M196.7,323c-0.2-2.2-1.6-3.1-3.7-2.5c0,0-0.1,0-0.1,0c-1.5,0.5-2.9,1.3-4.2,2.4c-7.1,6.2-14.1,12.4-21.5,18.2
		c-0.7,0.5-1.3,1.1-2.1,1.5c-3.6,1.6-7.3,3.2-11,4.7c-0.3,0.1-0.6,0.2-0.9,0.2c-1.3,0.2-2.6,0.2-3.8,0.5c-1.9,0.4-3.5,1.4-4.7,3
		c-0.7,0.9-0.9,2-1.2,3c-1.5,5-2.4,10-3.2,15.1c-0.4,2.3-0.6,4.7-0.9,7c0,0,0,0,0,0l-5.9-7.2l-21.6,30.9c-2.1-26.2-4.4-47-6.5-54
		c-7.4-24.8-62.3-33-62.3-33l-5-21.7c14.3-4.3,13.9-22.6,13.9-22.6C19.8,280.7,19.8,255,19.8,255c8.7,17,33.8,5.3,33.8,5.3l-7.1-9.9
		l18.6-7.7L43,217.2c25.5-11.2,23-28.4,19.4-29.6c-4.3-1.4-25.3,9.5-25.3,9.5s-5-11.8-7.7-16.8c-1.1-2-3.5-3.3-6-4
		c-3.8-1.2-7.9-1.3-11.8-0.4L0,178.4V500h125.7l34.3-98.5l-1.8-2.3c1.1-0.5,2.1-0.9,3.3-1.2c1.4-0.4,2.8-1,4.2-1.6
		c3.3-1.5,6.3-3.4,9.2-5.6c2.7-2.1,5.3-4.3,7.7-6.7c0.8-0.8,1.7-1.6,2.5-2.4c2.3-2.1,3.2-4.8,2.6-7.9c-0.3-1.6-1-3.1-1.9-4.5
		c-0.2-0.3-0.2-0.4,0-0.7c0.6-1.1,1-2.3,1.1-3.5c0.1-2.3-1-4-2.9-5.3c-0.7-0.5-1.4-0.8-2.1-1.2c0.2-0.5,0.4-0.9,0.5-1.4
		c0.5-1.7,0.5-3.4-0.4-5c-0.8-1.3-1.9-2.2-3.3-2.8c-0.7-0.3-1.5-0.6-2.3-0.9c0.1-0.2,0.3-0.4,0.4-0.6c1.2-1.4,2.4-2.8,3.6-4.1
		c1.9-2,3.8-4,5.7-6c2.4-2.5,4.8-5,7.1-7.5c0.9-1,1.9-2,2.6-3.2C196.5,325.7,196.8,324.4,196.7,323z"/>
	<g>
		<g>
			<polygon class="st10" points="381.7,86 365.4,88.1 356.9,36.9 376.8,34.3 			"/>
			
				<rect x="367.9" y="93.5" transform="matrix(0.9916 -0.1293 0.1293 0.9916 -9.9042 49.3816)" class="st10" width="15" height="15"/>
		</g>
		<g>
			<polygon class="st10" points="410.9,89.9 394.5,90.3 391.6,38.4 411.7,38 			"/>
			
				<rect x="395.6" y="96.6" transform="matrix(0.9998 -2.119947e-02 2.119947e-02 0.9998 -2.117 8.5675)" class="st10" width="15" height="15"/>
		</g>
	</g>
	<g>
		<g>
			<polygon class="st10" points="69.7,133.3 86,132.9 86.6,81 66.5,81.4 			"/>
			
				<rect x="70.7" y="139.6" transform="matrix(0.9997 -2.410023e-02 2.410023e-02 0.9997 -3.5231 1.9268)" class="st10" width="15" height="15"/>
		</g>
		<g>
			<polygon class="st10" points="41.4,141.6 57.6,139.5 52.6,87.8 32.6,90.4 			"/>
			<rect x="43.8" y="147" transform="matrix(0.9912 -0.1321 0.1321 0.9912 -19.9572 8.1346)" class="st10" width="15" height="15"/>
		</g>
	</g>
</g>
</svg>
