<?xml version="1.0" encoding="utf-8"?>
<!-- Generator: Adobe Illustrator 27.3.1, SVG Export Plug-In . SVG Version: 6.00 Build 0)  -->
<svg version="1.1" id="Camada_1" xmlns="http://www.w3.org/2000/svg" xmlns:xlink="http://www.w3.org/1999/xlink" x="0px" y="0px"
	 viewBox="0 0 500 500" style="enable-background:new 0 0 500 500;" xml:space="preserve">
<style type="text/css">
	.st0{fill:#A0CCD0;}
	.st1{fill:#81BBC1;}
	.st2{fill:#91C4C9;}
	.st3{clip-path:url(#SVGID_00000089549921073743214500000008283410849170080166_);}
	.st4{fill:#D2EEF7;}
	.st5{fill:none;stroke:#81BBC1;stroke-width:2.4298;stroke-linecap:round;stroke-miterlimit:10;}
	.st6{fill:none;stroke:#A0CCD0;stroke-width:2.4298;stroke-linecap:round;stroke-linejoin:round;stroke-miterlimit:10;}
	.st7{fill:#01265A;}
	.st8{fill:#FFC564;}
	.st9{fill:#E0A155;}
	.st10{fill:#3F79C5;}
	.st11{fill:#3C6EA5;}
	.st12{fill:none;stroke:#01265A;stroke-linecap:round;stroke-linejoin:round;stroke-miterlimit:10;}
	.st13{fill:#824D41;}
	.st14{fill:#593934;}
	.st15{fill:#FFC7AE;}
	.st16{fill:#FCAD97;}
	.st17{fill:#FFFFFF;}
	.st18{fill:#D5F3FF;}
	.st19{fill:none;stroke:#F2A28F;stroke-linecap:round;stroke-linejoin:round;stroke-miterlimit:10;}
	.st20{opacity:5.000000e-02;fill:#DDCA8E;enable-background:new    ;}
	.st21{fill:#DDCA8E;}
	.st22{fill:none;stroke:#593934;stroke-width:0.5;stroke-linecap:round;stroke-linejoin:round;stroke-miterlimit:10;}
	.st23{fill:#E5D7AA;}
	.st24{fill:#6F9AD3;}
	.st25{opacity:0.65;}
	.st26{fill:none;stroke:#E0A155;stroke-width:0.5;stroke-linecap:round;stroke-linejoin:round;stroke-miterlimit:10;}
</style>
<g id="OBJECTS">
	<g>
		<g>
			<path class="st0" d="M408.3,119.4c-8.6-18.2-21.8-34.9-39.5-44.9c-20.2-11.5-44-12.3-66.3-7.5c-23.7,5.1-45.3,16.3-66.6,27.6
				c-10.7,5.7-21.4,11.4-32.4,16.4s-22.3,9-34.1,12c-11.1,2.8-22.3,5.2-32.7,10.1c-9.8,4.6-18,11.6-24.2,20.5
				c-13.8,19.6-16.4,44-16.1,67.3c0.1,5.3,0.1,10.6,0.5,15.9c0.6,7.7,0.4,16.4,0,23.8c-0.3,7.5-1.3,15-2.1,22.5
				c-1.6,14.5-2.9,29.8,2.2,43.8c2.7,7.4,7.1,13.8,11.3,20.4c4.1,6.5,7.1,13.2,9.6,20.5c4.8,13.9,8.1,28.8,17.1,40.7
				c3.4,4.6,7.6,8.6,12.2,11.9c4,4,8.8,7.4,13.8,10.1c6.5,3.5,13.4,6.1,20.4,8.4c2.8,0.9,5.5,1.7,8.3,2.6c4.3,1.5,8.7,2.8,13.1,3.7
				c0.9,0.2,1.7,0.5,2.6,0.7c16.3,4.4,33.4,7.4,50.2,4.8c3.3-0.1,6.6-0.7,9.9-2.3c5-1.6,9.8-3.8,14.3-6.5c6.5-4,12.3-8.9,18.1-13.8
				c5.9-5,11.8-10,18.4-13.9c6.8-4.1,14.3-6.8,21.4-10.2c6.8-3.2,13.1-7.3,17.9-13.1c4.5-5.3,7.6-11.6,9.9-18.2
				c4.6-13.6,5.2-28.1,6.6-42.3c1-9.5,1-19.9,5.8-28.3c9.1-16.1,21.1-30.4,28.4-47.5c9.3-21.8,14.7-45.3,15.1-69
				C422,162.8,417.9,139.9,408.3,119.4z"/>
			<path class="st1" d="M344,214.1c-5.2,6.2-9.6,12.9-14.1,19.6c-4.4,6.6-9.7,13.4-17.4,16.2c-8.6,3.1-18,1-26.9,0.7
				c-8.8-0.3-16.8,1.6-24,6.7c-6.9,4.9-12.5,11.3-18.7,17c-6.5,5.9-13.7,11.1-21.7,14.8c-7.8,3.6-16.6,5.7-25.2,4.5
				c-4.6-0.6-8.8-2.5-13.2-4c-4.5-1.5-9-2-13.7-1.6c-17.5,1.4-34.8,7.9-49.9,16.5c-8.4,4.8-16.2,10.4-23.6,16.5
				c0.5,1.9,1,3.8,1.7,5.7c2.7,7.4,7.1,13.8,11.3,20.4c4.1,6.5,7.1,13.2,9.6,20.5c4.8,13.9,8.1,28.8,17.1,40.7
				c3.4,4.6,7.6,8.6,12.2,11.9c4,4,8.8,7.4,13.8,10.1c6.5,3.5,13.4,6.1,20.4,8.4c2.8,0.9,5.5,1.7,8.3,2.6c4.3,1.5,8.7,2.8,13.1,3.7
				c0.9,0.2,1.7,0.5,2.6,0.7c16.3,4.4,33.4,7.4,50.2,4.8c3.3-0.1,6.6-0.7,9.9-2.3c5-1.6,9.8-3.8,14.3-6.5c6.5-4,12.3-8.9,18.1-13.8
				c5.9-5,11.8-10,18.4-13.9c6.8-4.1,14.3-6.8,21.4-10.2c6.8-3.2,13.1-7.3,17.9-13.1c4.5-5.3,7.6-11.6,9.9-18.2
				c4.6-13.6,5.2-28.1,6.6-42.3c1-9.5,1-19.9,5.8-28.3c9.1-16.1,21.1-30.4,28.4-47.5c9.3-21.8,14.7-45.3,15.1-69
				c0.1-7.9-0.3-15.8-1.3-23.6c-14.3,4.9-27.9,11.7-40.3,19.9C366.6,190.7,354.3,201.6,344,214.1z"/>
			<path class="st2" d="M330,389.5c-6-1.2-12-1.9-18.1-1.7c-6.3,0.2-12.5,1.1-18.7,2.1c-11.4,1.8-23.2,3.9-34.8,1.8
				c-5.4-1-10.5-2.8-15-5.9c-4.5-3.1-8.3-7.2-13.5-9.2c-10.6-4.2-22.1,0-33.1-1.2c-10.3-1.2-18.4-8.3-26.6-13.9
				c-4.1-2.8-8.5-5.3-13.2-6.9c-4.9-1.6-10.2-2.1-15.3-1.6c-9.1,0.8-17.8,4.2-25.7,8.8c0.8,1.9,1.5,3.8,2.2,5.8
				c4.8,13.9,8.1,28.8,17.1,40.7c3.4,4.6,7.6,8.6,12.2,11.9c4,4,8.8,7.4,13.8,10.1c6.5,3.5,13.4,6.1,20.4,8.4
				c2.8,0.9,5.5,1.7,8.3,2.6c4.3,1.5,8.7,2.8,13.1,3.7c0.9,0.2,1.7,0.5,2.6,0.7c16.3,4.4,33.4,7.4,50.2,4.8c3.3-0.1,6.6-0.7,9.9-2.3
				c5-1.6,9.8-3.8,14.3-6.5c6.5-4,12.3-8.9,18.1-13.8c5.9-5,11.8-10,18.4-13.9c6.8-4.1,14.3-6.8,21.4-10.2c4.9-2.4,9.6-5.1,13.6-8.7
				C344.4,393.1,337.3,391,330,389.5z"/>
		</g>
		<g>
			<g>
				<defs>
					<path id="SVGID_1_" d="M434.6,38.5c-3.2-3.4-8-5-12.6-5.8c-5.7-1-11.6-1-17.4-1.3c-7-0.3-13.9-0.7-20.9-1
						c-13.9-0.6-27.9-1.1-41.8-1.4c-27.5-0.7-55.1-0.8-82.6,0.2c-21.8,0.8-59.1,6-86.7,15.6c-6.6,2.3-13.1,4.9-19,8.4
						c-9.4,4.3-17.6,10.9-23.5,19.3c-3.4,4.8-5.6,10.4-6.4,16.2c-0.8,6.4,0.2,12.9,2,19.1c0.7,2.5,1.6,4.9,2.5,7.3
						c-2.4,11.6-12.9,18.1-21,25.7c-8.2,7.7-15.4,16.9-20,27.2c-5,11.2-7.1,23.6-5.1,35.7c1.9,11.5,8,21.2,14.5,30.7
						c0,0.7,0.1,1.4,0.1,2.2c0.6,7.7,0.4,16.4,0,23.8c-0.3,7.5-1.3,15-2.1,22.5c-1.6,14.5-10.9,36.8-5.8,50.8
						c2.7,7.4,4.6,9.2,11.2,15.1c5.7,5.1,15.2,11.5,17.7,18.7c4.8,13.9,8.1,28.8,17.1,40.7c3.4,4.6,7.6,8.6,12.2,11.9
						c4,4,8.8,7.4,13.8,10.1c6.5,3.5,13.4,6.1,20.4,8.4c2.8,0.9,5.5,1.7,8.3,2.6c4.3,1.5,8.7,2.8,13.1,3.7c0.9,0.2,1.7,0.5,2.6,0.7
						c16.3,4.4,33.4,7.4,50.2,4.8c3.3-0.1,6.6-0.7,9.9-2.3c5-1.6,9.8-3.8,14.3-6.5c6.5-4,12.3-8.9,18.1-13.8
						c5.9-5,11.8-10,18.4-13.9c6.8-4.1,14.3-6.8,21.4-10.2c6.8-3.2,13.1-7.3,17.9-13.1c4.5-5.3,7.6-11.6,9.9-18.2
						c4.6-13.6,5.2-28.1,6.6-42.3c1-9.5,1-19.9,5.8-28.3c9.1-16.1,21.1-30.4,28.4-47.5c9.3-21.8,14.7-45.3,15.1-69
						c0.3-17.4-2.1-35-7.6-51.6c4-13,7.9-26,11.9-39c2-6.6,4-13.2,6.1-19.8c2-6.5,4.3-13.1,5.9-19.7C439.1,49.4,439,43.2,434.6,38.5
						z"/>
				</defs>
				<clipPath id="SVGID_00000008842984592163070940000009389789901223693726_">
					<use xlink:href="#SVGID_1_"  style="overflow:visible;"/>
				</clipPath>
				<g style="clip-path:url(#SVGID_00000008842984592163070940000009389789901223693726_);">
					<g>
						<path class="st4" d="M379.8,237.9L183,223.1c-3.6-0.3-6.1-3.6-5.4-7.1l28.8-154.2c0.5-2.7,2.8-4.8,5.6-4.9l208.4-9.3
							c4-0.2,7,3.5,6.1,7.3l-40.4,178.3C385.4,236.1,382.7,238.1,379.8,237.9z"/>
						<g>
							<path class="st1" d="M367.6,198c-0.4-0.8-1.3-1.2-2.1-1.7c-1.3-0.7-2.5-1.3-3.8-2c-2.4-1.2-4.7-2.4-7.1-3.5
								c-9.5-4.4-19.4-7.6-30-7.3c-5.4,0.1-10.9,0.9-16.3-0.4c-5-1.2-9.3-4.4-14.4-5.4c-5.3-1.1-10.6-0.2-15.9,0.5
								c-2.5,0.3-5,0.5-7.6,0.6c-2.3,0-4.6,0-6.9,0.4c-0.7,0.1-1.4,0.3-2,0.6c-4.3,0.8-8.7,1.8-13,2.8c-4.4,1.1-8.9,2.3-13,4.4
								c-2,1-3.9,2.3-5.5,3.7c-1.5,1.3-3.3,3.1-3.4,5.3c-0.3,4.5,5.3,5.1,8.6,5.4c10.9,0.9,22,0.1,32.7-2.5c5.5-1.3,10.8-3.3,16.4-4
								c5.3-0.7,11-1,16.2,0.7c5,1.7,9.3,5.2,14,7.6c4.6,2.3,9.4,4.1,14.5,4.7c2.6,0.3,5.2,0.3,7.9,0c2.8-0.4,5.6-0.9,8.4-0.9
								c5.1,0,10.3,1,15.2-0.7c1.9-0.7,3.7-1.7,5.1-3.1C366.8,202,368.6,199.8,367.6,198z"/>
							<g>
								<g>
									<g>
										<path class="st0" d="M346,192.1l-4.3-4.2c-0.2-0.2-0.6-0.3-0.9-0.2l-6.4,2.7c-0.5,0.2-1.1-0.1-1.1-0.7l-2.6-26.9
											c-0.1-0.5,0.4-1,1-0.9l12.5,2.4c0.4,0.1,0.6,0.4,0.7,0.7l2.6,26.3C347.4,192.2,346.5,192.7,346,192.1z"/>
										<path class="st1" d="M339.5,180.3c1.3-0.1,2.6,0,3.9,0.2c1,0.1,2,0.3,3,0.4l-1.3-13.8c-0.2,0-0.5,0-0.7,0
											c-1.4,0-2.8,0.2-4.2,0.3c-1.4,0.1-2.9,0.3-4.3,0.2c-1.5-0.1-2.9-0.4-4.3-0.6c-0.1,0-0.2,0-0.4,0l1.5,15.3
											c1-0.1,1.9-0.3,2.9-0.7C336.7,181,338,180.5,339.5,180.3z"/>
									</g>
									<g>
										<path class="st0" d="M393.7,139.5c-0.1,0-0.2-0.1-0.3-0.1l-23.3-4.5l-4.5,23.3l23.3,4.5c0.1,0,0.2,0,0.3,0L393.7,139.5z"
											/>
										<path class="st1" d="M386.2,160.8c-0.5-0.5-1-1-1.2-1.6c-0.3-0.6-0.4-1.2-0.5-1.8c-0.3-1.3-0.7-2.5-1.5-3.6
											c-0.4-0.6-0.8-1.1-1.1-1.7c-0.4-0.7-0.6-1.4-0.7-2.2c-0.4-1.6-0.8-3.3-1.4-4.9c-0.2-0.8-0.5-1.6-0.9-2.3
											c-0.4-0.6-1-1.1-1.7-1.6c-1.4-1.1-2.8-2.2-4.3-3.1c-1-0.6-2.1-1-3.2-1.3l-4.2,21.5l21.8,4.2
											C387.1,161.9,386.6,161.3,386.2,160.8z"/>
									</g>
									<g>
										<path class="st1" d="M386.8,150.3c1.2-6.4,4.3-11.3,6.9-10.8c2.5,0.5,3.6,6.1,2.3,12.6c-1.2,6.4-4.3,11.3-6.9,10.8
											C386.6,162.3,385.6,156.7,386.8,150.3z"/>
										<g>
											<path class="st0" d="M388.6,150.6c0.4-2.1,1.2-3.7,1.8-3.6s0.7,1.9,0.3,4s-1.2,3.7-1.8,3.6
												C388.3,154.5,388.2,152.7,388.6,150.6z"/>
											<path class="st0" d="M393.2,151.5c0.4-2.1,1.2-3.7,1.8-3.6s0.7,1.9,0.3,4c-0.4,2.1-1.2,3.7-1.8,3.6
												C392.9,155.4,392.8,153.6,393.2,151.5z"/>
										</g>
									</g>
									<path class="st0" d="M358.3,108.1l-37.6-7.3c-0.6-0.1-1.1,0.4-1,0.9l2.2,12c0.1,0.3-0.1,0.7-0.4,0.8l-13.5,8
										c-0.4,0.2-0.5,0.7-0.3,1.1l6.6,12.9c0.2,0.3,0.1,0.8-0.2,1l-8.8,6.8c-0.3,0.2-0.4,0.7-0.2,1l6.5,12.3
										c0.1,0.3,0.1,0.6-0.1,0.9l-7,9.6c-0.3,0.5-0.1,1.2,0.5,1.3l39.6,7.7c14.8,2.9,29.1-6.8,31.9-21.6l3-15.6
										C382.7,125.3,373.1,111,358.3,108.1z"/>
									<path class="st1" d="M332.1,112.7l-10.6-1.7l-1.2-6.3l12.7,2c1.6,0.3,2.8,1.8,2.5,3.4l0,0
										C335.3,111.8,333.8,112.9,332.1,112.7z"/>
									<path class="st1" d="M337.3,172.2c-1.5-0.6-3-1-4.4-1.8c-1.3-0.7-2.3-1.8-3.5-2.7c-1.3-0.9-2.6-1.1-4.2-0.8
										c-0.8,0.1-1.6,0.4-2.4,0.5c-0.9,0.1-1.7,0-2.6-0.3c-1.5-0.5-2.9-1.3-4.3-1.8c-1.5-0.5-3.1-0.7-4.8-0.7
										c-1.4,0-2.8,0.2-4.2,0.5l-2.3,3.2c-0.3,0.5-0.1,1.2,0.5,1.3l37.8,7.3C342.2,174.4,339.6,173,337.3,172.2z"/>
									<g>
										<line class="st5" x1="367.5" y1="131.8" x2="354.5" y2="139.6"/>
										<line class="st5" x1="356.5" y1="129.7" x2="365.5" y2="141.8"/>
									</g>
									<g>
										<path class="st0" d="M349.6,108.8L364,94.5c1.1-1.1,3-0.1,2.7,1.5l-3.2,16.5c-0.2,0.9-1,1.5-1.9,1.3l-11.3-2.2
											C349.1,111.3,348.6,109.8,349.6,108.8z"/>
										<path class="st1" d="M363.6,112.5l2.9-15l0,0l-8.4,14.5c-0.3,0.5,0,1.1,0.5,1.2l3,0.6
											C362.5,113.9,363.4,113.4,363.6,112.5z"/>
									</g>
								</g>
								<path class="st6" d="M213.6,121.4c-1.2,1.5-2,3.2-2.4,5.1c-0.4,2.2-0.1,4.6,1.1,6.5s3.5,3.2,5.7,2.9c1.4-0.1,2.8-1,3.2-2.3
									c0.2-1-0.1-2.1-0.9-2.8c-0.7-0.7-1.8-1-2.8-1c-2.9,0-5.5,2.7-5.6,5.7s1.9,5.7,4.6,7s5.9,1,8.6-0.2"/>
								<g>
									<path class="st0" d="M253.5,188.9l4.6-3.9c0.2-0.2,0.6-0.2,0.9-0.1l6.2,3.1c0.5,0.2,1.1,0,1.2-0.6l4.5-26.7
										c0.1-0.5-0.4-1-0.9-0.9l-12.6,1.5c-0.4,0-0.6,0.3-0.7,0.7l-4.4,26.1C252,188.9,252.9,189.4,253.5,188.9z"/>
									<path class="st1" d="M259.4,179.4c0.7-0.5,1.4-1,2.2-1.3c0.8-0.3,1.6-0.2,2.4-0.2c0.7,0.1,1.5,0,2.1-0.3
										c0.6-0.3,1.2-0.6,1.8-1c0.1,0,0.1-0.1,0.2-0.1l2.7-15.6c-0.3-0.4-0.6-0.7-1-1l-12.5,1.5c-0.4,0-0.6,0.3-0.7,0.7l-3.6,21.1
										c0.7-0.3,1.3-0.6,1.9-1C256.4,181.3,257.9,180.4,259.4,179.4z"/>
								</g>
								<g>
									<path class="st0" d="M223.4,134.5l1.9,15.7c1.8,14.9,15.4,25.6,30.3,23.8l32.4-3.9c0.3,0,0.6-0.3,0.7-0.6l3.9-12
										c0.1-0.3,0-0.6-0.2-0.8l-10-9.7c-0.3-0.3-0.3-0.7-0.1-1l6.3-9.2c0.2-0.3,0.2-0.8-0.1-1l-10.3-10.3c-0.3-0.3-0.3-0.8,0-1.1
										l10.4-11.7c0.2-0.3,0.3-0.6,0.1-0.9l-6.1-11.3c-0.2-0.3-0.5-0.5-0.8-0.4l-34.6,4.2C232.2,106,221.5,119.6,223.4,134.5z"/>
									<path class="st1" d="M288.4,160.7c-1.5,0.8-3.1,1.2-4.8,1.3c-1.7,0.1-3.4,0-5.1,0.1c-1.5,0.1-3,0.5-4.3,1.2
										c-1.2,0.7-2,1.9-3.1,2.7c-1.5,1.2-3.4,0.5-5.2,0.7c-1.5,0.1-3,0.5-4.3,1.2c-2.6,1.3-4.6,3.4-5.7,6l32.1-3.9
										c0.3,0,0.6-0.3,0.7-0.6l3.5-10.6C290.8,159.5,289.6,160.1,288.4,160.7z"/>
									<path class="st1" d="M286.6,108l-10.9,1.8c-1.6,0.3-3.2-0.8-3.4-2.5l0,0c-0.3-1.6,0.8-3.2,2.5-3.4l8.8-1.5L286.6,108z"/>
								</g>
							</g>
							<path class="st1" d="M304.3,86.8c-0.3-0.8-0.9-1.5-1.8-1.5c-0.9,0-1.7,0.8-2.1,1.6c-1,1.8-0.8,4.2-0.5,6.2
								c0.2,1.3,0.4,2.5,0.8,3.7c0.3,0.9,1.3,3.6,1.4,3.9c0.2,0.5,0.8,0.3,1.1,0c0.6-0.8,1.2-5.6,1.4-6.8c0.1-1.2,0.2-2.4,0.2-3.7
								C304.7,89.1,304.7,87.9,304.3,86.8z"/>
							<path class="st1" d="M318.4,92c-0.4-1-1.5-0.7-2.3-0.3c-1.7,1-3.4,2.2-4.8,3.5c-1.6,1.5-3.1,3.3-4.3,5.2
								c-0.1,0.1-0.2,0.5,0.1,0.7c0.1,0.1,0.3,0.2,0.5,0.1c0.2-0.1,4.3-1.7,5.9-2.6c1.7-1,3.3-2.3,4.2-4
								C318.2,93.9,318.7,92.8,318.4,92z"/>
							<path class="st1" d="M286.1,92c0.4-1,1.5-0.7,2.3-0.3c1.7,1,3.4,2.2,4.8,3.5c1.6,1.5,3.1,3.3,4.3,5.2
								c0.1,0.1,0.2,0.5-0.1,0.7c-0.1,0.1-0.3,0.2-0.5,0.1c-0.2-0.1-4.3-1.7-5.9-2.6c-1.7-1-3.3-2.3-4.2-4
								C286.3,93.9,285.8,92.8,286.1,92z"/>
						</g>
					</g>
					<g>
						<g>
							<g>
								<path class="st7" d="M303.5,204.1c-7.6-6.5-17.3-10-25.1-16.3c-5.8-4.7-10.8-10.3-14.7-16.6c-0.5-2.6-1-5.3-1.3-8
									c-1.2-9.4-0.8-19.2-4.1-28.2c-1.4-3.9-3.5-7.6-6.5-10.5c-2.9-2.9-6.6-4.8-10.5-6.1c-9.8-3.2-20.5-2.2-30.2-5.8
									c-0.6-0.2-1,0.1-1.1,0.6c-0.1,0.1-0.1,2.4-0.3,3.4c0,0.2-0.5,2.3-0.5,2.9c0,0.5-0.1,1.5,0.3,1.8
									c7.2,4.7,14.5,10.1,17.6,17.9c3.2,8.1,3.9,17.1,2.6,25.7c-1.3,8.4-6.7,15.4-7.9,23.8c-0.9,6.6,0.2,13.4,3.1,19.3
									c-7.2,9.1-9.4,21.7-5.6,32.7c1.9,5.5,5,10.5,9.2,14.5c4,3.8,8.8,7,11.7,11.8c3.1,5.2,3,11.6,5.8,16.9
									c1.8,3.4,4.7,6.5,8.1,8.2c1.2,1,2.5,1.9,4.1,2.5c4.7,1.8,10.6,1.8,15.1-0.7c4-2.2,6-6.3,7.5-10.4c0.9-2.7,1.7-5.5,2.7-8.2
									c1.8-0.6,3.6-1,5.3-1.7c2.8-1.1,5.1-3,6.8-5.4c3.4-4.9,3.9-10.7,3.8-16.5c0.9-0.1,1.7-0.2,2.6-0.4
									c9.7-2.3,14.9-12,14.6-21.5C316,220.2,311,210.5,303.5,204.1z"/>
								<path class="st7" d="M197,91c-0.1-2.8-0.3-5.7-1.1-8.4c-0.8-2.7-2.8-4.6-3.8-7.1c-0.8-2-1.1-4.2-1.3-6.4
									c-0.4-3.5-1.1-7.4-4-9.7c-3.4-2.6-7.7-3-11.9-2.5c-4.3,0.6-9.3,1.9-12.6,4.9c-1.7,1.5-3,3.4-4.5,5.1c-1.5,1.8-3,3.5-4.7,5.1
									c-3.3,3.3-6.9,6.1-10.5,9c-3.2,2.7-6.3,6.1-7.1,10.4c-0.8,4.4,1.1,8.9,2.7,12.9c1.4,3.6,3.2,7.2,5.9,10.1
									c1.1,3.1,1.7,6.3,1.9,9.7c0.1,2.3,0.2,4.7,1.2,6.8c0.9,1.9,2.4,3.4,4.1,4.5c2,1.4,4.4,2.2,6.6,3c2.5,0.9,4.9,2,7.3,3.1
									c4.2,2.1,8.7,3.2,13.3,1.5c4.2-1.6,7.5-5.1,8.7-9.5c0.7-2.5,0.4-5,0.7-7.5c0.2-2.3,1.3-4.3,2.6-6.2c1.2-1.9,2.6-3.6,3.7-5.6
									c1.2-2.1,1.8-4.4,2.1-6.8C197.2,102,197.3,96.5,197,91z"/>
								<g>
									<path class="st8" d="M216.5,122.1c0,0-0.1-0.1-0.1-0.1c-0.2-0.8-0.5-1.6-0.1-2.3c0.3-0.6,0.5-1.1,0.6-1.7
										c0.1-0.6,0.1-1.3,0.1-1.9c-0.1-1.1-0.3-2.2-1.2-2.9c-0.4-0.3-0.9-0.5-1.4-0.5c-0.2,0-0.3,0-0.5,0.1
										c-0.1-0.2-0.3-0.4-0.5-0.5c-0.3-0.2-0.7-0.3-1-0.3c-0.2,0-0.5,0.1-0.6,0.3c0,0,0,0,0,0.1c0,0-0.1,0-0.1,0.1
										c-0.7,0.9-0.8,1.8-0.7,2.9c0.1,1.2,0.6,2.5,0,3.6c-0.1,0.1-0.1,0.2-0.2,0.3c0,0-0.1,0.1-0.1,0.1c-0.3,0.3-0.6,0.6-0.8,1.1
										c-0.4,0.8-0.6,1.9-0.2,2.7c0.3,0.7,0.8,1.4,1.5,1.8c0.5,0.3,1.2,0.4,1.8,0.4c0.3,0.4,0.4,0.9,0.7,1.2
										c0.4,0.5,1,0.9,1.7,0.7c0.6-0.1,0.9-0.6,1.2-1.1c0.3-0.6,0.6-1.3,0.6-2C217.3,123.2,216.9,122.6,216.5,122.1z"/>
									<path class="st9" d="M216.7,125.9c0.3-0.6,0.6-1.3,0.6-2c0-0.7-0.4-1.2-0.8-1.8c0,0-0.1-0.1-0.1-0.1
										c-0.1-0.5-0.3-0.9-0.3-1.4c-0.2-0.1-0.4-0.3-0.6-0.5c-0.7-0.8-0.9-1.8-1-2.8c-0.2-1.6-0.9-3.1-2.5-3.5
										c-0.4-0.1-0.7-0.1-1-0.1c-0.1,0.4-0.1,0.9,0,1.4c0.1,1.2,0.6,2.5,0,3.6c-0.1,0.1-0.1,0.2-0.2,0.3c0,0-0.1,0.1-0.1,0.1
										c-0.3,0.3-0.6,0.6-0.8,1.1c-0.4,0.8-0.6,1.9-0.2,2.7c0.3,0.7,0.8,1.4,1.5,1.8c0.5,0.3,1.2,0.4,1.8,0.4
										c0.3,0.4,0.4,0.9,0.7,1.2c0.4,0.5,1,0.9,1.7,0.7C216.1,126.9,216.4,126.4,216.7,125.9z"/>
								</g>
							</g>
							<g>
								<g>
									<g>
										<g>
											<path class="st10" d="M221.8,376.9c-0.5-10.6-3.2-14.4-4.8-21.1c-1.6-6.7-2.8-13.5-3.5-20.3c-0.7-6.8-1-13.7-0.9-20.5
												c0.1-7.1,1-14.1,1.7-21.2c0.7-7,0.9-15-2.6-21.3c0.8-0.4,0.5-1.9-0.5-1.9c-3.3,0-6.6,0.3-9.9,0.4
												c-3.2,0.1-6.4,0.2-9.6,0.2c-3.2,0-6.4-0.1-9.6-0.2c-3-0.1-6-0.3-9-0.4c-0.9,0-0.9-0.1-0.9,0c-1.3,5.4-2.4,11.3-3.3,16.5
												c-0.8,3.2-2.5,10.1-3.3,13.3c-1.8,7.9-3.4,12.2-4.4,20.2c-1,8-1.6,16-1.7,24c-0.1,8,0.3,16,1.1,24c0.1,1,0.2,1.9,0.3,2.9
												c0,1.4,0,2.7,0,4.1c0.1,7.1,0.4,14.1,0,21.2c-0.2,3.6-0.7,7.1-1.4,10.6c-0.7,3.3-1.6,6.6-2.3,10
												c-1.1,5.8,0.1,14,1.2,18.8c0.7,2.8,0.9,5.5,1,8.3c0.2,3.3,0.4,6.5,0.8,9.7c0.8,6.3,1.9,12.6,3.7,18.8
												c0.1,0.5,0.3,0.8,1.5,1c7.9,1.3,16,1.2,24,1.7c4,0.3,15.1,0.9,16.7,0.8c2.2-0.2,4.6-1.1,5-2c2.8-6,0.7-12.7-2.2-18.1
												c-1.6-2.9-3.4-5.7-4.8-8.8c-1.5-3.2-2.2-6.6-2.3-10.1c-0.4-14.6,8.9-26.7,14.8-39.4c1.6-3.5,3.1-7.2,4-11
												C221.4,383.7,221.9,380.3,221.8,376.9z"/>
											<g>
												<path class="st11" d="M193.8,316.6c-1.5,0.3-3,0.6-4.5,0.9c-1.2,0.3-4.5-0.1-4.6,0.4c-1.2,4.5-2.3,9-2.7,13.6
													c-0.2,2.3-0.2,4.6,0,6.9c0.2,2.3,0.7,4.7,0.7,7c0.1,2.3-0.6,4.5-0.9,6.8c-0.4,2.2-0.1,4.4,0.3,6.6
													c0.7,4.3,1.4,8.6,2.6,12.8c0.6,2,1.3,4.1,2.2,6c0.9,2,2,3.9,3.1,5.9c1.1,2,2,4,2.7,6.1c0.7,2.2,1.1,4.6,1.7,6.8
													c1.1,4.7,2.1,9.4,3.1,14.1c1,4.4,1.8,8.9,3,13.3c0.6,2.1,1.3,4.3,2.2,6.4c2.1-11.5,9.3-21.7,14.2-32.2
													c1.6-3.5,3.1-7.2,4-11c0.8-3.2,1.2-6.7,1.1-10c-0.5-10.6-3.2-14.4-4.8-21.1c-1.6-6.7-2.8-13.5-3.5-20.3
													c-0.7-6.8-1-13.7-0.9-20.5c0-0.2,0-0.3,0-0.5c-3.2,0-6.3,0.3-9.5,0.7C200,315.5,196.9,316,193.8,316.6z"/>
												<path class="st11" d="M198.9,471.9c-0.2-1.4-0.4-2.8-0.6-4.2c-0.2-1.3-0.4-2.6-0.9-3.8c-0.4-1.2-1.1-2.2-1.8-3.2
													c-0.8-1.1-1-2.2-1.4-3.4c-1.5-4.9-6.4-7-10.8-8.7c-5.3-2.1-10.6-4.1-15.9-6.2c-1.2-0.5-2.5-0.9-3.7-1.5
													c-1-0.5-1.9-1.2-2.7-2c-0.9-0.8-1.7-1.7-2.5-2.6c0.6,2.6,0.8,5.3,1,8c0.2,3.3,0.4,6.5,0.8,9.7
													c0.8,6.3,1.9,12.6,3.7,18.8c0.1,0.5,0.3,0.8,1.5,1c7.9,1.3,16,1.2,24,1.7c2.1,0.1,6.1,0.4,9.8,0.6c0,0,0-0.1,0-0.1
													C199.2,474.7,199,473.3,198.9,471.9z"/>
											</g>
										</g>
										<g>
											<g>
												<path class="st12" d="M190.3,415c-2.6,8.5-4,16.3-2.5,21.4c3.5,11.7,12.2,21.4,13.9,27.4c1.6,6,1.4,12.6,1.4,12.6"/>
												<path class="st12" d="M193.2,406.5c-0.6,1.7-1.2,3.4-1.8,5.1"/>
												<path class="st12" d="M196.6,397.8c-0.7,1.7-1.4,3.4-2,5.1"/>
												<path class="st12" d="M211.7,344c0,0-1.6,22.2-8.3,38.1c-1.1,2.5-2.3,5.3-3.5,8.2"/>
											</g>
											<g>
												<path class="st12" d="M175.5,303.1c-0.6,3.1-2.4,5.8-4.6,8s-4.9,3.9-7.6,5.6"/>
												<g>
													<path class="st12" d="M165.1,318.7c-0.9,0.5-1.7,0.9-2.5,1.2"/>
													<path class="st12" d="M170,315.5c-0.9,0.7-1.9,1.4-3,2"/>
													<path class="st12" d="M174.1,311.5c-0.6,0.8-1.1,1.5-1.6,1.9c-0.1,0.1-0.3,0.3-0.5,0.4"/>
													<path class="st12" d="M176.8,306.6c-0.4,0.9-0.9,1.8-1.4,2.7"/>
													<path class="st12" d="M178,301.9c0,0.8-0.2,1.7-0.4,2.6"/>
												</g>
											</g>
										</g>
									</g>
									<g>
										<g>
											<path class="st10" d="M313.2,484.4c-2.2-7.8-4.9-15.8-8.9-22.9c-3.8-6.8-9.1-12.5-13.7-18.7c-1.3-1.7-2.5-3.4-3.6-5.2
												c-1.1-1.8-2.6-4-3.6-6c-3.6-7.5-11.2-41.1-8.5-61.2c0.8-6.2,2.2-12.4,3.2-18.6c0.9-5.9,1.5-12.3,0.2-18.2
												c-1-5-3.1-8.9-4.9-12.8c-2.1-4.4-4.5-8.7-7.2-12.8c-2.7-4.1-5.7-7.9-8.9-11.6c-3.6-4-7.3-7.7-10.1-12.3
												c-1.5-2.4-2.7-4.9-3.9-7.4c-1.2-2.6-2.5-5.4-3.6-8c-0.6-1.5-0.9-1.8-1.8-1.8c-2.2,0.1-4.4,0.7-6.6,1
												c-2.3,0.4-4.6,0.7-6.9,1c-4.4,0.6-8.7,1-13.1,1.4c-8.9,0.8-17.9,0.8-26.8,1.2c-0.9,0-1.4-0.2-1.9,0.3
												c-2.6,2.6-3.3,5.9-3.6,9.5c-0.4,4.4-1.4,8.9-0.5,13.2c1,5,1.3,9.6,1.2,14.3c-0.1,4.7-2.1,9.4-2,14.1
												c-0.1,0.4,0,0.9,0.6,1c4.5,1.4,8,4.3,11.1,7.9c3,3.5,5.7,7.1,9.1,10.3c1.4,1.3,2.9,2.6,4.5,3.8c0,0.1,0,0.2,0,0.4
												c4.9,21.8,10.5,43.4,15.9,65c2.4,9.5,4.5,19.3,9.2,28.1c3.8,7,9.4,12.7,15.1,18.1c0.3,0.3,0.5,0.6,0.8,0.9
												c1,1.4,2,2.8,3,4.2c2,2.9,3.8,5.9,5.4,9c1.6,3.1,3.1,6.2,4.4,9.4c0.6,1.6,1.2,3.2,1.8,4.8c0.6,1.7,1.2,5.1,2.2,6.1
												c1.2,1.2,6.1,0.3,7.2,0.2c4.9-0.4,9.9-1,14.8-1.5c9.8-1.1,19.5-2.5,29.2-4.1c0.5-0.1,1.1-0.2,1.3-0.5
												C313.5,485.5,313.4,485,313.2,484.4z"/>
											<g>
												<path class="st11" d="M270.7,487.6c1.4-2.7,2.6-5.6,3-8.7c0.5-3.3,0.2-6.7,0.1-10.1c-0.1-3.3,0.3-6.6,0.6-9.9
													c0.3-3.1,0.2-6.1-0.8-9.1c-1.8-5.2-5.8-9.4-11-11.3c-2.7-1-5.6-1.3-8.5-0.9c-3,0.4-5.9,1.6-8.6,3
													c-4.2,2.1-8.8,4.9-13.6,4.7c3.3,4.4,7.2,8.3,11.2,12c0.3,0.3,0.5,0.6,0.8,0.9c1,1.4,2,2.8,3,4.2c2,2.9,3.8,5.9,5.4,9
													c1.6,3.1,3.1,6.2,4.4,9.4c0.6,1.6,1.2,3.2,1.8,4.8c0.6,1.7,1.2,5.1,2.2,6.1c1.2,1.2,6.1,0.3,7.2,0.2c0.1,0,0.2,0,0.3,0
													c0.1-0.1,0.1-0.2,0.2-0.3C269.2,490.3,270,489,270.7,487.6z"/>
												<path class="st11" d="M252.2,384.3c-1.9,6.2-2.9,12.8-2,19.3c0.8,5.7,3.2,11.2,6.3,16c7,10.8,17.5,18.3,27.1,26.6
													c2.7,2.4,5.4,4.8,8,7.4c2.6,2.7,5.1,5.5,7.8,8c2.4,2.3,5,4.4,7.9,5.9c-0.9-2-1.9-4-2.9-6c-3.8-6.8-9.1-12.5-13.7-18.7
													c-1.3-1.7-2.5-3.4-3.6-5.2c-1.1-1.8-2.6-4-3.6-6c-3.6-7.5-11.2-41.1-8.5-61.2c0.8-6.2,2.2-12.4,3.2-18.6
													c0.9-5.9,1.5-12.3,0.2-18.2c-0.6-2.8-1.5-5.3-2.5-7.6c-3.1,7-4.6,14.7-7.2,21.8C264.2,360.5,256.2,371.5,252.2,384.3z"
													/>
											</g>
										</g>
										<g>
											<g>
												<path class="st12" d="M260.6,409.2c0.8,5.5,2.1,10.8,4.4,15.6c7,14.5,17.2,19.6,25.4,38c8.2,18.4,10,25.4,10,25.4"/>
												<path class="st12" d="M259.8,400.5c0.1,2.1,0.2,4.2,0.5,6.3"/>
												<path class="st12" d="M259.9,381.9c-0.1,4.2-0.3,8.8-0.2,13.5"/>
												<path class="st12" d="M260.2,371.5c-0.1,2-0.2,3.9-0.2,5.6c0,0.6,0,1.2,0,1.8"/>
												<path class="st12" d="M262.8,344c-0.5,6.8-1.4,14.3-2.1,21"/>
												<path class="st12" d="M263.2,333.8c0,1.9,0,3.9-0.1,6.1"/>
												<path class="st12" d="M253.2,309.1c3.9,5.8,7.1,11.5,9,17"/>
												<path class="st12" d="M228.9,268.4c0,0,8.4,20,16,29.6c1.6,2,3.1,3.9,4.5,5.9"/>
											</g>
											<g>
												<path class="st12" d="M221,304.6c2.8,3.8,7.2,6.2,11.8,7.5c4.6,1.2,9.4,1.4,14.1,1.6"/>
												<g>
													<path class="st12" d="M244.5,317.5c1.3,0.1,2.5,0.2,3.6,0.2"/>
													<path class="st12" d="M236.7,316.5c1.4,0.2,2.8,0.4,4.2,0.6"/>
													<path class="st12" d="M228.6,314.4c1,0.4,1.9,0.8,2.7,1c0.5,0.1,1.1,0.3,1.7,0.4"/>
													<path class="st12" d="M222.1,310.8c1.2,0.8,2.5,1.6,3.7,2.3"/>
													<path class="st12" d="M216.4,305.6c0.7,1,1.7,2,2.9,3"/>
												</g>
											</g>
											<g>
												<g>
													<g>
														<path class="st12" d="M190.2,309.5c0.9,2.5,2.5,4.8,4.6,6.4"/>
														<path class="st12" d="M189.4,284.8c-0.2,2.7-0.4,5.5-0.5,8.3c-0.2,4.1-0.3,8.2,0.2,12.2c0,0.3,0.1,0.6,0.1,0.9"/>
														<path class="st12" d="M190.8,271c-0.5,3.8-0.9,7.6-1.2,11.4"/>
													</g>
													<g>
														<path class="st12" d="M195,322.4c0,1.6-0.1,3.3-0.1,4.9"/>
														<path class="st12" d="M199.8,271c-3.2,11.8-4.3,29.1-4.8,48.3"/>
													</g>
												</g>
												<g>
													<path class="st8" d="M190.8,283.7c0-1,0.8-1.8,1.8-1.8c1,0,1.8,0.8,1.8,1.8s-0.8,1.8-1.8,1.8
														C191.6,285.5,190.8,284.7,190.8,283.7z"/>
													<path class="st9" d="M191.2,284.8c0.3,0.4,0.8,0.6,1.3,0.6c1,0,1.8-0.8,1.8-1.8c0-0.7-0.4-1.3-1-1.6
														c-0.5,0.6-0.9,1.4-1.4,2C191.8,284.3,191.5,284.6,191.2,284.8z"/>
												</g>
											</g>
										</g>
									</g>
								</g>
								<g>
									<g>
										<g>
											<path class="st13" d="M249.7,286.4c-0.5-0.7-1-1.3-1.5-2c-0.5-0.8-1-1.5-1.5-2.3c-0.5-0.8-1-1.5-1.4-2.4
												c-0.1-0.2-0.1-0.8-0.4-0.7c-4.8,0.8-8,2.1-11.9,3.5c-5.4,1.8-10.8,3.6-16.2,5.1c-5.5,1.5-11.1,2.7-16.7,3.2
												c-2.8,0.3-5.5,0.4-8.3,0.3c-2.8-0.1-5.6-0.2-8.1-1.5c-2.6-1.4-5-2.9-7.7-3.9c-2.3-0.9-6.4-2.4-6.9-1.5
												c-0.2,0.3-0.2,0.5-0.2,0.9c-0.2,0.8-0.5,1.6-0.7,2.4c-0.2,0.8-0.6,1.6-0.7,2.4c-0.1,1,8.3,4.3,12.5,6.5
												c5,2.6,10.6,4.1,16.2,4.5c6.2,0.4,12.4-1,18.3-2.3c2.9-0.7,5.8-1.5,8.6-2.7s5.5-2.5,8.3-3.6c3.3-1.3,6.6-2.4,10-3.4
												c1.8-0.5,3.5-1,5.3-1.5c1.1-0.3,2.7-0.4,3.3-0.8C249.9,286.6,249.7,286.5,249.7,286.4z"/>
											<path class="st14" d="M240.3,282.6c-1.8,1.1-3.9,1.5-5.9,2.1c-2,0.6-3.9,1.4-5.7,2.4c-1.8,1-3.6,2.1-5.2,3.4
												c-1.7,1.4-3.2,3-5.1,4.1c-1.9,1.1-3.9,1.8-5.8,2.9c-1,0.6-2.1,1.3-3,2.1c1.7-0.3,3.3-0.7,4.9-1.1
												c2.9-0.7,5.8-1.5,8.6-2.7s5.5-2.5,8.3-3.6c3.3-1.3,6.6-2.4,10-3.4c1.8-0.5,3.5-1,5.3-1.5c1.1-0.3,2.7-0.4,3.3-0.8
												c0.1-0.1-0.1-0.2-0.2-0.3c-0.5-0.7-1-1.3-1.5-2c-0.5-0.8-1-1.5-1.5-2.3c-0.5-0.8-1-1.5-1.4-2.4c-0.1-0.2-0.1-0.8-0.4-0.7
												c-0.4,0.1-0.7,0.1-1.1,0.2C242.8,280.5,241.7,281.8,240.3,282.6z"/>
										</g>
										<g>
											<path class="st8" d="M205.4,300c0-1.2-0.2-2.3-0.3-3.5c-0.2-1.2-0.4-2.3-0.6-3.4c-0.2-0.9-0.4-1.8-1-2.6
												c-1.3-1.9-3.5-1.5-5.5-1.4c-2.7,0.1-5.5,0.2-8.2,0.4c-0.1,0-0.6,0-0.8,0.1c-0.4,0.3-0.6,0.9-0.7,1.4
												c-0.2,0.6-0.3,1.2-0.5,1.8c-0.2,1.2-0.4,2.4-0.4,3.6c-0.1,1.2,0,2.4,0.2,3.7c0.1,1,0.3,2,0.9,2.8c0.6,0.8,1.6,1,2.6,1
												c1.3,0.1,2.5,0,3.8,0c2.6,0,5.3,0,7.9,0c0.1,0,1.1,0.1,2-1C205.4,302,205.4,300.9,205.4,300z"/>
											<path class="st9" d="M205.4,300c0-1.2-0.2-2.3-0.3-3.5c-0.2-1.2-0.4-2.3-0.6-3.4c-0.2-0.9-0.4-1.8-1-2.6
												c-0.8-1.2-2-1.5-3.2-1.5c-0.7,0.8-1.2,1.6-1.5,2.6c-0.4,1.3-0.2,2.7-0.8,4c-0.3,0.6-0.7,0.9-1.2,1.2
												c-0.6,0.3-1.1,0.5-1.5,1c-0.7,0.7-1,2-2,2.5c-0.6,0.3-1.2,0.2-1.8,0.2c-0.6,0-1.3,0.1-1.9,0.3c-0.6,0.2-1.2,0.4-1.7,0.7
												c0.1,0.5,0.3,0.9,0.6,1.3c0.6,0.8,1.6,1,2.6,1c1.3,0.1,2.5,0,3.8,0c2.6,0,5.3,0,7.9,0c0.1,0,1.1,0.1,2-1
												C205.4,302,205.4,300.9,205.4,300z"/>
										</g>
									</g>
									<g>
										<path class="st10" d="M232.1,288.6c-0.7-1.3-1.4-2.7-2.2-4c-0.6-1-1.4-2-2.5-2.6c-1.1-0.5-2.6-0.7-3.5,0.4
											c-0.1,0.1-0.6,0.8,0.2,2.5c0.4,1,1,2,1.6,2.9c0.8,1.4,1.5,2.9,2.3,4.3c0.6,1.2,1.2,2.6,2.3,3.5c0.9,0.7,2.3,0.9,3.3,0.1
											C235.7,293.8,233.1,290.5,232.1,288.6z"/>
										<path class="st10" d="M179.1,283.6c-0.8-0.6-2.1-0.6-2.6,0.9c-0.1,0.3-0.2,0.7-0.4,1c-0.2,0.7-0.5,1.3-0.7,2
											c-0.4,1.2-0.9,2.5-1.3,3.7c-0.4,1.3-0.9,2.5-1.3,3.8c-0.3,0.9-0.6,2,0.3,2.6c0.8,0.6,1.9,0.3,2.5-0.5
											c0.7-0.9,1.1-2.1,1.5-3.1c1-2.4,1.8-4.8,2.5-7.3C179.8,285.7,180,284.4,179.1,283.6z"/>
									</g>
								</g>
							</g>
							<g>
								<g>
									<g>
										<g>
											<path class="st15" d="M182.4,168.1c-0.1-1.2-0.6-2.3-1.6-3.1c-0.7-0.6-4-1.2-4.9-1.2c-2.9-0.6-6-0.7-8.8,0.3
												c-11.3,4-12.9,8.5-14.3,11.3c-0.8,1.6-6.2,13.8-7.9,18.3c-2,5.2-3.9,10.4-5.8,15.6c-2.2,5.8-6.8,17.6-6.7,17.8
												c1.4,3.5,3,6.9,4.3,10.4c1.2,3.3,2.3,6.7,3.6,10c2.4,5.9,5.6,11.6,11,15.1c1.4,0.9,2.9,1.6,4.4,2.1
												c0.9,0.3,2.2,0.6,3.1,0.1c0.1,0,0.2,0,0.3,0c3-2.2,5.5-5.3,7.2-8.6c1.9-3.7,2.8-7.7,3.2-11.8c0.5-4.6,0.7-9.1,1.3-13.7
												c0.6-4.7,1.4-9.3,2.2-13.9c0.9-5.2,4-20.9,4.6-23.4c0.6-2.8,1.2-5.6,1.7-8.4c0.6-2.8,1.2-5.6,1.7-8.4
												c0.3-1.4,0.6-2.8,0.9-4.3C182.3,170.8,182.6,169.5,182.4,168.1z"/>
											<g>
												<path class="st16" d="M145.8,203.5c0.1,0.8,0.3,1.6,0.4,2.4c0.2,1.4,0.2,2.8,0.4,4.2c0.2,1.3,0.6,2.5,1.1,3.7
													c1,2.3,2.5,4.3,4.4,5.8c0.4,0.4,0.9,0.8,1.6,0.8c0.6,0,0.9-0.5,1.2-1c0.6-1.2,1-2.4,1.5-3.6c1.1-2.5,2.4-4.8,4.3-6.7
													c1.9-1.8,4.1-3.2,5.7-5.3c1.4-2,2-5,0-6.9c-0.9-0.9-2.2-1.1-3.5-1.2c-1.5-0.1-3.1,0-4.6,0c-3.6,0-7.2,0-10.7,0
													c-0.9,0-1.8,0-2.7,0c-0.2,0-0.4,0-0.6,0c-0.5,1.2-0.9,2.4-1.4,3.6c0.7,0.8,1.4,1.4,2.1,2.2
													C145.5,202.2,145.6,202.8,145.8,203.5z"/>
												<path class="st16" d="M162.1,236.2c-0.5-1.3-1.4-2.5-2.5-3.4c-1.1-0.9-2.4-1.7-3.7-2.3c-1.2-0.5-2.5-0.9-3.7-1.5
													c-0.8-0.6-1.6-1.3-2.2-2.1c-0.5-0.6-0.8-1.3-1.2-2c-0.3-1.2-0.6-2.5-1.1-3.6c-0.8-1.7-2.2-2.7-3.8-3.6
													c-0.4-0.2-0.8-0.5-1.2-0.7c-1.3-1.2-2.8-2.4-4.2-3.5c-0.2-0.2-0.4-0.3-0.6-0.5c-1.1,2.8-2.3,5.9-3.2,8.5
													c0.5,1.9,0.2,3.8,0.7,5.7c0.3,0.9,0.8,1.8,1.3,2.6c0.6,1,1.1,1.9,1.7,2.9c1.1,1.9,2.3,3.9,3.4,5.8c1,1.7,1.9,3.4,3.1,5
													c1,1.4,2.2,2.7,3.7,3.6c0.8,0.5,1.6,0.9,2.1,1.8c0.5,0.8,0.8,1.6,1.4,2.3c1,1.3,2.6,1.9,3.8,3c0.6,0.5,1,1.3,1.7,1.8
													c0.7,0.4,1.3,0.4,2.1,0.3c0.2,0,0.5-0.4,0.6-0.5c1.1-1.6,1.9-3.5,2.5-5.3c0.4-1.2,0.7-2.4,0.8-3.6c0-0.1,0-0.1,0.1-0.2
													c0.3-0.8,0.4-1.6,0.4-2.4c0-1-0.3-1.9-0.6-2.8C162.7,239.8,162.7,238,162.1,236.2z"/>
											</g>
										</g>
										<g>
											<path class="st17" d="M189.3,173.2c0-1.9,0-3.7-0.9-5.3c-1-1.7-2.6-2.8-4.4-3.3c-1.1-0.3-2.2-0.6-3.3-1
												c-1.1-0.4-3.4-1.2-3.4-1.2c-3.2-1.2-6.6-1.2-9.9-0.7c-1.8,0.3-3.5,0.7-5.2,1.3c-1.6,0.5-3.2,1.1-4.6,2.2
												c-1.4,1.1-2.5,2.5-3.6,3.9c-1,1.4-2,2.9-2.5,4.5c-0.5,1.5-0.7,3.1-1,4.6c0,0,0,0.1,0,0.1c-0.6,3.2-3.4,5.5-5.1,8.2
												c-0.8,1.4-1.3,2.9-2.2,4.2c-0.5,0.7-1.2,1.2-1.9,1.7c-0.7,0.5-1.1,1.2-1.4,2c-0.1,0.2,0,0.5,0.2,0.6
												c4.7,3,8.4,7.5,13.7,9.6c1.3,0.5,2.7,0.8,4.2,1c1.5,0.2,2.9,0.6,4.2,1.2c2.6,1.1,5,2.6,7.5,3.9c2.9,1.4,6,2.4,9.3,2
												c0.1,0,0.6-0.2,0.7-0.3c0.3-0.1,0.6-0.5,0.4-0.9c-0.5-0.7-0.3-1.6,0-2.4c0.2-0.9,0.4-1.8,0.5-2.7c0.1-1,0.1-2.1,0.2-3.1
												c0.2-1,0.5-2,0.7-3c0.5-1.8,0.9-3.8,2.1-5.3c1.1-1.3,2.4-2.4,3.1-4c0.8-1.7,1.1-3.7,1.5-5.5c0.4-2,0.9-4,1-6.1
												C189.3,177.4,189.3,175.3,189.3,173.2z"/>
											<g>
												<path class="st18" d="M166.1,205.3c1.1-1.6,1.6-3.5,2.1-5.4c0.5-2,1.1-3.8,2.3-5.4c1.1-1.5,2.3-2.8,3.5-4.2
													c1.2-1.4,2.3-2.9,3-4.5c0.8-1.9,1.2-3.9,1.4-5.9c0.2-2,0.4-4.1,0.3-6.2c-0.1-2-0.7-3.8-2.1-5.3
													c-0.6-0.7-1.4-1.3-2.1-1.9c-0.3-0.3-0.8-0.1-0.9,0.2c-7.3,2.9-8.6,11.9-13.1,17.4c-0.7,0.8-1.4,1.5-2.3,2.1
													c-0.9,0.5-1.9,1-2.8,1.6c-1.7,1.2-3.3,2.5-5.2,3.5c-1.9,1-3.9,1.8-5.8,2.8c-0.9,0.5-2,1.1-2.5,2c3.9,2.9,7.4,6.6,12,8.4
													c1.3,0.5,2.7,0.8,4.2,1c1.5,0.2,2.9,0.6,4.2,1.2c0.5,0.2,1,0.4,1.5,0.7C164.6,206.9,165.5,206.3,166.1,205.3z"/>
												<path class="st18" d="M154.3,182.5c0.6-1.1-0.2-2.5-0.7-3.5c-0.4-0.8-0.9-1.5-1.3-2.3c-0.3-0.7-0.6-1.4-1.1-2
													c0-0.1-0.1-0.1-0.1-0.1c-0.3,1.1-0.5,2.3-0.7,3.5c0,0,0,0.1,0,0.1c-0.4,2.2-1.9,4-3.2,5.7c1.3-0.3,2.7-0.4,4.1-0.4
													C152.3,183.5,153.7,183.7,154.3,182.5z"/>
											</g>
										</g>
									</g>
									<g>
										<path class="st15" d="M162.1,258.8c-2.7-11.5-8.3-22.3-15.5-31.7c-3.6-4.7-7.7-9-12.2-12.9c-2.4-2-4.9-3.9-7.2-6
											c-1.1-1-2.2-2.2-3.2-3.4c-1-1.3-1.8-2.7-2.5-4.2c-1.6-3.1-2.8-6.4-5-9.2c-2-2.6-2.6-6.4-7.1-7c-3-0.4-10.2,0.4-13.4,3.8
											c-3.3,3.4-4.3,8.1-3.3,12.7c0.6,2.5,1.7,4.8,2.9,7c1.3,2.4,2.7,4.8,4.1,7.3c2.8,5,5.7,10,8.5,15
											c4.7,8.4,9.4,16.9,15.2,24.7c2.8,3.7,5.8,7.3,9.1,10.5c1.7,1.6,3.5,3.2,5.4,4.6c1.9,1.5,3.9,2.9,6.1,3.8
											c2.2,0.9,4.7,1.3,7,0.5c2.1-0.7,3.8-2.2,5.1-3.9c1.5-1.9,2.8-4,4.1-6.1c0.7-1.2,1.6-2.2,2.5-3.2
											C162.9,260.9,162.2,259.3,162.1,258.8z"/>
										<g>
											<path class="st16" d="M112.7,189.9c-3.5,0.1-7.2,0.5-10.4,1.9c-2.5,1.1-5.5,3.2-6.1,6.1c-0.2-0.1-0.4,0-0.4,0.2
												c-0.1,0.9-0.3,1.8-0.4,2.7c-0.1,1-0.3,2-0.2,2.9c0.1,1.7,1.2,2.8,2.4,3.9c1.3,1.2,2.8,2.2,4.1,3.4c0.7,0.6,1,1.3,1.4,2.2
												c0.3,0.7,0.7,1.3,1.3,1.8c1.1,0.9,2.5,1.2,3.8,1.4c1.7,0.2,3.4,0.4,5.1,0.5c3.8,0.2,7.5-0.1,11-1.6
												c1.8-0.8,3.5-1.6,5.2-2.5c0.6-0.3,1.3-0.6,1.9-0.9c-1.4-1.1-2.8-2.3-4.1-3.5c-1.1-1-2.2-2.2-3.2-3.4
												c-1-1.3-1.8-2.7-2.5-4.2c-1.6-3.1-2.8-6.4-5-9.2c-0.2-0.3-0.5-0.6-0.7-1c-0.2-0.1-0.4-0.3-0.6-0.4
												C114.5,189.8,113.6,189.8,112.7,189.9z"/>
											<path class="st16" d="M153,260.2c-2.3-2.2-1.8-5.9-3.5-8.5c-1.8-2.6-4-4.9-6.3-7.1c-2.3-2.3-4.8-4.4-7.5-6.3
												c-5.3-3.7-11.5-6-17.3-8.8c-5.5-2.7-10.9-5.8-15.7-9.8c-0.2-0.2-0.4-0.4-0.6-0.6c2.1,3.8,4.2,7.5,6.4,11.3
												c4.7,8.4,9.4,16.9,15.2,24.7c2.8,3.7,5.8,7.3,9.1,10.5c1.7,1.6,3.5,3.2,5.4,4.6c1.9,1.5,3.9,2.9,6.1,3.8
												c2.2,0.9,4.7,1.3,7,0.5c2.1-0.7,3.8-2.2,5.1-3.9c1.5-1.9,2.8-4,4.1-6.1c0.2-0.3,0.4-0.6,0.6-0.9
												C160.2,263,156.8,263.9,153,260.2z"/>
										</g>
									</g>
								</g>
								<g>
									<path class="st17" d="M259,154.3c-2.1-2.7-5.2-4.4-8.5-5.1c-8.4-1.8-16.5,2.4-23.5,6.4c-3.7,2.1-7.4,4.3-11.4,5.9
										c-3.8,1.5-7.8,2.4-11.8,2.9c-8.2,1-16.4,0.1-24.5-1.4c-0.8-0.2-1.7-0.2-2.5-0.5c-0.5-0.2-0.9-0.2-1.3,0.2
										c-4.1,5.2-5.5,10.8-7.5,17c-1,3.1-2,6.2-3.4,9.2c-1.5,3.2-3.5,5.9-5.8,8.5c-2.3,2.7-4.8,5.4-6.3,8.6
										c-1.5,3-2.2,6.4-2.4,9.8c-0.3,6.8,1.8,13.5,5.5,19.2c0.8,1.2,1.7,2.4,2.6,3.6c0,0.2,0.1,0.5,0.2,0.8c0,5,0.1,11.1,5.1,13.9
										c0.2,0.1,0.5,0.2,0.7,0.4c0.1,0.2,0.3,0.4,0.4,0.7c0.2,0.4,0.4,0.9,0.5,1.5c0.1,1.2-0.2,2.4-0.4,3.6
										c-0.3,2-0.1,4.2,1.6,5.4c0.8,0.6,1.9,0.9,2.7,1.5c0.2,0.2,0.5,0.3,0.7,0.5c0.1,0.2,0.1,0.4,0.2,0.6
										c-0.1,0.6-0.1,1.3-0.2,1.9c-0.1,0.8-0.2,1.6-0.3,2.5c-0.1,1.4,0.1,3,1,4.1c0.2,0.2,0.4,0.3,0.6,0.3
										c1.1,0.4,2.3,0.7,3.4,1.1c3.7,1.3,7.6,2.3,11.4,3c7,1.3,14.1,1.9,21.1,0.4c3.4-0.7,6.5-2,9.7-3.2c3.5-1.2,7-2.2,10.6-3
										c4.6-1,9.2-1.8,13.8-2.5c0-1.4,0.1-2.9,0.6-4.3c0.5-1.7,1.8-3.2,2.2-4.9c0.3-1.5-0.6-2.9-0.7-4.4c-0.2-1.5,0.1-2.9,0.6-4.2
										c1.1-2.6,3.3-4.6,4.5-7.1c1.4-3.3-0.6-6.8,0.8-10.1c-0.2-2.5-0.3-5-0.5-7.4c-0.6-6.9-1.1-13.8-0.8-20.7
										c0.2-3.7,0.6-7.4,1.3-11c0.4-1.8,1.2-5.1,2-7c1-2.3,5.1-10.3,5.8-12.4c1.5-4.1,2.9-8.4,3.8-12.7
										C261.5,161.7,261.5,157.6,259,154.3z"/>
									<g>
										<path class="st18" d="M247.9,173.7c-0.7-2.4-2.5-4.8-5.1-5.3c-3-0.5-5.3,1.7-7.2,3.7c-1,1-1.9,2.1-2.5,3.4
											c-0.7,1.5-0.9,3.2-1.5,4.8c-1,2.9-3.4,5.1-4.5,8.1c-1.1,3-0.9,6.2-1.6,9.3c-0.7,3.1-2.5,5.8-3.6,8.7c-1.1,3-0.8,6-0.2,9.1
											c0.4,2,0.8,4,0.5,6c-0.3,1.6-0.9,3.1-1.9,4.3c-2,2.8-5,4.5-8.2,5.4c-7.4,2.1-15.2,0.4-22.7,1.8c-0.3,0-0.7,0-1,0.1
											c-1.7,0.2-4.3,0.2-4.6,2.4c-0.6,3.9,4,6.6,7,7.8c4.3,1.6,9,2,13.5,2.9c2.3,0.5,4.6,1.1,6.8,2.1c2,0.9,4,2,6.1,2.7
											c2.6,0.8,5.1,0.5,7.8,0.5c2.6-0.1,5.1,0.4,7.6,1.3c2.5,1,4.7,2.3,7,3.7c1.2,0.7,2.4,1.3,3.7,1.6c-0.1-1.4,0.1-2.7,0.7-3.9
											c1.1-2.6,3.3-4.6,4.5-7.1c1.4-3.3-0.6-6.8,0.8-10.1c-0.2-2.5-0.3-5-0.5-7.4c-0.6-6.9-1.1-13.8-0.8-20.7
											c0.2-3.7,0.6-7.4,1.3-11c0.2-1.1,0.6-2.6,1-4.2c-0.5-3.2-1-6.4-1.3-9.6C248.4,180.6,248.8,177,247.9,173.7z"/>
										<path class="st18" d="M238.8,264.7c-2.4-0.1-4.8-0.4-7.1,0.3c-2.2,0.7-4.3,1.7-6.4,2.6c-2.2,0.9-4.7,1.7-6.4,3.5
											c-0.3,0.3-0.2,0.7,0.1,0.9c2.5,1.7,5.7,1.6,8.5,1.2c1.7-0.3,3.4-0.7,5.1-0.8c1.6-0.1,3.1,0,4.7,0.1c0.1,0,0.1,0,0.2,0
											c1.2-0.2,2.3-0.3,3.5-0.5c0-1.4,0.1-2.9,0.6-4.3c0.3-1.1,1-2,1.5-3C241.8,264.7,240.3,264.8,238.8,264.7z"/>
										<path class="st18" d="M172,269.7c1.1,0.3,2.1,0.8,3.3,0.9c2.5,0.4,4.4-1.2,6.5-2.1c2.3-0.9,4.7-1.5,7.2-1.6
											c1-0.1,2.1-0.1,2.8-0.9c0.6-0.7,0.7-1.6,0.4-2.4c-0.7-2.1-3.1-2.4-5.1-2.3c-2.5,0.1-5,0.6-7.4,1.5
											c-1.3,0.5-2.6,1.1-3.8,1.8c-1.3,0.7-2.6,1.1-4,1.5c-0.8,0.2-1.6,0.3-2.5,0.5c0.1,0.1,0.2,0.2,0.3,0.3
											c0.1,0.2,0.1,0.4,0.2,0.6c-0.1,0.6-0.1,1.3-0.2,1.9c0,0.1,0,0.1,0,0.2C170.5,269.4,171.2,269.5,172,269.7z"/>
										<path class="st18" d="M172.1,258.1c2.8,0,5.5,0.1,8.2-0.6c2-0.5,5.1-1.2,5.4-3.8c0.1-1-0.4-2-1.3-2.4
											c-1-0.5-2.3-0.4-3.4-0.3c-1.4,0.1-2.8,0.3-4.2,0.6c-1.4,0.3-2.8,0.7-4.2,1c-3.7,0.6-7.3-0.3-11-0.8c0.5,0.5,1.1,1,1.8,1.4
											c0.2,0.1,0.5,0.2,0.7,0.4c0.1,0.2,0.3,0.4,0.4,0.7c0.2,0.4,0.4,0.9,0.5,1.5c0.1,1.2-0.2,2.4-0.4,3.6c0,0.2,0,0.4-0.1,0.6
											c1.2-0.5,2.3-1,3.5-1.4C169.5,258.2,170.8,258.1,172.1,258.1z"/>
									</g>
								</g>
							</g>
							<g>
								<g>
									<g>
										<path class="st15" d="M231.1,153.1c-1.9-0.7-3.9-2.2-5.1-3.8c-1.5-1.9-2.8-4-4.2-6c-3-4.4-6-8.7-9.1-13.1
											c-2.7-3.9-5.6-7.8-8-11.9c-2.4-4-4.2-7.6-5.3-12.6c-0.1-0.5-0.2-1.2-0.8-1.2c-3.1,0.1-5.9,2.2-7.7,4.6
											c-2.2,2.9-3.4,6.6-4.5,10c-1.1,3.6-2,7.2-3.1,10.8c-1.1,3.7-4.8,11.4-4.9,11.9c-0.5,1.8,0.2,4.5,2,6.7
											c0.9,1.1,1.8,2.4,2.5,3.6c2.5,4,4.5,8.5,3,13.2c-0.7,2.2-1.8,4.2-2.5,6.3c-0.8,2.2-1.2,4.5-1.5,6.8
											c-0.5,4.5-0.4,9.3,0.2,13.8c0.3,2,0.8,4,2.1,5.6c1.2,1.5,2.8,2.5,4.6,3.2c4.2,1.6,7.6,1.9,12,1.3c4.2-0.6,6.8-2,10.4-5.1
											c3.4-2.8,5.4-5.7,6.7-9.9c1.7-5.4,2.7-12.7,4.2-18.2c1.3-4.8,5-9.5,8.1-13.5C231,154.6,231.7,153.4,231.1,153.1z"/>
										<g>
											<path class="st16" d="M212.8,170.5c-0.8,0.4-1.6,0.7-2.4,1c-3.4,1.3-7,2.5-10.3,4c-3.2,1.5-6.4,3.4-8.7,6.1
												c-1.2,1.4-2.1,2.9-3,4.5c-0.9,1.7-1.7,3.4-3,4.8c-1,1.1-2.2,2-3,3.2c0.3,1.4,0.8,2.8,1.7,3.9c1.2,1.5,2.8,2.5,4.6,3.2
												c4.2,1.6,7.6,1.9,12,1.3c0.5-0.1,0.9-0.2,1.3-0.2c1.4-0.4,2.8-0.9,4.1-1.4c1.6-0.8,3.2-1.9,5-3.4
												c3.4-2.8,5.4-5.7,6.7-9.9c1.7-5.4,2.7-12.7,4.2-18.2c1.3-4.8,5-9.5,8.1-13.5c0.9-1.2,1.6-2.4,0.9-2.7
												c-0.6-0.2-1.2-0.5-1.8-0.9c-3.5,4.2-7,8.4-10.6,12.6C216.9,166.9,215.1,168.9,212.8,170.5z"/>
											<path class="st16" d="M190.7,157.9c1.2-1.1,2.1-2.5,2.7-4c0.7-1.6,1.2-3.2,1.5-4.8c0.3-1.7,0.5-3.5,0.4-5.3
												c0-0.8-0.1-1.6-0.2-2.4c-0.1-0.9-0.4-1.8-0.5-2.7c-0.1-0.9,0.1-1.7,0.2-2.6c0.1-1,0.2-2,0.2-3c0-1.7,0-3.4-0.3-5
												c-0.3-1.8-0.8-3.7-1.8-5.2c-0.2-0.3-0.8-1.1-1.4-1.7c-1.1-1.1-4-0.7-5.7,0.1c-0.8,2.9-1.6,5.7-2.4,8.6
												c-1.1,3.7-4.8,11.4-4.9,11.9c-0.5,1.8,0.2,4.5,2,6.7c0.9,1.1,1.8,2.4,2.5,3.6c1.6,2.5,2.9,5.2,3.4,8
												c0.2-0.1,0.4-0.1,0.6-0.2C188.2,159.6,189.6,158.9,190.7,157.9z"/>
										</g>
									</g>
									<g>
										<path class="st15" d="M194.5,116.9c-0.2-4-1.2-7.9-2-11.7c-0.8-3.9-1.7-7.8-2.5-11.6c-0.8-3.5-1.4-7.2-3-10.5
											c-2.7-5.7-8.6-8.9-14.8-9.3c-6.4-0.4-12.7,2.7-17.4,6.9c-4.7,4.2-8.2,9.8-9.5,16c-1.4,6.4-0.2,12.6,3.1,18.3
											c3.6,6.3,7.7,11.4,10.8,18.1c2.9,6.3,8,15.8,12.5,18.2c1.4,0.7,3.2,0.4,4.8-0.2c2.8-1.1,5.1-3.2,6.9-5.5
											c2-2.6,3.5-5.5,5-8.4c1.6-3.1,3.2-6.2,4.3-9.5C193.9,124.1,194.6,120.5,194.5,116.9z"/>
										<g>
											<path class="st16" d="M171.3,129.4c-0.5-0.7-1.2-1.2-1.9-1.7c-0.8-0.6-1.7-1.3-2.5-1.9c-1.4-1.2-2.7-2.4-4.2-3.6
												c-0.7-0.5-1.4-1.1-2.1-1.5c-0.7-0.4-1.5-0.7-2.3-0.8c-0.9,0-1.1,0.2-0.7,0.5c1.5,1.6,2.5,3.7,3.2,5.8
												c0.8,2.4,1.4,4.8,2.1,7.2c0.1,0.5,0.2,1.2,0.5,1.7c0.2,0.4,0.6,0.6,0.9,0.7c0.9,0.4,1.9,0.4,2.9,0.1c0.9-0.4,1.6-1,2-1.9
												c0.2-0.3,0.4-0.8,0.5-1.3c0.3-0.2,0.5-0.4,0.8-0.6c0.3-0.3,0.7-0.5,0.9-0.8C172,130.7,171.7,130,171.3,129.4z"/>
											<path class="st16" d="M185.5,127.5c-1.3-1.5-3.3-1.8-5.2-2.1c-2-0.3-2.7-0.2-3.4,0.4c-0.7,0.5-1,1.4-0.8,2.3
												c0.3,1.7,1.9,2.7,3.5,3.1c1,0.2,1.9,0.4,2.9,0.6c0.9,0.2,1.9,0.4,2.8,0c0.8-0.3,1.4-1,1.4-1.8
												C186.7,129.1,186.1,128.2,185.5,127.5z"/>
											<g>
												<path class="st7" d="M182.5,109c-0.6-0.5-1.6-0.5-2.9-0.6c-3.1-0.1-5.4,1.4-8.1,2.5c-1.4,0.6-2.9,0.8-4.4,1.1
													c-1.4,0.2-4.7,0.5-4.9,0.5c-0.1,0-0.2,0.2-0.1,0.3c1.5,0.7,3.4,0.8,5,0.8c1.7,0,3.4-0.2,5.1-0.6
													c1.7-0.4,3.3-1.1,4.9-1.9c0.9-0.4,1.8-0.8,2.7-1c0.4-0.1,0.9-0.2,1.3-0.2c0.5,0,0.9,0,1.3-0.2
													C182.6,109.5,182.7,109.1,182.5,109z"/>
												<path class="st7" d="M173.8,120.1c0-0.1-0.4-0.6-0.5-0.7c-0.2-0.2-0.9-0.8-1.1-0.9c-0.1-0.1-0.3-0.2-0.4-0.3
													c-0.6-0.3-1.4-0.2-1.6,0.5c-0.3,0.7,0.5,1.3,0.9,1.7c0.3,0.3,0.5,0.5,0.8,0.8c0.2,0.2,0.5,0.5,0.8,0.6
													c0,0,0.4,0.2,0.6,0.2c0.1,0,0.3,0,0.4-0.1c0.2-0.2,0.3-0.6,0.3-0.9C173.9,120.7,173.9,120.4,173.8,120.1z"/>
											</g>
											<g>
												<path class="st7" d="M155,115.5c0-0.1-0.2-0.1-0.3-0.1c-0.2,0.1-0.3,0.3-0.4,0.5c-0.1,0.2-0.2,0.4-0.3,0.6
													c-0.2,0.4-0.5,0.7-0.7,1c-0.3,0.3-0.6,0.6-0.9,0.9c-0.2,0.1-0.3,0.3-0.5,0.4c-0.2,0.1-0.3,0.3-0.5,0.3
													c-0.2,0-0.3,0.4-0.2,0.6c0.1,0.1,0.2,0.9,0.4,1c0.2,0.2,0.4,0.1,0.7,0c0.9-0.4,1.4-1.2,1.8-2c0.2-0.4,0.4-0.9,0.6-1.3
													c0.1-0.2,0.1-0.5,0.2-0.7C154.9,116.3,155.2,115.7,155,115.5z"/>
												<g>
													<path class="st7" d="M158.3,124.6c-0.4-0.4-0.9-0.7-1.4-0.9c-0.3-0.1-0.7,0.1-0.8,0.4c0,0,0,0.2,0.1,0.3
														c0.2,0.2,0.3,0.4,0.5,0.6c0.1,0.2,0.3,0.3,0.4,0.5c0.1,0.2,0.3,0.4,0.4,0.6c0.1,0.2,0.2,0.4,0.4,0.6
														c0,0,0.1,0.1,0.2,0.1c0,0,0.1,0,0.1,0c0,0,0.1,0,0.1,0c0.2,0.1,0.3,0,0.5,0c0.3-0.2,0.4-0.5,0.4-0.8
														C158.9,125.6,158.6,125.1,158.3,124.6z"/>
													<path class="st7" d="M158,126.9C158,126.9,158,126.9,158,126.9C158,126.9,158,126.9,158,126.9z"/>
												</g>
											</g>
											<path class="st19" d="M167.8,141.6c0.1-0.9,0.8-1.7,1.7-2.1c0.9-0.4,1.9-0.4,2.8-0.2c0.9,0.2,1.8,0.6,2.6,1"/>
										</g>
									</g>
								</g>
								<path class="st7" d="M214.9,118.8c-0.2-1.3-1.1-2.4-1.4-3.8c-0.7-2.8-0.5-5.7-0.7-8.5c-0.2-2.2-0.4-4.4-0.4-6.6
									c0-2.1,0.2-4.2,0.2-6.2c0-3.8-1.4-7.2-3.5-10.4c-2.3-3.5-4.8-6.9-7.2-10.3c-1.1-1.5-2.1-3.2-3.4-4.5
									c-1.2-1.3-2.7-2.2-4.3-2.9c-3.6-1.7-7.3-3.8-11.1-4.9c-8.1-2.4-14.5,4-20.6,8.2c-1.8,1.3-3.7,2.4-5.7,3.5
									c-1.8,1-3.7,1.9-5.4,3c-3.1,1.9-5.5,5-5.1,8.7c0.4,7.6,4.3,14.8,10.5,19.3c6.2,4.5,14,5.9,21.2,8c3.7,1,7.3,2.2,10.7,4.1
									c3.4,1.9,6.2,4.6,9.4,6.9c3,2.2,6.8,4.1,10.6,3.8C212.4,125.7,215.7,122.8,214.9,118.8z"/>
								<g>
									<path class="st15" d="M196.4,108.7c-0.3-1.8-0.4-3.7-1-5.5c-0.6-1.6-1.6-2.9-3.2-3.7c-3-1.5-6.6-0.5-8.5,2.3
										c-2.4,3.4-1.7,8.1-0.6,11.9c0,0.2,0.5,0.7,0.6,0.9c0.2,0.3,0.4,0.6,0.6,0.9c0.4,0.6,0.8,1.2,1.1,1.8
										c0.4,0.6,0.7,1.2,1.1,1.8c0.2,0.3,0.4,0.7,0.7,1c0,0.1,0.1,0.2,0.1,0.2c1,1.2,2.6,1.7,4.1,1.5c1.6-0.2,3-1.1,3.9-2.4
										C197.6,116.3,196.9,112.3,196.4,108.7z"/>
									<g>
										<path class="st19" d="M185.7,113.4c0.6-0.5,0.9-1.3,1-2c0.1-0.8,0-1.5,0-2.3c0-1,0.1-2.1,0.4-3.1c0.3-1,0.9-1.9,1.8-2.5
											c0.9-0.6,2-0.9,3-0.6"/>
										<path class="st19" d="M191.2,114.5c0.6-0.5,0.9-1.3,0.8-2.1c-0.1-0.8-0.6-1.4-1.2-1.9c-0.6-0.5-1.4-0.7-2.1-0.8
											c-0.6-0.1-1.3-0.1-1.9,0.1"/>
									</g>
								</g>
							</g>
							<g>
								<g>
									<g>
										<path class="st15" d="M303.2,245.7c-1.5-10.9-5.9-21.1-10.1-31.2c-2.2-5.1-4.4-10.2-6.1-15.5c-0.9-2.7-1.7-5.4-2.3-8.1
											c-0.6-2.8-0.9-5.5-1.4-8.3c-0.9-5.4-3.3-10-6.9-14.1c-3.4-3.9-7.6-7.4-11.7-10.6c-2.4-1.8-5-3.4-7.9-4
											c-2.9-0.6-5.8-0.3-8.3,1.1c-7.7,4.2-10.6,9.7-11.6,14.7c-0.9,4.5,0.9,7.7,2.6,10.8c2.5,4.7,5,9.4,7.4,14.2
											c1.7,3.3,3.5,6.6,4.8,10c4.3,11,7.1,22.4,10,33.9c2.8,11.1,5.3,23.3,13.9,31.6c3.1,3,6.8,5.3,10.9,6.5
											c5.8,1.6,10.9,2,11.2,1.5C304.4,269,304.7,257,303.2,245.7z"/>
										<path class="st16" d="M284.2,191.5c-0.2-1.4-2.5-0.9-3.4-0.8c-1.5,0.2-3,0.6-4.5,0.9c-3.1,0.7-6.3,1.3-9.4,2
											c-1.4,0.3-2.9,0.6-4.2,1.1c-0.3-0.7-0.6-1.5-0.9-2.2c-1.1-2.6-2.5-4.9-4.4-7c-1.7-1.9-3.8-3.5-6.1-4.6
											c-2.3-1.2-4.8-2-7.3-2.3c-1.6-0.2-3.8-0.3-5.2,0.7c0.2,0.4,0.5,0.9,0.7,1.3c2.5,4.7,5,9.4,7.4,14.2
											c1.7,3.3,3.5,6.6,4.8,10c4.3,11,7.1,22.4,10,33.9c0.2,0.8,0.4,1.6,0.6,2.4c0.8,0.3,1.6,0.6,2.4,0.9
											c2.6,0.8,5.4,1.7,8.1,1.4c5.5-0.5,6.3-1.7,7.4-3.8c2.3-4.5,1-11.8-0.8-17.2c-0.9-2.7-2.1-5.3-3.7-7.7
											c-1.6-2.4-3.4-4.6-5.3-6.8c-0.5-0.6-0.9-1.1-1.4-1.7c-0.2-0.3-0.4-0.6-0.5-0.9c-0.3-0.5-0.3-1-0.3-1.5
											c0-0.5,0-0.9,0.4-1.3c0,0,0,0,0.1,0c0.1,0,0.2-0.1,0.2-0.1c2.8-1,5.4-2.5,7.7-4.4c2.2-1.9,4.2-4.2,6.9-5.4
											C284.3,192.4,284.2,191.9,284.2,191.5z"/>
									</g>
									<g>
										<path class="st17" d="M290,189.4c-1.4-1.6-2.6-3.2-3.8-4.8c-1.6-3.2-1.6-7.3-3-10.7c-0.5-1.1-1.1-2.2-1.9-3.1
											c-0.8-0.9-1.7-1.8-2.4-2.8c-1.3-2-1.8-4.5-2.9-6.6c-0.6-1.1-1.4-2.2-2.4-3c-0.5-0.5-1.3-0.9-1.9-1.4
											c-0.9-0.7-1.5-1.8-2.1-2.8c-1.3-2-2.7-4.1-4.9-5.2c-2.3-1.2-5.1-1.2-7.6-1.2c-5.3,0.1-11.7,0.4-15.9,4.2
											c-4.2,3.9-5.4,4.2-7.2,6.9c-2.1,3.1-3.4,6.6-3.8,10.3c-0.4,4,0.3,8,1.9,11.7c0.8,1.8,1.8,3.6,2.9,5.3
											c0.4,0.9,0.8,1.7,1.1,2.7c0.4,1.3,0.8,2.6,1.4,3.8c0.5,1.3,1.2,2.4,2.1,3.5c0.9,1.2,1.9,2.3,2.8,3.5
											c1.6,2.4,2.5,5.1,2.7,8c0,0.7,0,1.4,0,2.1c0,1.9,0.5,1.8,1,1.7c6.2-0.3,11.9-3.3,16.9-6.8c2.7-1.8,5.3-3.8,8-5.6
											c2.7-1.8,5.6-3.3,8.6-4.6c3.4-1.5,6.8-2.7,10.3-3.9C290.2,190.4,290.3,189.8,290,189.4z"/>
										<g>
											<path class="st18" d="M273.1,193.5c-2.1,0.1-4.3,0.3-6.4,0.3c-2.1,0-4.3-0.3-6.3-1c-1.9-0.7-3.6-1.9-5.2-3.1
												c-1.6-1.2-3.1-2.4-4.9-3.3c-1.9-0.9-4-1.2-6.1-1.6c-1.9-0.4-3.7-1.2-5.2-2.5c-1.5-1.2-2.7-2.6-4-4
												c-0.7-0.8-1.4-1.5-2.2-2.2c-0.7-0.7-1.5-1.5-2.5-1.9c-0.1,0-0.1,0-0.2-0.1c0.3,2.3,0.9,4.6,1.9,6.8
												c0.8,1.8,1.8,3.6,2.9,5.3c0.4,0.9,0.8,1.7,1.1,2.7c0.4,1.3,0.8,2.6,1.4,3.8c0.5,1.3,1.2,2.4,2.1,3.5
												c0.9,1.2,1.9,2.3,2.8,3.5c1.6,2.4,2.5,5.1,2.7,8c0,0.7,0,1.4,0,2.1c0,1.9,0.5,1.8,1,1.7c6.2-0.3,11.9-3.3,16.9-6.8
												c2.7-1.8,5.3-3.8,8-5.6c2.6-1.7,5.3-3.1,8.1-4.4c0,0,0,0-0.1-0.1C277.1,193.4,275,193.3,273.1,193.5z"/>
											<path class="st18" d="M279.9,181.5c-1.9-0.1-3.9-0.4-5.8-0.1c-1.4,0.2-2.7,1.3-2.1,2.8c0.6,1.7,2.5,1.8,4.1,1.6
												c2-0.2,4-0.2,6,0c1.9,0.2,3.8,0.5,5.7,1c-0.6-0.8-1.2-1.5-1.7-2.3c-0.5-1-0.9-2.2-1.1-3.3
												C283.3,181.5,281.6,181.6,279.9,181.5z"/>
											<path class="st18" d="M273.1,168.2c-0.9,1.1-1.7,2.4-1.2,3.8c0.4,1.2,1.7,1.7,2.9,1.6c1.5-0.2,2.6-1.3,4.1-1.6
												c1.1-0.3,2.2,0,3.3,0c-0.3-0.4-0.6-0.9-0.9-1.3c-0.8-0.9-1.7-1.8-2.4-2.8c-1-1.6-1.5-3.4-2.2-5.2c-0.2,0.5-0.5,1-0.8,1.5
												C275,165.7,274.1,167,273.1,168.2z"/>
											<path class="st18" d="M263.3,157.2c-0.9,0.3-2,0.7-2.2,1.8c-0.4,2.5,3.9,1.8,5.2,1.5c1.3-0.3,2.5-0.8,3.6-1.5
												c0.8-0.5,1.6-1.2,2.6-1.5c-0.3-0.2-0.6-0.4-0.8-0.6c-0.6-0.5-1.1-1.2-1.5-1.9c-1,0.2-2.1,0.6-3.1,0.9
												C265.7,156.4,264.5,156.8,263.3,157.2z"/>
										</g>
									</g>
								</g>
								<g>
									<path class="st15" d="M299.1,269.4c-0.1-0.5-0.5-1.6-1.1-2.5c-1.2-1.9-2.7-3.5-4.1-5.2c-1.7-2-3.2-4.2-4.3-6.6
										c-0.5-1.2-0.9-2.4-1.1-3.6c-0.1-1.4-0.2-2.8-0.5-4.2c0,0,0-0.1,0-0.1c0-0.1,0-0.1-0.1-0.2c-2.2-12.3-10.5-23.2-19.4-31.8
										c-6-5.8-12.5-11.1-18.7-16.8c-3.1-2.8-6-5.7-8.8-8.8c-2.6-3-5-6.2-7.6-9.1c-5-5.6-13.5-10.9-21.2-6.9
										c-0.6,0.3-5.1,2.6-7.6,3.4c-2.6,0.9-5.5,1-8.1,2.1c-4.7,2-8.1,6.1-11.3,9.9c-1.7,2-3.5,4-5.5,5.7c-0.5,0.4-1,0.8-1.6,1.2
										c-0.5,0.3-0.9,0.6-1.2,1.1c-0.7,0.9-0.4,2.1,0.5,2.8c2.1,1.9,5.2,0.3,7.2-0.8c2.4-1.3,4.7-2.7,6.8-4.5
										c1.1-1,2.1-2.2,3.3-3.2c1-0.8,2.2-1.5,3.4-1.9c2.5-0.8,5.2-0.7,7.7,0.2c1.5,2.4,2.8,5.3,5.4,6.6c0.8,0.4,1.7,0.6,2.6,0.7
										c6.2,1.8,9.6,8.6,12.9,13.8c4.5,7.1,9,14.3,13.3,21.5c4.3,7.2,8.3,14.5,12.6,21.7c2,3.3,4.1,6.4,6.8,9.1
										c2.7,2.7,5.7,5.1,8.9,7.3c6,4.3,12.5,8.5,19.9,10c3.3,0.6,6.9,1,9.3-1.8c0.7-0.9,1.5-1.9,1.8-3
										C299.9,273.4,299.5,271.1,299.1,269.4z"/>
									<g>
										<path class="st16" d="M287.7,273.3c-2.2-1.9-3.7-4.3-5.2-6.8c-1.5-2.7-3.1-5.4-4.9-7.9c-7.1-9.7-17.1-16.4-28-21.1
											c-2.7-1.2-5.4-2.2-8.2-3.2c0,0,0,0-0.1,0c3.8,6.5,7.5,13.1,11.4,19.6c2,3.3,4.1,6.4,6.8,9.1c2.7,2.7,5.7,5.1,8.9,7.3
											c6,4.3,12.5,8.5,19.9,10c2.5,0.5,5.1,0.8,7.3-0.2C293.4,277.4,290.2,275.5,287.7,273.3z"/>
										<path class="st16" d="M232.2,209.2c0.5-2.5-0.1-5.1-0.1-7.7c0-2.6,0.3-5.3,0.8-7.8c0.5-2.4,1-5,0-7.3
											c0-0.2-0.1-0.5-0.1-0.7c-0.3-0.9-1.4-1.2-2.2-1.4c-1-0.2-2-0.2-3-0.1c-2.1,0.2-4.3,0.7-6.3,1.3c-2,0.6-3.9,1.5-5.5,2.7
											c-1.6,1.2-3.2,2.7-4.5,4.2c-0.6,0.7-1.2,1.5-1.6,2.4c0.5,0.5,1.1,1,1.8,1.4c0.8,0.4,1.7,0.6,2.6,0.7
											c6.2,1.8,9.6,8.6,12.9,13.8c1.1,1.8,2.2,3.5,3.3,5.3c0.5-0.9,0.7-2,1-2.9C231.5,211.7,231.9,210.5,232.2,209.2z"/>
										<path class="st16" d="M211.9,180.5c-0.6-2-4.6-1.6-4.8-1.6c-0.6,0-1.2,0.2-1.8,0.4c-1.3,0.5-2.5,1.1-3.7,1.8
											c-1.1,0.7-2.2,1.6-3.4,2.2c-1.1,0.6-2.3,1-3.5,1.5c-2.2,0.9-4,2.2-5.2,4.3c-0.6,1-1,2.1-1.3,3.2c-0.2,0.6-0.3,1.1-0.4,1.7
											c-0.1,0.5,0.2,0.9,0.5,1.3c0.2,0.3,0.5,0.6,0.9,0.8c0.8-0.5,1.5-1.1,2.2-1.7c1.1-1,2.1-2.2,3.3-3.2c1-0.8,2.2-1.5,3.4-1.9
											c1.3-0.4,2.6-0.6,3.9-0.6c2-0.9,4.1-1.7,6-2.8C210.1,185,212.7,183.1,211.9,180.5z"/>
									</g>
								</g>
							</g>
						</g>
						<g>
							<g>
								<g>
									<g>
										<path class="st13" d="M206.5,218.6c-0.3-2.1-0.8-4.1-1.5-6c-1.3-3.9-3-7.7-4.1-11.8c-0.3-1-0.5-2-0.9-3
											c-0.3-0.9-0.8-1.8-1.2-2.7c-0.8-1.6-0.7-3.6-2.1-4.9c-1.4-1.3-3.4-1.2-5.2-0.7c-1.9,0.5-3.8,1.1-5.6,1.9
											c-0.9,0.4-1.9,0.8-2.8,1.3c-3,1.2-5.8,2.6-8.6,4.2c-2.7,1.6-5.3,3.3-7.7,5.3c-2.6,2.1-4.9,4.5-7.2,6.9
											c-1.3,1.3-2.6,2.5-3.8,3.8c-0.9,0.9-1.6,2-1.8,3.3c-1.8-1-2.5-3.4-3.1-5.3c-0.8-2.3-1.8-4.6-3-6.8
											c-1.2-2.1-2.7-4.1-4.5-5.6c-2.1-1.7-4.6-2.8-7.2-3.4c-2.8-0.7-5.8-1.3-8.6-0.9c-1.2,0.2-2.1,0.8-2.7,1.9
											c-0.7,1.2-1.1,2.4-1.8,3.6c-1.5,2.6-3.2,5.1-4.8,7.7c-1.6,2.5-3.1,5.1-4.9,7.5c-0.9,1.3-2.2,2.4-2.8,3.8
											c-0.5,1.1-0.6,2.5-0.2,3.6c0.8,2.6,3.5,3.2,5.4,4.7c3.5,2.8,6.2,6.7,8.5,10.3c2.3,3.7,4.8,7.2,7.9,10.3
											c3,3.1,6.5,5.7,10.4,7.7c4.2,2.1,8.9,3.2,12.9,5.8c1.1,0.7,2.2,1.5,3.4,2c0.5,0.2,1.1,0.4,1.6,0.6c1.9,0.9,4.1,0.5,6-0.3
											c2.2-0.9,4.2-2.2,6.4-2.9c2.2-0.7,4.4-1,6.4-2.1c1.7-1,3.1-2.4,4.5-3.8c1.3-1.5,2.6-3,4.1-4.3c1.5-1.3,3.2-2.1,4.9-3.1
											c1.6-0.9,3.3-2,4.4-3.5c1.4-1.8,2.1-4.1,3-6.1c1-2.5,2-4.9,3.6-7.1c1.3-1.8,2.6-3.7,2.8-6.1
											C206.9,221.3,206.8,220.5,206.5,218.6z"/>
										<g>
											<path class="st14" d="M204.4,223.5c0-0.2-0.1-0.5-0.2-0.6c-0.5-0.5-0.9-0.9-1.5-1.1c-0.9-0.3-1.9-0.1-2.8,0.3
												c-1.7,0.8-3,2.1-4.2,3.5c-1.3,1.4-2.4,3-3.7,4.3c-1.3,1.4-2.8,2.5-4.4,3.5c-3.2,2.1-6.6,3.8-9.5,6.1
												c-1.6,1.2-2.9,2.6-4.1,4.3c-1.3,1.7-2.3,3.6-3.5,5.4c-1.7,2.5-4.6,4.4-6.8,6.4c-0.7,0.7-3,0.7-4.2,0.2
												c-1.1-0.4-2-1.2-2.8-1.9c-1.7-1.5-3.4-3.1-4.7-5c-0.6-0.9-1.2-1.9-1.7-2.9c-0.5-1.1-0.8-2.4-1.2-3.5
												c-0.8-2-2.1-3.8-3.5-5.5c-2.9-3.6-6.1-7.2-9.7-10.2c-1.7-1.4-3.6-2.7-5.7-3.5c-2-0.7-4.1-1-6.2-1.2
												c-2.4-0.3-4.9-0.5-7.1-1.5c-1-0.4-2-1.3-3.2-1.3c-0.8,0-1.5,0.8-1.7,1.4c-0.3,0.8-0.2,1.3,0,1.8c0.3,0.9,1.1,1.6,1.9,2.1
												c1.7,1.1,3.6,2,5.3,3.1c1,0.6,1.9,1.3,2.7,2.1c1,1.7,2,3.3,3.1,4.9c2.4,3.6,5,7,7.8,10.3c2.6,3,5.4,5.7,8.6,8
												c1.6,1.1,3.3,2.1,5.1,2.9c1.8,0.8,3.8,1.4,5.6,2.2c1.9,0.8,3.6,1.7,5.1,3c1.4,1.1,2.9,2.3,4.8,2.4
												c1.9,0.1,3.7-0.8,5.3-1.7c1.8-1,3.6-1.8,5.5-2.3c1.9-0.6,3.9-1.1,5.7-1.9c1.6-0.8,3-2,4.3-3.2c1.3-1.3,2.4-2.7,3.7-4.1
												c1.2-1.4,2.6-2.7,4.1-3.9c1.5-1.2,3.1-2.4,4.3-4c1.2-1.6,1.9-3.5,2.9-5.2c1.9-3.6,5.5-6.4,6.6-10.5
												C204.4,225.5,204.5,224.5,204.4,223.5z"/>
											<path class="st20" d="M204.1,222.9c-0.5-0.5-0.9-0.9-1.5-1.1c-0.9-0.3-1.9-0.1-2.8,0.3c-1.7,0.8-3,2.1-4.2,3.5
												c-1.3,1.4-2.4,3-3.7,4.3c-1.3,1.4-2.8,2.5-4.4,3.5c-3.2,2.1-6.6,3.8-9.5,6.1c-1.6,1.2-2.9,2.6-4.1,4.3
												c-1.1,1.4-2,3-2.9,4.5c0.5,0,1.1,0.1,1.6,0.1c2.2,0.2,3.9,1.6,6.1,1.9c2.1,0.3,4.3-0.1,6.4-0.3c0.6-0.1,1.1-0.2,1.7-0.2
												c1.2-1.3,2.4-2.5,3.8-3.6c1.5-1.2,3.1-2.4,4.3-4c1.2-1.6,1.9-3.5,2.9-5.2c1.9-3.6,5.5-6.4,6.6-10.5
												c0.3-1,0.3-1.9,0.2-2.9C204.4,223.3,204.3,223,204.1,222.9z"/>
										</g>
										<g>
											<g>
												<g>
													<path class="st21" d="M153.1,218.7c-0.4-2.2-1-4.2-2-6.2c-1-1.9-2.2-3.8-3.6-5.5c-2.6-3.4-5.8-6.4-9.8-8.1
														c-1.1-0.5-2.3-0.9-3.5-1.1c-1.1-0.2-2.5-0.5-3.6-0.1c-0.2,0.1-0.3,0.1-0.4,0.2c-0.1,0.1-0.1,0.3-0.2,0.4
														c-0.5,0.7-0.9,1.5-1.3,2.2c-0.4,0.8-0.9,1.5-1.3,2.3c-0.9,1.5-1.7,2.9-2.6,4.4c-0.9,1.5-1.7,2.9-2.6,4.4
														c-0.8,1.4-1.9,2.9-2.4,4.5c-0.2,0.7-0.1,0.8,0.3,0.9c2.5,0.7,5,1.3,7.5,2.1c2.4,0.8,4.8,1.7,7,2.9
														c4.2,2.3,8,5.6,11.1,9.3c1.6,2,4.3,7.8,5.1,7.7c1-0.1,1.1-1.1,1.2-1.9c0.1-2.1,0.3-4.2,0.4-6.3
														c0.1-2.1,0.2-4.1,0.3-6.2c0.1-1.1,0.1-2.1,0.2-3.2C152.8,220.8,153.1,219,153.1,218.7z"/>
													<path class="st14" d="M148.6,231.1c-1.3-2.3-3.1-4.3-5.1-5.9c-2.1-1.7-4.4-3-6.8-4.2c-2.5-1.3-5.2-2.4-7.9-3.3
														c-1.6-0.5-3.1-0.9-4.7-1.1c-1.5-0.2-2.8-0.5-4.3-0.1c-0.3,0.1-0.4,0.6-0.1,0.8c0.1,0.1,4.4,2,6.7,3
														c2.4,1,4.7,2,7.1,3.1c2.1,1,4.4,1.9,6.3,3.2c2,1.3,3.4,3.3,4.7,5.2c1.7,2.4,3.3,4.9,4.9,7.3c0.2,0.3,0.7,0.5,1,0.5
														c0.3-0.1,0.5-0.4,0.4-0.8C150.6,236.1,149.9,233.5,148.6,231.1z"/>
												</g>
												<g>
													<path class="st22" d="M152.3,229.9c-2.9-5.6-6.8-10.8-11.9-14.6c-4.9-3.7-11.1-5.9-17.2-5.5"/>
													<path class="st22" d="M152.9,220.2c-3.4-4.3-6.8-8.6-11-12c-4.1-3.3-9.2-5.7-14.5-5.7"/>
												</g>
											</g>
											<g>
												<path class="st23" d="M178.5,225.3c-0.2-0.4-0.4-0.9-0.6-1.3c-0.4-0.9-0.7-1.7-1.1-2.6c-0.7-1.7-1.4-3.5-2.1-5.2
													c-0.6-1.7-1.3-3.4-1.8-5.2c-0.3-0.9-0.6-1.8-0.9-2.7c-0.1-0.4-0.3-1-0.5-1.5c0-0.3-0.3-0.6-0.7-0.5
													c-3.2,1.2-6.1,3-8.7,5.1c-1.3,1.1-2.6,2.2-3.7,3.5c-0.6,0.6-1.1,1.3-1.6,1.9c-0.5,0.7-1.3,1.2-1.5,2.1
													c-0.1,0.6,0.1,1.4,0.2,2c0.1,0.8,0.3,1.6,0.4,2.4c0.3,1.6,0.6,3.2,0.9,4.8c0.3,1.6,0.7,3.1,1,4.6
													c0.2,0.8,0.4,1.6,0.6,2.4c0.2,0.7,1,4.3,1.5,5.3c0.2,0.4,0.7,0.3,1-0.1c1.4-2.5,4.5-5.3,7.2-7c3.3-2.1,6.6-4.1,10-6
													c0.3-0.2,0.6-0.3,0.7-0.5C179.1,226.4,178.7,225.7,178.5,225.3z"/>
												<path class="st14" d="M178.4,226.2c-3.6,1.9-7.3,3.7-10.8,6c-1.7,1.1-3.3,2.3-4.8,3.7c-1.3,1.2-2.5,2.5-2.7,4.4
													c0,0.2,0,0.4,0.1,0.5c0.3,0.1,0.7,0.1,0.9-0.2c2.4-2.8,5.1-5.2,8.1-7.2c1.7-1.1,3.4-2,5.1-3c1.6-1,3.1-2.1,4.5-3.4
													C179.3,226.6,178.8,226,178.4,226.2z"/>
											</g>
										</g>
										<path class="st24" d="M197.7,220.9l-12,5.6c-1.6,0.8-3.6,0-4.3-1.6l-8.7-19.5c-0.7-1.6-0.1-3.7,1.5-4.6l11.4-6.6
											c1.7-1,3.7-0.4,4.5,1.3l9.4,20.6C200.3,217.9,199.5,220,197.7,220.9z"/>
										<g class="st25">
											<path class="st14" d="M126.2,227.7c4.1,3,7.8,6.7,11.2,10.5c3.4,3.7,6.6,7.5,10,11.3c1.6,1.7,3.2,3.4,5,4.9
												c1.7,1.4,3.7,2.9,5.8,3.6c1,0.3,2,0.4,3-0.1c0.2-0.1,0.3-0.3,0.2-0.5c-1.3-3.2-2.5-6.5-3.5-9.8c-0.5-1.7-0.8-3.4-0.7-5.2
												c0.1-1.5,0.3-3,0.1-4.5c-0.4-2.8-1.5-5.4-2.4-8c-1-2.6-1.8-5.4-1.3-8.1c0.4-2.2,1.7-4.8,1.2-7.1
												c-0.3,0.5-0.5,1.1-0.6,1.7c-1.8-1-2.5-3.4-3.1-5.3c-0.8-2.3-1.8-4.6-3-6.8c-1.2-2.1-2.7-4.1-4.5-5.6
												c-2.1-1.7-4.6-2.8-7.2-3.4c-2.8-0.7-5.8-1.3-8.6-0.9c-1.2,0.2-2.1,0.8-2.7,1.9c-0.7,1.2-1.1,2.4-1.8,3.6
												c-1.5,2.6-3.2,5.1-4.8,7.7c-1.6,2.5-3.1,5.1-4.9,7.5c-0.9,1.3-2.2,2.4-2.8,3.8c-0.2,0.5-0.4,1.1-0.4,1.7
												c1,0.4,2.1,0.7,3.2,1C118,222.7,122.3,224.8,126.2,227.7z"/>
											<path class="st14" d="M193.2,193.5c-1.7,0.1-3.3,0.3-4.9,0.9c0,0-0.1,0-0.1,0c-4.1,1.6-6.6,5.4-8.8,9
												c-1.2,2.1-2.4,4.3-3.9,6.2c-1.4,1.8-3.3,3.2-4.3,5.4c-0.8,1.8-0.5,4.1,1.2,5.2c1,0.6,2.1,0.4,3.2,0.6
												c1.1,0.2,1.8,1.2,2.8,1.6s2.1,0.6,3.2,0.7c1.3,0.1,2.6,0.1,3.9,0.2c1.3,0,2.6,0.1,3.9,0c1.2-0.1,2.3-0.5,3.4-1
												c1.3-0.6,2.6-0.6,3.9-0.8c1.4-0.2,2.8-0.7,4.2-1.1c1.1-0.3,2.2-0.4,3.3,0c1.2,0.4,1.8,1.2,2.1,2.4c0,0.1,0.1,0.2,0.1,0.2
												c0.2-2.1,0.1-2.9-0.1-4.4c-0.3-2.1-0.8-4.1-1.5-6c-1.3-3.9-3-7.7-4.1-11.8c-0.3-1-0.5-2-0.9-3c-0.3-0.9-0.8-1.8-1.2-2.7
												c-0.2-0.4-0.4-0.9-0.5-1.4c-0.1,0-0.2,0-0.3-0.1C196.5,193.5,194.8,193.4,193.2,193.5z"/>
										</g>
									</g>
								</g>
								<g>
									<g>
										<g>
											<path class="st9" d="M138.6,249c-2.3,0.1-4.2,2.4-4,5c0.2,2.5,2.1,4.3,4.3,4l1.2-0.2l-0.2-8.9L138.6,249z"/>
											<path class="st8" d="M136,253.9c-0.1-2.6,1.7-4.8,3.9-4.9c2.2-0.1,3.9,1.8,3.9,4.2c0,2.3-1.6,4.4-3.6,4.6
												C138,258.1,136.1,256.3,136,253.9z"/>
										</g>
										<g>
											<path class="st26" d="M140.9,256.6c-0.2,0.1-0.5,0.2-0.8,0.2c-1.6,0.2-3-1.1-3.1-3c-0.1-1.9,1.2-3.6,2.9-3.7
												c0.3,0,0.5,0,0.8,0.1"/>
											<path class="st26" d="M142.9,253c0,0.1,0,0.2,0,0.3c0,1.1-0.5,2.1-1.2,2.8"/>
											<path class="st26" d="M142,251c0.3,0.3,0.6,0.8,0.7,1.2"/>
										</g>
									</g>
									<g>
										<g>
											<path class="st9" d="M123.2,284.2c-2.3-1.6-6.1-0.5-8,2.2c-1.7,2.4-1.3,5.2,0.8,6.4l1.2,0.7l7.4-8.4L123.2,284.2z"/>
											<path class="st8" d="M116.6,287.3c2-2.6,5.7-3.7,8-2.1c2.2,1.5,1.9,4.7-0.4,6.9c-2,2-5.1,2.6-7,1.5
												C115.1,292.3,114.8,289.6,116.6,287.3z"/>
										</g>
										<g>
											<path class="st26" d="M118.7,293c-0.3-0.1-0.6-0.2-0.8-0.3c-1.5-0.9-1.7-3-0.4-4.7c1.5-1.9,4.2-2.7,5.9-1.5
												c0.3,0.2,0.5,0.4,0.7,0.6"/>
											<path class="st26" d="M123.5,291.2c-0.1,0.1-0.2,0.2-0.2,0.3c-1,1-2.3,1.5-3.4,1.6"/>
											<path class="st26" d="M124.6,288.7c0,0.6-0.2,1.1-0.5,1.7"/>
										</g>
									</g>
									<g>
										<g>
											<path class="st9" d="M99.9,341.3c1.5,2.7,4.9,2.8,7.7,0.4c2.7-2.3,3.9-6.2,2.7-8.9l-0.7-1.6L99,339.6L99.9,341.3z"/>
											<path class="st8" d="M106.9,340.1c-2.8,2.4-6.4,2.3-7.9-0.5c-1.5-2.9-0.2-7.3,3-9.7c3-2.2,6.4-1.6,7.6,1.2
												C110.9,333.9,109.7,337.8,106.9,340.1z"/>
										</g>
										<g>
											<path class="st26" d="M107.9,331.2c0.2,0.3,0.4,0.6,0.6,0.9c0.9,2.1,0,5-2.1,6.8c-2.2,1.8-4.8,1.7-5.9-0.4
												c-0.2-0.3-0.3-0.7-0.4-1.1"/>
											<path class="st26" d="M102.3,331.6c0.1-0.1,0.2-0.2,0.4-0.3c1.4-1.1,3-1.3,4.1-0.8"/>
											<path class="st26" d="M100.3,334.8c0.2-0.8,0.6-1.5,1.2-2.2"/>
										</g>
									</g>
								</g>
							</g>
							<g>
								<path class="st15" d="M142.9,206.3c-3-3.3-6-6.7-8.6-10.4c-1.2-1.7-2.2-3.4-3.4-5.1c-1.1-1.5-2.4-2.8-4.1-3.5
									c-2.1-0.8-4.4-0.1-6.6-0.1c-2.1,0-4.1-0.8-6-1.5c-1.9-0.7-3.9-1.3-5.9-1.4c-2,0-3.9,0.4-5.7,1.2c-3.7,1.8-6.8,6.2-6.8,10.1
									c0,2,0,4,0.9,5.9c0.6,1.3,1.4,2.3,2.6,3c0,0,0,0,0.1,0.1c0.1,0.1,0.2,0.1,0.4,0.2c0,0,0,0,0,0c0.8,0.4,1.6,0.6,2.4,1
									c0.9,0.4,1.8,1,2.5,1.8c0.8,0.9,1.2,1.9,1.6,3c0.4,1,0.9,2,1.6,2.9c1.4,1.7,3.3,3.1,5.3,4.1c2.1,1,4.3,1.7,6.6,2
									c0.1,0,0.1,0,0.2,0c0,0,0,0,0,0c1.2,0.1,2.3-0.5,3.5-0.6c1.1-0.1,2.4-0.3,2.8-1.4c0.2-0.5,0.2-1,0-1.4
									c-0.3-0.5-0.7-0.7-1.2-0.9c-1-0.5-1.8-1.2-2.3-2.2c-0.9-1.5-1.2-3.3-1.7-5c0.1,0.1,0.2,0.3,0.3,0.4c1.3,1.6,2.6,3.2,4,4.7
									c1.3,1.5,2.9,2.4,4.9,2.5c1,0,2-0.2,3-0.5c0.8-0.2,1.6-0.5,1.9-1.3c0.3-0.8-0.2-1.7-0.9-2.1c-0.4-0.2-0.8-0.3-1.3-0.4
									c-0.4-0.2-0.9-0.4-1.3-0.6c-1.6-1.1-2.6-2.8-3.3-4.5c-0.8-1.9-1.6-3.8-2.5-5.7c-0.1-0.2-0.2-0.4-0.3-0.6
									c2.1,1.9,4.3,3.6,6.6,5.3c1.7,1.2,3.5,2.7,5.6,3.3c1.8,0.5,3.9,0.2,5.1-1.2C143.2,207,143.2,206.6,142.9,206.3z"/>
								<path class="st16" d="M119.3,193.6c-0.8,0.4-1.3,1.2-1.5,2.1c-0.1,0.5-0.2,1.1-0.5,1.6c-0.3,0.5-0.7,0.8-1.2,1.1
									c-0.9,0.5-2,0.8-3,1.3c-1.7,0.9-2.5,2.8-3.8,4.2c-0.8,0.9-1.9,1.2-3,1.6c-1,0.3-1.8,0.8-2.6,1.4c0.3,0.2,0.6,0.5,0.9,0.8
									c0.8,0.9,1.2,1.9,1.6,3c0,0.1,0.1,0.2,0.1,0.3c0,0,0.1,0.1,0.1,0.1c1.4,0.7,2.9,1,4.4,1.4c3,0.9,6.1,1.9,9.3,1.8
									c1.1,0,2.2-0.2,3.2-0.5c-0.2-0.3-0.4-0.5-0.6-0.8c-0.9-1.5-1.2-3.3-1.7-5c0.1,0.1,0.2,0.3,0.3,0.4c1.3,1.5,2.6,3.1,3.9,4.6
									c1-0.6,1.8-1.3,2.8-1.9c0.6-0.4,1.3-0.8,1.9-1.2c0.2-0.1,0.4-0.2,0.6-0.3c-0.9-1-1.6-2.2-2.2-3.5c-0.8-1.9-1.6-3.8-2.5-5.7
									c-0.1-0.2-0.2-0.4-0.3-0.6c0.1,0.1,0.1,0.1,0.2,0.2c-0.9-1.4-2.6-4.2-4.1-5.7C121.1,193.8,120.2,193.2,119.3,193.6z"/>
								<g>
									<path class="st19" d="M125.7,200.2c-1.1-1.7-2.2-3.4-3.6-4.8c-1.4-1.4-3.3-2.5-5.3-2.6"/>
									<path class="st19" d="M120.8,208c-0.7-1.6-1.3-3.2-2.3-4.6c-0.9-1.4-2.2-2.7-3.8-3.4"/>
									<path class="st19" d="M122.3,219.2c0.3-1.7-0.5-3.6-2-4.5c-0.6-0.4-1.3-0.6-1.9-1c-0.9-0.6-1.4-1.6-2-2.6
										c-1.8-3.2-4.3-6.1-7.6-7.7"/>
									<path class="st19" d="M132.9,211.3c-1-0.1-2-0.3-2.9-0.6"/>
									<path class="st19" d="M120.7,187.4c-2.6,0.3-5.3,0.3-7.9-0.1"/>
									<path class="st19" d="M97.4,203.1c1.7,1.8,4.5,2.2,6.4,3.8c1.4,1.2,2.2,2.9,3.1,4.5c0.9,1.6,1.9,3.3,3.5,4.1"/>
								</g>
							</g>
							<g>
								<g>
									<path class="st15" d="M233.3,185.8c-0.3-1.7-1.6-2.9-2.9-3.8c-1.5-1.1-3.1-2-4.7-2.9c-1.5-0.8-3.1-1.9-4.8-2.3
										c-1.7-0.4-3.6-0.3-5.4-0.2c-2,0.1-3.9,0.4-5.7,1.1c-0.9,0.3-1.7,0.7-2.5,1.2c-0.4,0.2-0.8,0.5-1.2,0.8
										c-0.1,0.1-3,2.5-4.3,3.4c-1.3,0.9-2.7,1.8-4.1,2.6c-1.3,0.8-2.7,1.7-4.1,2.4c-0.6,0.3-1.2,0.6-1.7,1.1
										c-0.3,0.3-1.8,1.8-2.2,2.3c-0.6,0.8-1.1,1.7-1.7,2.5c-1.2,1.8-2.2,3.7-3.2,5.7c-1,2-1.9,4-2.9,6c-0.2,0.3-0.3,0.7-0.4,1
										c-0.8,0.5-1.5,1.2-2.1,1.8c-0.7,0.8-1.4,1.7-1.8,2.7c-0.4,1-0.6,2-0.5,3c0,0.6,0.1,1.1,0.2,1.7c0.1,0.6,0,1.2,0.2,1.7
										c0.3,0.9,1.3,1.1,2.1,1.3c0.9,0.2,1.8,0.1,2.5-0.5c0.3,0.5,0.8,1,1.2,1.2c1.1,0.6,2.5,0.7,3.5,0.1c0.3-0.2,0.5-0.4,0.8-0.6
										c0.1,0.1,0.3,0.2,0.4,0.3c0,0,0,0,0,0c0.1,0,0.1,0.1,0.2,0.1c0.4,0.2,0.8,0.3,1.2,0.4c0.8,0.1,1.6,0.1,2.3-0.2
										c0.9-0.3,1.7-0.7,2.4-1.2c0.5,0.1,1.1,0,1.6-0.1c0.8-0.1,1.5-0.2,2.3-0.3c1.5-0.2,3.1-0.5,4.4-1.3c1.3-0.8,2.5-1.9,3.7-2.9
										c0.6-0.5,1.1-0.9,1.8-1.3c0,0,0.1,0,0.2-0.1c1.9-0.5,4,0.1,5.9-0.6c2.2-0.7,3.8-2.5,5.1-4.2c3-3.9,4.8-8.5,7.5-12.6
										c0.8-1.1,1.6-2.2,2.5-3.1c0.9-1,2-1.8,3-2.6c0,0,0,0,0,0C233.1,188.5,233.6,187.3,233.3,185.8z"/>
									<path class="st16" d="M210.5,212.1c-1.5-0.5-2.7-1.7-4.3-2.1c-1.5-0.3-3,0-4.5-0.3c-1.7-0.3-2.6-1.7-4-2.5
										c-1.3-0.8-4.2-2.7-4.8-1.5c-0.1,0.2-3.2,4.3-6.3,7.8c-2.4,2.7-4.2,5.2-4.6,5c0.3,0.5,0.8,1,1.2,1.2
										c1.1,0.6,2.5,0.7,3.5,0.1c0.3-0.2,0.5-0.4,0.8-0.6c0.1,0.1,0.3,0.2,0.4,0.3c0,0,0,0,0,0c0.1,0,0.1,0.1,0.2,0.1
										c0.4,0.2,0.8,0.3,1.2,0.4c0.8,0.1,1.6,0.1,2.3-0.2c0.9-0.3,1.7-0.7,2.4-1.2c0.5,0.1,1.1,0,1.6-0.1c0.8-0.1,1.5-0.2,2.3-0.3
										c1.5-0.2,3.1-0.5,4.4-1.3c1.3-0.8,2.5-1.9,3.7-2.9c0.6-0.5,1.1-0.9,1.8-1.3c0,0,0.1,0,0.2-0.1c1.5-0.4,3.1-0.1,4.7-0.3
										C211.9,212.4,211.2,212.3,210.5,212.1z"/>
								</g>
								<g>
									<path class="st19" d="M181.9,218.5c3.7-4.5,8.6-8.2,11.5-13.3c1.8-3.1,2.7-6.7,4.4-9.8"/>
									<path class="st19" d="M181.4,206.8c0.6-0.4,1.1-0.8,1.7-1.2"/>
									<path class="st19" d="M187.4,218.9c2.6-2.5,5.4-4.9,8.3-7.1c1.7-1.3,3.5-2.5,4.9-4.1c1.9-2.1,3.1-4.9,3.3-7.7"/>
									<path class="st19" d="M194.1,218.6c3.2-2.6,6.7-4.6,9.8-7.3c0.7-0.6,1.6-1.5,2-2.2c0.7-1.1,1.7-3.4,2.5-4.5"/>
									<path class="st19" d="M207.3,178.8c-1.6,1.2-3.3,2.3-4.9,3.5c-3.3,2.3-7,4.1-10.3,6.5c-2.1,1.5-3.4,3.8-4.8,6.2"/>
								</g>
							</g>
						</g>
					</g>
				</g>
			</g>
		</g>
	</g>
</g>
</svg>
