<?xml version="1.0" encoding="utf-8"?>
<!-- Generator: Adobe Illustrator 27.3.1, SVG Export Plug-In . SVG Version: 6.00 Build 0)  -->
<svg version="1.1" id="Camada_1" xmlns="http://www.w3.org/2000/svg" xmlns:xlink="http://www.w3.org/1999/xlink" x="0px" y="0px"
	 viewBox="0 0 500 500" style="enable-background:new 0 0 500 500;" xml:space="preserve">
<style type="text/css">
	.st0{fill:#E8CAF9;}
	.st1{opacity:0.7;fill:#E8CAF9;enable-background:new    ;}
	.st2{fill:none;stroke:#263238;stroke-linecap:round;stroke-linejoin:round;stroke-miterlimit:10;}
	.st3{fill:#FFFFFF;stroke:#263238;stroke-linecap:round;stroke-linejoin:round;stroke-miterlimit:10;}
	.st4{fill:#263238;stroke:#263238;stroke-linecap:round;stroke-linejoin:round;stroke-miterlimit:10;}
	.st5{fill:#6ADBFF;}
	.st6{opacity:0.2;clip-path:url(#SVGID_00000020372684104461006800000018079016296544842400_);}
	.st7{fill:#6ADBFF;stroke:#263238;stroke-linecap:round;stroke-linejoin:round;stroke-miterlimit:10;}
	.st8{opacity:0.2;enable-background:new    ;}
	.st9{fill:#FFFFFF;}
	.st10{opacity:0.2;clip-path:url(#SVGID_00000173865484978852771940000000096203911151728536_);enable-background:new    ;}
	.st11{opacity:0.2;clip-path:url(#SVGID_00000036218243746666917880000004498636499438145467_);enable-background:new    ;}
	.st12{opacity:0.2;clip-path:url(#SVGID_00000005975082501694754260000000787731090508025782_);enable-background:new    ;}
	.st13{opacity:0.2;clip-path:url(#SVGID_00000010271290056553684440000004969379256639767938_);enable-background:new    ;}
	.st14{opacity:0.2;clip-path:url(#SVGID_00000116232221952632339870000014176341296262683784_);enable-background:new    ;}
	.st15{fill:#737373;stroke:#263238;stroke-linecap:round;stroke-linejoin:round;stroke-miterlimit:10;}
	.st16{fill:none;stroke:#263238;stroke-width:0.5;stroke-linecap:round;stroke-linejoin:round;stroke-miterlimit:10;}
	.st17{opacity:0.2;clip-path:url(#SVGID_00000154400809810182391090000016189635119526345662_);enable-background:new    ;}
	.st18{opacity:0.2;clip-path:url(#SVGID_00000099628115069550368310000004360190492473214640_);enable-background:new    ;}
	.st19{opacity:0.2;clip-path:url(#SVGID_00000158717454089974001330000002552516738418282648_);}
	.st20{fill:#263238;}
	.st21{fill:none;stroke:#263238;stroke-width:3;stroke-linecap:round;stroke-linejoin:round;stroke-miterlimit:10;}
	.st22{fill:none;stroke:#4C4C4C;stroke-linecap:round;stroke-linejoin:round;stroke-miterlimit:10;}
	.st23{opacity:0.2;clip-path:url(#SVGID_00000163074051888398174080000007004460623931900810_);enable-background:new    ;}
	.st24{opacity:0.2;clip-path:url(#SVGID_00000075862179030796783870000003158644753185193901_);}
	.st25{stroke:#263238;stroke-linecap:round;stroke-linejoin:round;stroke-miterlimit:10;}
	.st26{fill:#707070;stroke:#263238;stroke-linecap:round;stroke-linejoin:round;stroke-miterlimit:10;}
	.st27{opacity:0.2;clip-path:url(#SVGID_00000095305299343924160160000013914786022892827530_);enable-background:new    ;}
	.st28{opacity:0.2;clip-path:url(#SVGID_00000094604754263954339860000013173950220081022375_);enable-background:new    ;}
	.st29{fill:#737373;}
	.st30{clip-path:url(#SVGID_00000179633623712515063290000004384066921888020393_);fill:#263238;}
	.st31{clip-path:url(#SVGID_00000112628320230479086890000006275359793892654212_);fill:#263238;}
	.st32{clip-path:url(#SVGID_00000021105996191306104300000003959742868030234541_);fill:#263238;}
	.st33{clip-path:url(#SVGID_00000032633910521066888660000005074479875635259277_);fill:#263238;}
	.st34{opacity:0.2;clip-path:url(#SVGID_00000047060395772680313720000001899008876457215912_);enable-background:new    ;}
	.st35{opacity:0.2;clip-path:url(#SVGID_00000053517359955069738050000002843195620699261875_);enable-background:new    ;}
</style>
<g id="Background_Simple">
	<g>
		<path class="st0" d="M79.4,391.4c0,0,46.7,59.2,126.6,61.6c79.8,2.4,151.3-47.4,210.2-86.2s78.2-103.7,48.8-157.2
			s-82.8-35.2-146.9-72.8c-64.1-37.6-75.5-57.4-149.8-54C94,86.1,32.4,165.5,35.1,254.5C37.9,343.5,79.4,391.4,79.4,391.4z"/>
		<path class="st1" d="M79.4,391.4c0,0,46.7,59.2,126.6,61.6c79.8,2.4,151.3-47.4,210.2-86.2s78.2-103.7,48.8-157.2
			s-82.8-35.2-146.9-72.8c-64.1-37.6-75.5-57.4-149.8-54C94,86.1,32.4,165.5,35.1,254.5C37.9,343.5,79.4,391.4,79.4,391.4z"/>
	</g>
</g>
<g id="Window">
	<path class="st2" d="M439.8,74H276.2c-1.2,0-2.3,0.8-2.3,1.9v241.7c0,1,1,1.9,2.3,1.9h163.6c1.2,0,2.3-0.9,2.3-1.9V75.9
		C442.1,74.9,441,74,439.8,74z M308,315.7h-29.5V272H308V315.7z M308,268.2h-29.5v-58.6H308V268.2z M308,205.8h-29.5v-64.9H308
		V205.8z M308,137.1h-29.5V77.8H308V137.1z M312.5,77.8H345v59.3h-32.5V77.8z M312.5,140.9H345v64.9h-32.5V140.9z M312.5,209.6H345
		v58.6h-32.5V209.6z M312.5,272H345v43.7h-32.5V272z M400.8,315.7H371V272h29.8V315.7z M400.8,268.2H371v-58.6h29.8V268.2z
		 M400.8,205.8H371v-64.9h29.8V205.8z M400.8,137.1H371V77.8h29.8V137.1z M437.5,315.7h-32.3V272h32.3V315.7z M437.5,268.2h-32.3
		v-58.6h32.3V268.2z M437.5,205.8h-32.3v-64.9h32.3V205.8z M437.5,137.1h-32.3V77.8h32.3V137.1z M357.8,74.3v244.5"/>
</g>
<g id="Pictures">
	<g>
		<g>
			<rect x="200.9" y="112.1" class="st2" width="43.1" height="57.7"/>
			<rect x="208.7" y="122.6" class="st2" width="27.5" height="36.7"/>
		</g>
		<g>
			<rect x="63.1" y="138.4" class="st2" width="35.3" height="47.2"/>
			<rect x="69.5" y="147" class="st2" width="22.5" height="30"/>
		</g>
	</g>
</g>
<g id="Character_2">
	<g>
		<g>
			<path class="st3" d="M310.8,402.6c0,0-11.6,2-16.5,4.1s-13.8,3.3-15.3,4.7c-1.5,1.5-2.6,2.2-2.6,2.2h44.3
				C320.8,413.7,317.8,403.7,310.8,402.6z"/>
			<path class="st4" d="M328.2,267.4c0,0-43.2,25.5-57.3,39.2c-14,13.7-19.6,22.5-16.3,28.1c3.3,5.5,42.1,70.9,42.1,70.9l14-3
				c0,0-22.9-62.4-21.1-66.9c1.8-4.4,61-27.7,61-27.7s-12.2,32.9-9.2,38.4c3,5.5,35.1,59.1,35.1,59.1l18.1,0.7
				c0,0-22.5-58.4-21.1-60.2c1.5-1.8,30.7-32.5,42.9-55.8s-1.1-39.9-1.1-39.9l-78.7,10.7L328.2,267.4z"/>
			<path class="st3" d="M376.6,405.6c0,0-16.6,4.4-18.1,5.9s-1.5,3-1.5,3h39.9c0,0,0.7-3.7-2.2-8.1L376.6,405.6z"/>
		</g>
		<g>
			<g>
				<g>
					<path id="XMLID_8_" class="st5" d="M242.1,234.1c0,0,20.7,15.9,34,21.8c13.3,5.9,49.1,7.4,51,7.4l-2.6,5.2l18.1,17l12.6-12.9
						l2.6,16.3c0,0,38.8-3.3,48.8-10.7s18.1-20.3,18.1-20.3s-9.7-38.2-28.1-61.3c-25.2-31.6-60.6-46.6-84.6-51.7
						s-49.5,1.1-65.4,11.5c-15.9,10.3-18.8,24.8-18.8,24.8s17.4,34,17.4,42.1C245,231.2,242.1,234.1,242.1,234.1z"/>
				</g>
				<g>
					<defs>
						<path id="SVGID_1_" d="M242.1,234.1c0,0,20.7,15.9,34,21.8c13.3,5.9,49.1,7.4,51,7.4l-2.6,5.2l18.1,17l12.6-12.9l2.6,16.3
							c0,0,38.8-3.3,48.8-10.7s18.1-20.3,18.1-20.3s-9.7-38.2-28.1-61.3c-25.2-31.6-60.6-46.6-84.6-51.7s-49.5,1.1-65.4,11.5
							c-15.9,10.3-18.8,24.8-18.8,24.8s17.4,34,17.4,42.1C245,231.2,242.1,234.1,242.1,234.1z"/>
					</defs>
					<use xlink:href="#SVGID_1_"  style="overflow:visible;fill:#6ADBFF;"/>
					<clipPath id="SVGID_00000031895378345117709920000009187717325920428674_">
						<use xlink:href="#SVGID_1_"  style="overflow:visible;"/>
					</clipPath>
					<g style="opacity:0.2;clip-path:url(#SVGID_00000031895378345117709920000009187717325920428674_);">
						<path class="st5" d="M305.6,174.7C305.1,174.4,305.2,174.5,305.6,174.7L305.6,174.7z"/>
						<path class="st5" d="M375.9,241.6c-5.9-1.2-5.5-6.3-7.9-9.8c-2.4-3.5-28.7-31.1-22.8-31.9c5.9-0.8,22-13.4,19.7-12.2
							s-24.8,9.1-24.8,9.1s-16.9-4.3-9.1-7.1c7.9-2.8,21.6-16.9,21.6-16.9s-19.3,11.4-22,12.2c-2.8,0.8-10.6-2.8-10.6-2.8l9.1-17.3
							c0,0-4.7,8.7-7.5,9.1s-2.8-8.3-3.9-11.4c-1.2-3.1-0.8,7.1-3.9,11.4c-2,2.7-6.7,1.3-8,0.8c0.4,0.2,1.2,0.6,2.5,1.2
							c7.9,3.9,49.2,42.1,45.3,47.2c-3.9,5.1-64.5,8.7-76,2.8c-11.4-5.9-12.2-10.2-16.9-14.2c-4.7-3.9,3.9,9.1,2.8,8.3
							c-1.2-0.8-16.9-7.9-16.9-7.9l-3,3.9c1,3,1.7,5.5,1.7,7.1c0,8.1-3,11.1-3,11.1s20.7,15.9,34,21.8c13.3,5.9,49.1,7.4,51,7.4
							l-2.6,5.2l18.1,17l12.6-12.9l2.6,16.3c0,0,0.2,0,0.6-0.1c4-6.7,10.1-18.3,12.8-23.1c3.5-6.3,2.8-13.4,2.8-13.4
							s1.2-2.8,8.3-3.9s21.6-6.3,21.6-6.3S381.8,242.8,375.9,241.6z"/>
					</g>
				</g>
				<g>
					<path id="XMLID_00000183214003984251538800000004263109619828698047_" class="st7" d="M242.1,234.1c0,0,20.7,15.9,34,21.8
						c13.3,5.9,49.1,7.4,51,7.4l-2.6,5.2l18.1,17l12.6-12.9l2.6,16.3c0,0,38.8-3.3,48.8-10.7s18.1-20.3,18.1-20.3
						s-9.7-38.2-28.1-61.3c-25.2-31.6-60.6-46.6-84.6-51.7s-49.5,1.1-65.4,11.5c-15.9,10.3-18.8,24.8-18.8,24.8s17.4,34,17.4,42.1
						C245,231.2,242.1,234.1,242.1,234.1z"/>
				</g>
			</g>
			<path class="st7" d="M240,176.1c0,0,16.7,5.9,20.4,25.3"/>
			<path class="st7" d="M248.1,185.3c0,0,9.7,14,10.2,24.2"/>
			<path class="st7" d="M317.5,155.7c0,0,3.2,18.3-4.8,32.8c0,0,14.5-12.4,17.2-30.7"/>
			<path class="st7" d="M307.3,198.7c0,0,35-6.5,50-32.3"/>
			<path class="st7" d="M370.5,185.4c1.8-1.4,3.5-2.9,5.2-4.4"/>
			<path class="st7" d="M314.3,208.4c0,0,25.6-4.1,47.2-16.9"/>
			<path class="st7" d="M402.5,243.3c1.3-0.5,2.5-1,3.8-1.6"/>
			<path class="st7" d="M357.3,244.4c0,0,18.7,6,39.1,0.8"/>
		</g>
		<path class="st7" d="M243.2,243.7c0,0,11.2,5,13.4,6.1c2.2,1.1-7.5-5.7-9-10.9s-5.9-8.5-7.4-4.8
			C238.7,237.8,243.2,243.7,243.2,243.7z"/>
		<path class="st7" d="M231.7,236c0,0,9.6,7.8,11.5,7.8s12.9-6.3,12.9-6.3s-14.4-2.6-18.5-3.3S231.7,236,231.7,236z"/>
		<g>
			<path class="st3" d="M121.8,189.3c0,0,1.9,0,6.2,1.9c4.4,1.9,19.6,11.5,21.7,11.8c2.2,0.3,21.4-6.2,26.7-4
				c5.3,2.2,5,17.1,1.9,22.1s-31.7,4.3-31.7,4.3s-0.9,3.7-7.8,5.9c-6.8,2.2-15.5-2.2-15.5-2.2s1.2,2.5-5.3,2.5s-14-3.4-16.2-5
				c-2.2-1.6-6.8-17.1-1.6-21.4C105.6,200.8,121.8,189.3,121.8,189.3z"/>
			<path class="st8" d="M124.7,205.7c0,0-0.4-6.3,1.8-6.3c2.2,0,9.2,6.6,9.6,10.7c0.4,4.1,1.8,3.3-1.1,6.3c-2.9,3-8.1,7.4-11.8,0.7
				C119.6,210.5,124.7,205.7,124.7,205.7z"/>
			<g>
				<g>
					<path id="XMLID_6_" class="st9" d="M91.9,215.4c0,0-3.1,5.6-1.9,9s13.4,9,16.2,9s5.3-5,5.3-6.5c0-1.6-15.8-12.4-16.8-13.7
						C93.8,212,91.9,215.4,91.9,215.4z"/>
				</g>
				<g>
					<defs>
						<path id="SVGID_00000019642405000596033460000011161211512163666841_" d="M91.9,215.4c0,0-3.1,5.6-1.9,9s13.4,9,16.2,9
							s5.3-5,5.3-6.5c0-1.6-15.8-12.4-16.8-13.7C93.8,212,91.9,215.4,91.9,215.4z"/>
					</defs>
					<clipPath id="SVGID_00000072964438578965168540000001282612412934010510_">
						<use xlink:href="#SVGID_00000019642405000596033460000011161211512163666841_"  style="overflow:visible;"/>
					</clipPath>
					
						<path style="opacity:0.2;clip-path:url(#SVGID_00000072964438578965168540000001282612412934010510_);enable-background:new    ;" d="
						M106.2,233.5c2.8,0,5.3-5,5.3-6.5c0-0.5-1.3-1.7-3.3-3.3c-2.8,3.6-4.4,6.9-5.2,9C104.4,233.1,105.6,233.5,106.2,233.5z"/>
				</g>
				<g>
					<path id="XMLID_00000074427893026240315860000002798585741320141716_" class="st2" d="M91.9,215.4c0,0-3.1,5.6-1.9,9
						s13.4,9,16.2,9s5.3-5,5.3-6.5c0-1.6-15.8-12.4-16.8-13.7C93.8,212,91.9,215.4,91.9,215.4z"/>
				</g>
			</g>
			<g>
				<g>
					<path id="XMLID_5_" class="st9" d="M96.6,205.5c0,0-6.5,5.9-6.2,9.3c0.3,3.4,8.7,10.3,13.7,14s9.3,0.3,9.9-2.2
						c0.6-2.5-3.1-5-5.3-8.7c-2.2-3.7-9.6-13-9.6-13S97.2,203.9,96.6,205.5z"/>
				</g>
				<g>
					<defs>
						<path id="SVGID_00000077294391019930190220000001636018626567671691_" d="M96.6,205.5c0,0-6.5,5.9-6.2,9.3
							c0.3,3.4,8.7,10.3,13.7,14s9.3,0.3,9.9-2.2c0.6-2.5-3.1-5-5.3-8.7c-2.2-3.7-9.6-13-9.6-13S97.2,203.9,96.6,205.5z"/>
					</defs>
					<clipPath id="SVGID_00000039114910994114802520000018374001559466596530_">
						<use xlink:href="#SVGID_00000077294391019930190220000001636018626567671691_"  style="overflow:visible;"/>
					</clipPath>
					
						<path style="opacity:0.2;clip-path:url(#SVGID_00000039114910994114802520000018374001559466596530_);enable-background:new    ;" d="
						M110.8,220.8c-2.9,3-4.8,6-6.1,8.4c4.7,3.1,8.8-0.2,9.4-2.6C114.4,224.8,112.6,223,110.8,220.8z"/>
				</g>
				<g>
					<path id="XMLID_00000052104104110742515800000008097169785972404632_" class="st2" d="M96.6,205.5c0,0-6.5,5.9-6.2,9.3
						c0.3,3.4,8.7,10.3,13.7,14s9.3,0.3,9.9-2.2c0.6-2.5-3.1-5-5.3-8.7c-2.2-3.7-9.6-13-9.6-13S97.2,203.9,96.6,205.5z"/>
				</g>
			</g>
			<g>
				<g>
					<path id="XMLID_4_" class="st9" d="M108.1,195.2c0,0-7.1,3.7-10.6,7.1c-3.4,3.4-0.9,6.2,1.9,10.9c2.8,4.7,8.4,13.7,12.1,13.7
						c3.7,0,10.3-3.4,10.3-7.8s-10.3-23.9-10.3-23.9L108.1,195.2L108.1,195.2z"/>
				</g>
				<g>
					<defs>
						<path id="SVGID_00000080886049615770578840000013746147903231900582_" d="M108.1,195.2c0,0-7.1,3.7-10.6,7.1
							c-3.4,3.4-0.9,6.2,1.9,10.9c2.8,4.7,8.4,13.7,12.1,13.7c3.7,0,10.3-3.4,10.3-7.8s-10.3-23.9-10.3-23.9L108.1,195.2
							L108.1,195.2z"/>
					</defs>
					<clipPath id="SVGID_00000108281088635135046920000001181644539967644079_">
						<use xlink:href="#SVGID_00000080886049615770578840000013746147903231900582_"  style="overflow:visible;"/>
					</clipPath>
					
						<path style="opacity:0.2;clip-path:url(#SVGID_00000108281088635135046920000001181644539967644079_);enable-background:new    ;" d="
						M107.5,224.6c1.4,1.4,2.8,2.3,4,2.3c3.7,0,10.3-3.4,10.3-7.8c0-1.1-0.7-3.3-1.7-5.8c-1,0.6-2.1,1.4-3.4,2.4
						C112.6,218.6,109.7,221.7,107.5,224.6z"/>
				</g>
				<g>
					<path id="XMLID_00000067210774560162086540000001294041681802198711_" class="st2" d="M108.1,195.2c0,0-7.1,3.7-10.6,7.1
						c-3.4,3.4-0.9,6.2,1.9,10.9c2.8,4.7,8.4,13.7,12.1,13.7c3.7,0,10.3-3.4,10.3-7.8s-10.3-23.9-10.3-23.9L108.1,195.2L108.1,195.2
						z"/>
				</g>
			</g>
			<g>
				<g>
					<path id="XMLID_3_" class="st9" d="M124.5,193.6c0-4.4-4.8-7.2-8.7-5.2c-4,1.9-8.8,4.7-9.3,7.2c-0.9,4.3,10.3,25.2,11.5,25.8
						c1.2,0.6,13.4-1.9,11.5-6.8C127.7,209.5,124.5,196.5,124.5,193.6C124.5,193.7,124.5,193.6,124.5,193.6z"/>
				</g>
				<g>
					<defs>
						<path id="SVGID_00000000190982455892138160000017722450382554240134_" d="M124.5,193.6c0-4.4-4.8-7.2-8.7-5.2
							c-4,1.9-8.8,4.7-9.3,7.2c-0.9,4.3,10.3,25.2,11.5,25.8c1.2,0.6,13.4-1.9,11.5-6.8C127.7,209.5,124.5,196.5,124.5,193.6
							C124.5,193.7,124.5,193.6,124.5,193.6z"/>
					</defs>
					<clipPath id="SVGID_00000002357484340352719460000000600569693024703407_">
						<use xlink:href="#SVGID_00000000190982455892138160000017722450382554240134_"  style="overflow:visible;"/>
					</clipPath>
					
						<path style="opacity:0.2;clip-path:url(#SVGID_00000002357484340352719460000000600569693024703407_);enable-background:new    ;" d="
						M124.5,193.7C124.5,193.7,124.5,193.6,124.5,193.7c0-2.4-1.3-4.2-3.1-5.2c-1.7,4.5,1.2,14.6,2.2,19.1c1.1,5.2,4.8-0.4-7,8.1
						c-0.5,0.4-1,0.8-1.5,1.2c1.4,2.6,2.6,4.3,2.9,4.5c1.2,0.6,13.4-1.9,11.5-6.8C127.7,209.5,124.5,196.5,124.5,193.7z"/>
				</g>
				<g>
					<path id="XMLID_00000134241242031179011590000014280309121542351266_" class="st2" d="M124.5,193.6c0-4.4-4.8-7.2-8.7-5.2
						c-4,1.9-8.8,4.7-9.3,7.2c-0.9,4.3,10.3,25.2,11.5,25.8c1.2,0.6,13.4-1.9,11.5-6.8C127.7,209.5,124.5,196.5,124.5,193.6
						C124.5,193.7,124.5,193.6,124.5,193.6z"/>
				</g>
			</g>
			<g>
				<g>
					<path id="XMLID_7_" class="st9" d="M139.5,212.3c0,0-9.3,1.6-12.7,4.7c-3.4,3.1-10.6,11.2-10.3,12.7c0.3,1.6,2.2,4.3,5.6,4.3
						c3.4,0,10.3-4.7,14.6-6.8s5-7.1,5.3-9.9"/>
				</g>
				<g>
					<defs>
						<path id="SVGID_00000000919426155752680610000002487750408069487781_" d="M139.5,212.3c0,0-9.3,1.6-12.7,4.7
							c-3.4,3.1-10.6,11.2-10.3,12.7c0.3,1.6,2.2,4.3,5.6,4.3c3.4,0,10.3-4.7,14.6-6.8s5-7.1,5.3-9.9"/>
					</defs>
					<clipPath id="SVGID_00000037692131489424819030000001194170707352722817_">
						<use xlink:href="#SVGID_00000000919426155752680610000002487750408069487781_"  style="overflow:visible;"/>
					</clipPath>
					
						<path style="opacity:0.2;clip-path:url(#SVGID_00000037692131489424819030000001194170707352722817_);enable-background:new    ;" d="
						M139.5,224.9c-0.9-0.1-2.1-0.3-3.3-0.7c-2.5-0.9-6.6-6.6-7.8-8.3c-0.6,0.4-1.2,0.8-1.7,1.2c-3.4,3.1-10.6,11.2-10.3,12.7
						c0.3,1.6,2.2,4.3,5.6,4.3c3.4,0,10.3-4.7,14.6-6.8C137.9,226.6,138.8,225.8,139.5,224.9z"/>
				</g>
				<g>
					<path id="XMLID_00000064338053803286782590000009470344063474521781_" class="st2" d="M139.5,212.3c0,0-9.3,1.6-12.7,4.7
						c-3.4,3.1-10.6,11.2-10.3,12.7c0.3,1.6,2.2,4.3,5.6,4.3c3.4,0,10.3-4.7,14.6-6.8s5-7.1,5.3-9.9"/>
				</g>
			</g>
		</g>
		<g>
			<g>
				<polygon class="st3" points="170,227.8 175.2,233.8 188.9,216.8 183.7,213.8 				"/>
				<path class="st15" d="M193.7,219c0,0-7,6.3-5.9,10.7s4.1,7,4.1,7l8.5-14L193.7,219z"/>
				<polygon class="st3" points="190.7,245.2 185.9,237.8 200.3,222.7 201,231.2 				"/>
				<g>
					<path class="st16" d="M169.7,241.9c0,0.8-0.7,1.5-1.5,1.5c-0.8,0-1.5-0.7-1.5-1.5c0-0.8,0.7-1.5,1.5-1.5
						S169.7,241.1,169.7,241.9z"/>
					<line class="st2" x1="183.8" y1="250" x2="178.1" y2="264.7"/>
					<line class="st2" x1="175.9" y1="243.2" x2="169.6" y2="250"/>
					<line class="st2" x1="169.1" y1="237.5" x2="157.2" y2="242.6"/>
					<path class="st16" d="M175.6,251.8c0,0.4-0.3,0.7-0.7,0.7s-0.7-0.3-0.7-0.7s0.3-0.7,0.7-0.7S175.6,251.4,175.6,251.8z"/>
					<path class="st16" d="M180.4,238.7c0,0.5-0.4,0.9-0.9,0.9s-0.9-0.4-0.9-0.9s0.4-0.9,0.9-0.9C180,237.8,180.4,238.2,180.4,238.7
						z"/>
				</g>
			</g>
			<g>
				<g>
					<path id="XMLID_1_" class="st9" d="M141.6,192.7c0,0,5.5,18.1,7.8,20.7c2.2,2.6,4.8,4.8,5.9,5.9c1.1,1.1,1.5,10.3,2.6,11.1
						s3,0.7,7-1.5c1-0.6,5.2,3.7,5.2,3.7s7-10.3,11.1-12.6c4.1-2.2,18.1,5.5,17.4,8.1s-11.8,16.6-11.8,18.1s4.4,5.2,4.4,6.7
						s7.8,7.8,12.2,3.3c4.4-4.4,12.9-18.5,12.9-18.5l39.9-0.4l-14-16.6c0,0-2.6-13.3-8.9-23.3s-16.3-13.7-16.3-13.7
						s-0.4-17-4.1-27.7s-9.2-19.2-18.8-23.3s-27.3,1.1-42.5,8.5c-15.1,7.4-25.9,24.4-30.3,35.1s2.2,28.5,2.2,28.5l8.9-11.8v12.2
						L141.6,192.7z"/>
				</g>
				<g>
					<defs>
						<path id="SVGID_00000027596264968485502020000005941178856966925488_" d="M141.6,192.7c0,0,5.5,18.1,7.8,20.7
							c2.2,2.6,4.8,4.8,5.9,5.9c1.1,1.1,1.5,10.3,2.6,11.1s3,0.7,7-1.5c1-0.6,5.2,3.7,5.2,3.7s7-10.3,11.1-12.6
							c4.1-2.2,18.1,5.5,17.4,8.1s-11.8,16.6-11.8,18.1s4.4,5.2,4.4,6.7s7.8,7.8,12.2,3.3c4.4-4.4,12.9-18.5,12.9-18.5l39.9-0.4
							l-14-16.6c0,0-2.6-13.3-8.9-23.3s-16.3-13.7-16.3-13.7s-0.4-17-4.1-27.7s-9.2-19.2-18.8-23.3s-27.3,1.1-42.5,8.5
							c-15.1,7.4-25.9,24.4-30.3,35.1s2.2,28.5,2.2,28.5l8.9-11.8v12.2L141.6,192.7z"/>
					</defs>
					<clipPath id="SVGID_00000011752154959107931080000009833513176038185905_">
						<use xlink:href="#SVGID_00000027596264968485502020000005941178856966925488_"  style="overflow:visible;"/>
					</clipPath>
					
						<path style="opacity:0.2;clip-path:url(#SVGID_00000011752154959107931080000009833513176038185905_);enable-background:new    ;" d="
						M242.1,220.8c0,0-0.5-2.7-1.7-6.7l-28.2-17l2.6,8.1c0,0,2.7,7,2.7,12.9s-12.9,33.4-12.9,33.4l11.7-13.6l39.9-0.4L242.1,220.8z"
						/>
				</g>
				<g>
					<defs>
						<path id="SVGID_00000168074636531644698970000009174897280873426870_" d="M141.6,192.7c0,0,5.5,18.1,7.8,20.7
							c2.2,2.6,4.8,4.8,5.9,5.9c1.1,1.1,1.5,10.3,2.6,11.1s3,0.7,7-1.5c1-0.6,5.2,3.7,5.2,3.7s7-10.3,11.1-12.6
							c4.1-2.2,18.1,5.5,17.4,8.1s-11.8,16.6-11.8,18.1s4.4,5.2,4.4,6.7s7.8,7.8,12.2,3.3c4.4-4.4,12.9-18.5,12.9-18.5l39.9-0.4
							l-14-16.6c0,0-2.6-13.3-8.9-23.3s-16.3-13.7-16.3-13.7s-0.4-17-4.1-27.7s-9.2-19.2-18.8-23.3s-27.3,1.1-42.5,8.5
							c-15.1,7.4-25.9,24.4-30.3,35.1s2.2,28.5,2.2,28.5l8.9-11.8v12.2L141.6,192.7z"/>
					</defs>
					<clipPath id="SVGID_00000064352932215587672460000000230620390096473264_">
						<use xlink:href="#SVGID_00000168074636531644698970000009174897280873426870_"  style="overflow:visible;"/>
					</clipPath>
					
						<path style="opacity:0.2;clip-path:url(#SVGID_00000064352932215587672460000000230620390096473264_);enable-background:new    ;" d="
						M161.1,213.1c0,0-6.2-3.8-3.8-8.8s9.1-5.3,9.1-5.3s1.5-0.3-0.6,5.9C163.8,211,161.1,213.1,161.1,213.1z"/>
				</g>
				<g>
					<defs>
						<path id="SVGID_00000059305633931265975910000008189378114653251471_" d="M141.6,192.7c0,0,5.5,18.1,7.8,20.7
							c2.2,2.6,4.8,4.8,5.9,5.9c1.1,1.1,1.5,10.3,2.6,11.1s3,0.7,7-1.5c1-0.6,5.2,3.7,5.2,3.7s7-10.3,11.1-12.6
							c4.1-2.2,18.1,5.5,17.4,8.1s-11.8,16.6-11.8,18.1s4.4,5.2,4.4,6.7s7.8,7.8,12.2,3.3c4.4-4.4,12.9-18.5,12.9-18.5l39.9-0.4
							l-14-16.6c0,0-2.6-13.3-8.9-23.3s-16.3-13.7-16.3-13.7s-0.4-17-4.1-27.7s-9.2-19.2-18.8-23.3s-27.3,1.1-42.5,8.5
							c-15.1,7.4-25.9,24.4-30.3,35.1s2.2,28.5,2.2,28.5l8.9-11.8v12.2L141.6,192.7z"/>
					</defs>
					<clipPath id="SVGID_00000049196100441535858570000004075476510466140072_">
						<use xlink:href="#SVGID_00000059305633931265975910000008189378114653251471_"  style="overflow:visible;"/>
					</clipPath>
					<g style="opacity:0.2;clip-path:url(#SVGID_00000049196100441535858570000004075476510466140072_);">
						<path d="M160.4,188.5l5.5-6.1c0,0,2,4.5,7.4,6.6c5.4,2.2,14,5.4,18.8,4.3s8.1-2.7,5.4-7.5s-2.2-5.4-4.8-9.1
							c-2.7-3.8-17.8-13.5-28.5-11.8c-10.8,1.6-17.8,5.4-21.5,8.1c-3.8,2.7-8.6,16.7-8.6,16.7l5,6.6l2.5-3.4c0,0,0.6,1.8,1.4,4.4
							l15.8-12.5L160.4,188.5z"/>
						<path d="M164.8,228.9c1-0.6,5.2,3.7,5.2,3.7s0,0,0.1-0.1c1.1-2.3,2.6-5,4-6.5c0.7-0.7,1.6-1.5,2.7-2.2c1.5-1.7,3-3.1,4.3-3.8
							c0.9-0.5,2.3-0.5,3.9-0.2c1.8-0.6,3.6-0.9,5.4-0.9c5.9,0,15,6.8,15,6.8s-7.1-6.8-15.3-9.7c-8.3-2.9-23.1,5.6-23.1,5.6l1.8,2.8
							c0,0-2.3-1.1-5.6,0.4s-5.4,5.5-5.4,5.5C158.9,231.2,160.8,231.2,164.8,228.9z"/>
					</g>
				</g>
				<g>
					<path id="XMLID_00000170248995178537485980000014749021867139984282_" class="st2" d="M141.6,192.7c0,0,5.5,18.1,7.8,20.7
						c2.2,2.6,4.8,4.8,5.9,5.9c1.1,1.1,1.5,10.3,2.6,11.1s3,0.7,7-1.5c1-0.6,5.2,3.7,5.2,3.7s7-10.3,11.1-12.6
						c4.1-2.2,18.1,5.5,17.4,8.1s-11.8,16.6-11.8,18.1s4.4,5.2,4.4,6.7s7.8,7.8,12.2,3.3c4.4-4.4,12.9-18.5,12.9-18.5l39.9-0.4
						l-14-16.6c0,0-2.6-13.3-8.9-23.3s-16.3-13.7-16.3-13.7s-0.4-17-4.1-27.7s-9.2-19.2-18.8-23.3s-27.3,1.1-42.5,8.5
						c-15.1,7.4-25.9,24.4-30.3,35.1s2.2,28.5,2.2,28.5l8.9-11.8v12.2L141.6,192.7z"/>
				</g>
			</g>
			<line class="st2" x1="163.3" y1="213.6" x2="166.7" y2="207.4"/>
			<path class="st20" d="M167,211.1c1.3,0.9,2,2.2,1.5,2.9c-0.5,0.7-1.9,0.6-3.2-0.3c-1.3-0.9-1.2-1.1-0.7-1.8
				C165.1,211.1,165.7,210.2,167,211.1z"/>
			<path class="st2" d="M165.6,227.1c0,0,1.8-0.5,3.1-2.6s-1.8-2.8-1.8-2.8s6.5-5.2,18.6-4.9"/>
			<path class="st21" d="M158.2,210.8c0,0-5.2-10.7,4.8-14"/>
			<g>
				<path class="st4" d="M157.1,182l7-7.8c0,0,0.4,5.5,1.8,8.1c1.5,2.6,3.7,5.9,3.7,5.9l3.3-5.2c0,0,3.3,4.1,7.4,5.2
					c4.1,1.1,12.6,0.4,14,0.4s-1.1-5.5-1.1-5.5s5.2,4.8,5.2,4.8c-1.6-1.5-0.9-8.1-0.3-9.9c1.5-4.7,4.7-4.9,9.2-4.1
					c10,1.8,4.8,23.2,4.8,23.2l2.6,3.4l9.6-5.9l-5.5-1.5l4.1-1.8l-5.9-7.4c0,0-0.4-17-4.1-27.7s-9.2-19.2-18.8-23.3
					c-9.6-4.1-27.3,1.1-42.5,8.5c-15.1,7.4-25.9,24.4-30.3,35.1s2.2,28.5,2.2,28.5l8.9-11.8v12.2l9.2-12.6l19.2-20.3L157.1,182z"/>
				<g>
					<path class="st22" d="M142.9,174.8c3.5-6.1,9-13.7,17.3-18.7"/>
					<path class="st22" d="M138.2,185.1c0,0,0.6-1.9,1.9-4.8"/>
					<path class="st22" d="M158.5,149.1c2.1-1.3,4.4-2.4,6.8-3.3"/>
					<path class="st22" d="M136.4,173.6c0,0,5.8-11.4,16-20.1"/>
					<line class="st22" x1="170.7" y1="153.8" x2="172.4" y2="150.9"/>
					<line class="st22" x1="161.6" y1="169.2" x2="167.7" y2="159"/>
					<path class="st22" d="M176.1,158.8c0,0-3,11.1-1.5,16.7"/>
					<path class="st22" d="M180.9,169.2c0,0-2.6,7.8,1.5,14.1"/>
					<path class="st22" d="M186.1,153.2c0,0,2.6,11.1,2.6,17.5"/>
					<path class="st22" d="M197.6,154.2c2.1,3.3,4,6.8,4.2,9"/>
					<path class="st22" d="M192.1,146.5c0,0,1.1,1.5,2.6,3.6"/>
				</g>
			</g>
		</g>
		<path class="st7" d="M216.9,183.9c0,0,14,10,17,18.5c3,8.5,3.7,22.2,3.7,22.2s24.8,5.5,23.6,1.8c-1.1-3.7-5.9-5.2-9.2-17.4
			s-10-22.5-15.5-29.2c-5.5-6.7-10.7-7-10.7-7S217.7,180.2,216.9,183.9z"/>
		<g>
			<g>
				<path class="st7" d="M266.8,201.6c0,7.8,0.7,18.8,9.2,25.5s35.5,16.6,35.5,16.6s27,15.5,40.3,12.9s24.8-18.5,21.1-32.1
					c-3.7-13.7-20.7-22.5-33.6-33.3c-12.9-10.7-36.6-24.8-47.7-25.1c-11.1-0.4-21.8,8.5-21.8,8.5"/>
				<path class="st7" d="M327.2,211.6c0,0,7.5-10.8,19.9-10.8"/>
				<path class="st7" d="M322.4,213.8c0,0,3.8-17.2,13.5-20.4"/>
			</g>
			<g>
				<g>
					<g>
						<g>
							<path id="XMLID_2_" class="st9" d="M359.9,209c0,0-14-3.3-25.5-0.7s-37,35.1-45.4,42.1c-8.5,7-28.5,21.8-28.5,21.8
								s-12.2-6.7-18.1-11.1s-12.2-2.2-14,0.7c-1.8,3-3.3,8.9-3.3,8.9s-9.2,2.6-11.5,6.3s-1.1,9.2,0.7,10.7c1.8,1.5,4.1,3.3,4.1,3.3
								s-4.4,8.1-2.6,9.6c1.8,1.5,5.5,3.7,5.5,3.7s-2.2,5.2-0.4,7c1.8,1.8,5.5,3.7,5.5,3.7s0,4.4,3.3,5.2s17.4-3.3,22.2-3.7
								c4.8-0.4,21.4-12.2,23.6-13.7c2.2-1.5,34.4-12.6,51.7-19.6c17.4-7,38.4-21.8,44.7-40.6c6.3-18.8-4.4-29.6-7-30.7"/>
						</g>
						<g>
							<defs>
								<path id="SVGID_00000064345425392376096800000004339713859951321987_" d="M359.9,209c0,0-14-3.3-25.5-0.7
									s-37,35.1-45.4,42.1c-8.5,7-28.5,21.8-28.5,21.8s-12.2-6.7-18.1-11.1s-12.2-2.2-14,0.7c-1.8,3-3.3,8.9-3.3,8.9
									s-9.2,2.6-11.5,6.3s-1.1,9.2,0.7,10.7c1.8,1.5,4.1,3.3,4.1,3.3s-4.4,8.1-2.6,9.6c1.8,1.5,5.5,3.7,5.5,3.7s-2.2,5.2-0.4,7
									c1.8,1.8,5.5,3.7,5.5,3.7s0,4.4,3.3,5.2s17.4-3.3,22.2-3.7c4.8-0.4,21.4-12.2,23.6-13.7c2.2-1.5,34.4-12.6,51.7-19.6
									c17.4-7,38.4-21.8,44.7-40.6c6.3-18.8-4.4-29.6-7-30.7"/>
							</defs>
							<clipPath id="SVGID_00000099655065225831759220000008123633648355902354_">
								<use xlink:href="#SVGID_00000064345425392376096800000004339713859951321987_"  style="overflow:visible;"/>
							</clipPath>
							
								<path style="opacity:0.2;clip-path:url(#SVGID_00000099655065225831759220000008123633648355902354_);enable-background:new    ;" d="
								M358,263.7c-0.4-6.6-0.9-12.8-1.6-15.9c-1.8-8.1-18.4-24.7-24-26.2c-5.5-1.5-18.4,0.7-15.5,2.2c3,1.5,14.4,10.3,12.5,17
								s-5.5,13.3-5.5,13.3l14-10.7c0,0,4.4,5.2,5.9,9.2s0.4,17-6.6,21.4s-41.3,19.2-56.8,23.6c-15.5,4.4-23.6,11.8-32.8,14
								c-9.2,2.2-14,4.8-18.4,2.6s-3.3-4.1-3-8.5c0.4-4.4-2.2-3-3-5.9c-0.7-3,2.6-6.6,4.1-10s-4.4-4.1-5.9-9.6
								c-1.5-5.5,1.8-8.9,1.8-8.9l-0.1-0.1c-2.8,1-7.9,3-9.5,5.7c-2.2,3.7-1.1,9.2,0.7,10.7c1.8,1.5,4.1,3.3,4.1,3.3
								s-4.4,8.1-2.6,9.6c1.8,1.5,5.5,3.7,5.5,3.7s-2.2,5.2-0.4,7c1.8,1.8,5.5,3.7,5.5,3.7s0,4.4,3.3,5.2s17.4-3.3,22.2-3.7
								c4.8-0.4,21.4-12.2,23.6-13.7c2.2-1.5,34.4-12.6,51.7-19.6C337.6,279.2,349,272.4,358,263.7z"/>
						</g>
						<g>
							<path id="XMLID_00000090295571677708395920000012908658944450639253_" class="st2" d="M359.9,209c0,0-14-3.3-25.5-0.7
								s-37,35.1-45.4,42.1c-8.5,7-28.5,21.8-28.5,21.8s-12.2-6.7-18.1-11.1s-12.2-2.2-14,0.7c-1.8,3-3.3,8.9-3.3,8.9
								s-9.2,2.6-11.5,6.3s-1.1,9.2,0.7,10.7c1.8,1.5,4.1,3.3,4.1,3.3s-4.4,8.1-2.6,9.6c1.8,1.5,5.5,3.7,5.5,3.7s-2.2,5.2-0.4,7
								c1.8,1.8,5.5,3.7,5.5,3.7s0,4.4,3.3,5.2s17.4-3.3,22.2-3.7c4.8-0.4,21.4-12.2,23.6-13.7c2.2-1.5,34.4-12.6,51.7-19.6
								c17.4-7,38.4-21.8,44.7-40.6c6.3-18.8-4.4-29.6-7-30.7"/>
						</g>
					</g>
					<path class="st2" d="M225.1,270.7c0,0,7.2-4.4,12.4-5.5"/>
					<path class="st2" d="M339.6,240.8c0,0-6.5,9.6-23.7,17.7"/>
					<line class="st2" x1="312.7" y1="260" x2="305.1" y2="264.4"/>
				</g>
				<path class="st7" d="M359.9,209c0,0-14-3.3-25.5-0.7c-3.3,0.7-7.7,3.9-12.5,8.3c7.3,3.3,16.4,8.6,24,16.9
					c8.5,9.4,12.2,20.2,14.2,28.2c5.4-5.7,9.7-12.1,12.1-19c5.1-15.4-1.1-25.3-4.9-29.1"/>
				<path class="st7" d="M313.7,224.1c0,0,16.6,4.1,25.9,16.6s7.4,31.8,7.4,31.8s3.3,3,5.2,1.1c1.8-1.8,12.9-10,15.1-15.9
					c2.2-5.9,2.6-13.3-8.1-27.3c-10.7-14-26.2-22.5-30.7-22.9c-4.4-0.4-13.3,10-16.6,12.2C308.6,221.9,313.7,224.1,313.7,224.1z"/>
			</g>
		</g>
	</g>
</g>
<g id="Character_1">
	<g>
		<g>
			<path class="st4" d="M125.1,244.6c0,0-11.2-2.6-21.8,5.7c-10.6,8.3-9.5,22.1-5.7,29c3.7,6.9,2,11.2-5.2,20.4
				c-7.2,9.2-10.6,23.5,3.7,31.3s31.8-6,40.7-14.1c8.9-8,13.2-18.1,13.2-23.8s-8.3-25-7.7-28.1c0.6-3.2,8.3-4,8.6-8.9
				S140,235.7,125.1,244.6z"/>
			<path class="st22" d="M118.9,286.6c0,0-6.7,4.8-9.3,12.6s3,13,5.6,13"/>
			<path class="st22" d="M115.9,250.2c0,0-14.1,10-14.1,20.1c0,10,7.1,15.6,3.3,22.3c-3.7,6.7-16,10.4-14.1,21.6
				c1.9,11.1,12.7,11.6,15.6,11.5"/>
			<path class="st22" d="M120,251.6c0,0-5.9,4.5-4.5,10.8s4.5,8.2,3.3,11.9"/>
		</g>
		<g>
			<g>
				<g>
					<path id="XMLID_13_" class="st9" d="M121.5,353.1c0,0-3.7,19-5.2,25.3s-12.6,33.7-12.6,33.7s-0.9,1.2-2.3,1.3H87.7
						c0,0-2.3-1.3-1.6-2.6c0.8-1.3,2.1-6.5,3.9-6.5c1.8,0,10.7,1.3,12.3,0.3c1.6-1,1.2-22.5,2.2-26.4c1-3.9,2.3-11.5,2.6-12.5
						s-0.8-17.5-0.8-17.5L121.5,353.1z"/>
				</g>
				<g>
					<defs>
						<path id="SVGID_00000051384923658004360980000002867386082104567429_" d="M121.5,353.1c0,0-3.7,19-5.2,25.3
							s-12.6,33.7-12.6,33.7s-0.9,1.2-2.3,1.3H87.7c0,0-2.3-1.3-1.6-2.6c0.8-1.3,2.1-6.5,3.9-6.5c1.8,0,10.7,1.3,12.3,0.3
							c1.6-1,1.2-22.5,2.2-26.4c1-3.9,2.3-11.5,2.6-12.5s-0.8-17.5-0.8-17.5L121.5,353.1z"/>
					</defs>
					<clipPath id="SVGID_00000177470135837353549760000001154039690935068290_">
						<use xlink:href="#SVGID_00000051384923658004360980000002867386082104567429_"  style="overflow:visible;"/>
					</clipPath>
					<g style="opacity:0.2;clip-path:url(#SVGID_00000177470135837353549760000001154039690935068290_);">
						<path d="M107.2,365.7c-0.3,1-1.6,8.6-2.6,12.5c-0.8,3-0.8,16.8-1.4,23.1c1-4.5,2.8-12.8,3.9-20.6c1.5-11.3,3.7-23.1,3.7-23.1
							l9.7,1.4c0.7-3.5,1.2-6,1.2-6l-15.1-5C106.4,348.2,107.4,364.6,107.2,365.7z"/>
						<path d="M90.9,409.3c0,0,0.4-2.6-0.8-5c-1.8,0-3.1,5.2-3.9,6.5c-0.8,1.3,1.6,2.6,1.6,2.6h1.8C87.7,411,90.9,409.3,90.9,409.3z
							"/>
					</g>
				</g>
				<g>
					<path id="XMLID_00000052827028964509204790000016762056897726598583_" class="st2" d="M121.5,353.1c0,0-3.7,19-5.2,25.3
						s-12.6,33.7-12.6,33.7s-0.9,1.2-2.3,1.3H87.7c0,0-2.3-1.3-1.6-2.6c0.8-1.3,2.1-6.5,3.9-6.5c1.8,0,10.7,1.3,12.3,0.3
						c1.6-1,1.2-22.5,2.2-26.4c1-3.9,2.3-11.5,2.6-12.5s-0.8-17.5-0.8-17.5L121.5,353.1z"/>
				</g>
			</g>
			<path class="st2" d="M97.6,409c0,0-7.7,1.5-8.1,1.6c-1.1,0.2-1.9,2.5,2.2,2.7"/>
		</g>
		<g>
			<path class="st25" d="M200.2,414h40.3c0,0,4.4-0.9,3.8-5s-10.2-9.1-17.2-9.1c-7,0-14.6,3.8-16.4,3.8S199.9,408.1,200.2,414z"/>
			<path class="st26" d="M214.5,401.7c0,0,6.2,2.1,4.6,7.1c-1.6,5.1-9.9,5.5-14.8,5.1s-10.1-3.9-6.7-8.5
				C201.1,400.8,214.5,401.7,214.5,401.7z"/>
		</g>
		<g>
			<g>
				<path id="XMLID_10_" class="st9" d="M129.8,303.2c0,0-3.7,4.8-9.6,7.6s-9,9.6-10.7,14.7c-1.7,5.1-5.6,24.5-5.6,24.5l18.3,7.3
					l3.1-11.3l16.9,13.8c0,0-5.4,19.2-0.8,33c4.5,13.8,12.9,19.2,19.4,20.9c0,0,30.6,1,43.6-0.7c13-1.7,11.2-13.4,11.2-13.4
					s9.3,8.7,19.7,12.4c10.4,3.7,87.3,1.6,87.3,1.6s-0.7-6.1-4-8.3c-3.4-2.3-9-2.8-12.1-2c-3.1,0.8-12.1,3.4-12.1,3.4
					s-9.3-7.6-22-13.8s-26.2-4-26.2-4s-16.6-19.7-32.7-28.8s-18.6-8.7-18.6-8.7s-2.8-5.1-6.8-8.5c-3.9-3.4-7.3-5.6-7.3-5.6
					s-4.5-24-11.6-33.9l19.1-3.6c0,0-1.2-7.9-0.3-9.3c2.5-4,7.5-13.9-1.3-12.2s-14.1,5.9-19.7,6.8c-5.6,0.8-10.2,2.3-15.8,5.9
					c-5.6,3.7-4.8,7.1-11,9.3C133.8,302.6,129.8,303.2,129.8,303.2z"/>
			</g>
			<g>
				<defs>
					<path id="SVGID_00000023991682771469366720000010146333758376521383_" d="M129.8,303.2c0,0-3.7,4.8-9.6,7.6s-9,9.6-10.7,14.7
						c-1.7,5.1-5.6,24.5-5.6,24.5l18.3,7.3l3.1-11.3l16.9,13.8c0,0-5.4,19.2-0.8,33c4.5,13.8,12.9,19.2,19.4,20.9
						c0,0,30.6,1,43.6-0.7c13-1.7,11.2-13.4,11.2-13.4s9.3,8.7,19.7,12.4c10.4,3.7,87.3,1.6,87.3,1.6s-0.7-6.1-4-8.3
						c-3.4-2.3-9-2.8-12.1-2c-3.1,0.8-12.1,3.4-12.1,3.4s-9.3-7.6-22-13.8s-26.2-4-26.2-4s-16.6-19.7-32.7-28.8s-18.6-8.7-18.6-8.7
						s-2.8-5.1-6.8-8.5c-3.9-3.4-7.3-5.6-7.3-5.6s-4.5-24-11.6-33.9l19.1-3.6c0,0-1.2-7.9-0.3-9.3c2.5-4,7.5-13.9-1.3-12.2
						s-14.1,5.9-19.7,6.8c-5.6,0.8-10.2,2.3-15.8,5.9c-5.6,3.7-4.8,7.1-11,9.3C133.8,302.6,129.8,303.2,129.8,303.2z"/>
				</defs>
				<clipPath id="SVGID_00000183968575208689145370000004448655270854813860_">
					<use xlink:href="#SVGID_00000023991682771469366720000010146333758376521383_"  style="overflow:visible;"/>
				</clipPath>
				
					<path style="opacity:0.2;clip-path:url(#SVGID_00000183968575208689145370000004448655270854813860_);enable-background:new    ;" d="
					M214.5,401.7c-1.2,6.9-9.6,8.8-21.3,6.1c-11.7-2.7-24.3-6.3-24.3-6.3l-8.6,12.3c0.1,0,0.2,0.1,0.4,0.1c0,0,30.6,1,43.6-0.7
					c12.9-1.7,11.3-13.3,11.2-13.4C215.1,400.1,214.7,400.7,214.5,401.7z"/>
			</g>
			<g>
				<defs>
					<path id="SVGID_00000067229830419532977150000006779616430798696103_" d="M129.8,303.2c0,0-3.7,4.8-9.6,7.6s-9,9.6-10.7,14.7
						c-1.7,5.1-5.6,24.5-5.6,24.5l18.3,7.3l3.1-11.3l16.9,13.8c0,0-5.4,19.2-0.8,33c4.5,13.8,12.9,19.2,19.4,20.9
						c0,0,30.6,1,43.6-0.7c13-1.7,11.2-13.4,11.2-13.4s9.3,8.7,19.7,12.4c10.4,3.7,87.3,1.6,87.3,1.6s-0.7-6.1-4-8.3
						c-3.4-2.3-9-2.8-12.1-2c-3.1,0.8-12.1,3.4-12.1,3.4s-9.3-7.6-22-13.8s-26.2-4-26.2-4s-16.6-19.7-32.7-28.8s-18.6-8.7-18.6-8.7
						s-2.8-5.1-6.8-8.5c-3.9-3.4-7.3-5.6-7.3-5.6s-4.5-24-11.6-33.9l19.1-3.6c0,0-1.2-7.9-0.3-9.3c2.5-4,7.5-13.9-1.3-12.2
						s-14.1,5.9-19.7,6.8c-5.6,0.8-10.2,2.3-15.8,5.9c-5.6,3.7-4.8,7.1-11,9.3C133.8,302.6,129.8,303.2,129.8,303.2z"/>
				</defs>
				<clipPath id="SVGID_00000131364428755808250900000004860159884763392958_">
					<use xlink:href="#SVGID_00000067229830419532977150000006779616430798696103_"  style="overflow:visible;"/>
				</clipPath>
				
					<path style="opacity:0.2;clip-path:url(#SVGID_00000131364428755808250900000004860159884763392958_);enable-background:new    ;" d="
					M215.6,401c0-0.8-0.1-1.3-0.1-1.3s9.3,8.7,19.7,12.4c10.4,3.7,87.3,1.6,87.3,1.6s-0.2-1.9-1-3.9c-13.8-3.6-23.7-0.6-29.4-0.6
					c-5.9,0-40.5-4-50.4-7.2c-9.9-3.1-31.1-19.4-31.1-19.4c-1.6-2.1-15.8-3.1-15.8-3.1C206.4,385.9,213.3,396.8,215.6,401z"/>
			</g>
			<g>
				<path id="XMLID_00000057840008301367818510000015367711257899334535_" class="st2" d="M129.8,303.2c0,0-3.7,4.8-9.6,7.6
					s-9,9.6-10.7,14.7c-1.7,5.1-5.6,24.5-5.6,24.5l18.3,7.3l3.1-11.3l16.9,13.8c0,0-5.4,19.2-0.8,33c4.5,13.8,12.9,19.2,19.4,20.9
					c0,0,30.6,1,43.6-0.7c13-1.7,11.2-13.4,11.2-13.4s9.3,8.7,19.7,12.4c10.4,3.7,87.3,1.6,87.3,1.6s-0.7-6.1-4-8.3
					c-3.4-2.3-9-2.8-12.1-2c-3.1,0.8-12.1,3.4-12.1,3.4s-9.3-7.6-22-13.8s-26.2-4-26.2-4s-16.6-19.7-32.7-28.8s-18.6-8.7-18.6-8.7
					s-2.8-5.1-6.8-8.5c-3.9-3.4-7.3-5.6-7.3-5.6s-4.5-24-11.6-33.9l19.1-3.6c0,0-1.2-7.9-0.3-9.3c2.5-4,7.5-13.9-1.3-12.2
					s-14.1,5.9-19.7,6.8c-5.6,0.8-10.2,2.3-15.8,5.9c-5.6,3.7-4.8,7.1-11,9.3C133.8,302.6,129.8,303.2,129.8,303.2z"/>
			</g>
		</g>
		<g>
			<g>
				<path id="XMLID_9_" class="st29" d="M213.3,360.2c-16.1-9-18.6-8.7-18.6-8.7s-2.8-5.1-6.8-8.5c-3.9-3.4-7.3-5.6-7.3-5.6
					s-4.5-24-11.6-33.9l19.1-3.6c0,0-1.2-7.9-0.3-9.3c2.5-4,7.5-13.9-1.3-12.2s-14.1,5.9-19.7,6.8c-5.6,0.8-10.2,2.3-15.8,5.9
					c-5.6,3.7-4.8,7.1-11,9.3s-10.2,2.8-10.2,2.8s-3.7,4.8-9.6,7.6s-9,9.6-10.7,14.7c-1.7,5.1-5.6,24.5-5.6,24.5l18.3,7.3l3.1-11.3
					l16.9,13.8c0,0-5.4,19.2-0.8,33s12.9,19.2,19.4,20.9c0,0,0.7,0,1.8,0.1c1-3.9,5.2-16,20.6-24.2c18.6-9.9,21.9-5,29.2-5
					c6,0,12.7-5.4,22.7-7.5C228.9,371.3,221,364.5,213.3,360.2z"/>
			</g>
			<g>
				<defs>
					<path id="SVGID_00000045599033800668501420000016916565798290226056_" d="M213.3,360.2c-16.1-9-18.6-8.7-18.6-8.7
						s-2.8-5.1-6.8-8.5c-3.9-3.4-7.3-5.6-7.3-5.6s-4.5-24-11.6-33.9l19.1-3.6c0,0-1.2-7.9-0.3-9.3c2.5-4,7.5-13.9-1.3-12.2
						s-14.1,5.9-19.7,6.8c-5.6,0.8-10.2,2.3-15.8,5.9c-5.6,3.7-4.8,7.1-11,9.3s-10.2,2.8-10.2,2.8s-3.7,4.8-9.6,7.6
						s-9,9.6-10.7,14.7c-1.7,5.1-5.6,24.5-5.6,24.5l18.3,7.3l3.1-11.3l16.9,13.8c0,0-5.4,19.2-0.8,33s12.9,19.2,19.4,20.9
						c0,0,0.7,0,1.8,0.1c1-3.9,5.2-16,20.6-24.2c18.6-9.9,21.9-5,29.2-5c6,0,12.7-5.4,22.7-7.5C228.9,371.3,221,364.5,213.3,360.2z"
						/>
				</defs>
				<clipPath id="SVGID_00000010294607126054864410000002751779289189565611_">
					<use xlink:href="#SVGID_00000045599033800668501420000016916565798290226056_"  style="overflow:visible;"/>
				</clipPath>
				<path style="clip-path:url(#SVGID_00000010294607126054864410000002751779289189565611_);fill:#263238;" d="M120.2,310.8
					c-5.9,2.8-9,9.6-10.7,14.7c-1.7,5.1-5.6,24.5-5.6,24.5l18.3,7.3l3.1-11.3l16.9,13.8c0,0-5.4,19.2-0.8,33
					c4.5,13.8,12.9,19.2,19.4,20.9c0,0,0.7,0,1.8,0.1c0.6-2.2,2.2-7.1,6.4-12.4c-10.6-6.3-13-8.6-18-16.5
					c-5.6-8.8,1.4-19.5,1.4-24.2s-3.7-3.7-11.6-10.2c-7.9-6.5-14.9-20.4-14.9-20.4l-4.4,23l-14.2-6.7c0,0,0.5-7,2.3-15.8
					C111.5,321.8,120.2,310.8,120.2,310.8z"/>
			</g>
			<g>
				<defs>
					<path id="SVGID_00000078738748626555395910000007213973648418113950_" d="M213.3,360.2c-16.1-9-18.6-8.7-18.6-8.7
						s-2.8-5.1-6.8-8.5c-3.9-3.4-7.3-5.6-7.3-5.6s-4.5-24-11.6-33.9l19.1-3.6c0,0-1.2-7.9-0.3-9.3c2.5-4,7.5-13.9-1.3-12.2
						s-14.1,5.9-19.7,6.8c-5.6,0.8-10.2,2.3-15.8,5.9c-5.6,3.7-4.8,7.1-11,9.3s-10.2,2.8-10.2,2.8s-3.7,4.8-9.6,7.6
						s-9,9.6-10.7,14.7c-1.7,5.1-5.6,24.5-5.6,24.5l18.3,7.3l3.1-11.3l16.9,13.8c0,0-5.4,19.2-0.8,33s12.9,19.2,19.4,20.9
						c0,0,0.7,0,1.8,0.1c1-3.9,5.2-16,20.6-24.2c18.6-9.9,21.9-5,29.2-5c6,0,12.7-5.4,22.7-7.5C228.9,371.3,221,364.5,213.3,360.2z"
						/>
				</defs>
				<clipPath id="SVGID_00000010283899324196398200000000764693151097504907_">
					<use xlink:href="#SVGID_00000078738748626555395910000007213973648418113950_"  style="overflow:visible;"/>
				</clipPath>
				<path style="clip-path:url(#SVGID_00000010283899324196398200000000764693151097504907_);fill:#263238;" d="M173.3,328.8
					c0,0-15.3,14.9-16.3,17.6C156.1,349.2,172.3,342.7,173.3,328.8z"/>
			</g>
			<g>
				<defs>
					<path id="SVGID_00000040554491269464445320000014905322753684337843_" d="M213.3,360.2c-16.1-9-18.6-8.7-18.6-8.7
						s-2.8-5.1-6.8-8.5c-3.9-3.4-7.3-5.6-7.3-5.6s-4.5-24-11.6-33.9l19.1-3.6c0,0-1.2-7.9-0.3-9.3c2.5-4,7.5-13.9-1.3-12.2
						s-14.1,5.9-19.7,6.8c-5.6,0.8-10.2,2.3-15.8,5.9c-5.6,3.7-4.8,7.1-11,9.3s-10.2,2.8-10.2,2.8s-3.7,4.8-9.6,7.6
						s-9,9.6-10.7,14.7c-1.7,5.1-5.6,24.5-5.6,24.5l18.3,7.3l3.1-11.3l16.9,13.8c0,0-5.4,19.2-0.8,33s12.9,19.2,19.4,20.9
						c0,0,0.7,0,1.8,0.1c1-3.9,5.2-16,20.6-24.2c18.6-9.9,21.9-5,29.2-5c6,0,12.7-5.4,22.7-7.5C228.9,371.3,221,364.5,213.3,360.2z"
						/>
				</defs>
				<clipPath id="SVGID_00000106870228862661977530000007845272637718900382_">
					<use xlink:href="#SVGID_00000040554491269464445320000014905322753684337843_"  style="overflow:visible;"/>
				</clipPath>
				<polygon style="clip-path:url(#SVGID_00000106870228862661977530000007845272637718900382_);fill:#263238;" points="169,303.5 
					157.2,298.9 187.8,290.6 188.1,299.9 				"/>
			</g>
			<g>
				<defs>
					<path id="SVGID_00000072976351015041016570000013906635259989146550_" d="M213.3,360.2c-16.1-9-18.6-8.7-18.6-8.7
						s-2.8-5.1-6.8-8.5c-3.9-3.4-7.3-5.6-7.3-5.6s-4.5-24-11.6-33.9l19.1-3.6c0,0-1.2-7.9-0.3-9.3c2.5-4,7.5-13.9-1.3-12.2
						s-14.1,5.9-19.7,6.8c-5.6,0.8-10.2,2.3-15.8,5.9c-5.6,3.7-4.8,7.1-11,9.3s-10.2,2.8-10.2,2.8s-3.7,4.8-9.6,7.6
						s-9,9.6-10.7,14.7c-1.7,5.1-5.6,24.5-5.6,24.5l18.3,7.3l3.1-11.3l16.9,13.8c0,0-5.4,19.2-0.8,33s12.9,19.2,19.4,20.9
						c0,0,0.7,0,1.8,0.1c1-3.9,5.2-16,20.6-24.2c18.6-9.9,21.9-5,29.2-5c6,0,12.7-5.4,22.7-7.5C228.9,371.3,221,364.5,213.3,360.2z"
						/>
				</defs>
				<clipPath id="SVGID_00000036938028645246136390000017716490454761026702_">
					<use xlink:href="#SVGID_00000072976351015041016570000013906635259989146550_"  style="overflow:visible;"/>
				</clipPath>
				<path style="clip-path:url(#SVGID_00000036938028645246136390000017716490454761026702_);fill:#263238;" d="M165.4,374.3
					c0,0,10.2,0.9,17.2-4.2c7-5.1,7-4.6,7,0.5c0,5.1-1.9,8.8-1.9,8.8S177.4,376.1,165.4,374.3z"/>
			</g>
			<g>
				<path id="XMLID_00000023244715399176616680000017911093540695101626_" class="st2" d="M213.3,360.2c-16.1-9-18.6-8.7-18.6-8.7
					s-2.8-5.1-6.8-8.5c-3.9-3.4-7.3-5.6-7.3-5.6s-4.5-24-11.6-33.9l19.1-3.6c0,0-1.2-7.9-0.3-9.3c2.5-4,7.5-13.9-1.3-12.2
					s-14.1,5.9-19.7,6.8c-5.6,0.8-10.2,2.3-15.8,5.9c-5.6,3.7-4.8,7.1-11,9.3s-10.2,2.8-10.2,2.8s-3.7,4.8-9.6,7.6s-9,9.6-10.7,14.7
					c-1.7,5.1-5.6,24.5-5.6,24.5l18.3,7.3l3.1-11.3l16.9,13.8c0,0-5.4,19.2-0.8,33s12.9,19.2,19.4,20.9c0,0,0.7,0,1.8,0.1
					c1-3.9,5.2-16,20.6-24.2c18.6-9.9,21.9-5,29.2-5c6,0,12.7-5.4,22.7-7.5C228.9,371.3,221,364.5,213.3,360.2z"/>
			</g>
		</g>
		<g>
			<g>
				<path id="XMLID_11_" class="st9" d="M122.5,285.4c0,0,5.1,8.2,5.9,13.8c0.8,5.6-0.6,5.1-0.6,10.7c0,5.6,5.9,15,17.8,13.8
					c11.8-1.1,12.7-12.1,9-17.8s-7.3-7.6-9.3-11.3c-2-3.7-3.4-5.9-3.4-5.9L122.5,285.4z"/>
			</g>
			<g>
				<defs>
					<path id="SVGID_00000163790063316915025700000004645368420771114938_" d="M122.5,285.4c0,0,5.1,8.2,5.9,13.8
						c0.8,5.6-0.6,5.1-0.6,10.7c0,5.6,5.9,15,17.8,13.8c11.8-1.1,12.7-12.1,9-17.8s-7.3-7.6-9.3-11.3c-2-3.7-3.4-5.9-3.4-5.9
						L122.5,285.4z"/>
				</defs>
				<clipPath id="SVGID_00000053538278526162596490000009245902668338675349_">
					<use xlink:href="#SVGID_00000163790063316915025700000004645368420771114938_"  style="overflow:visible;"/>
				</clipPath>
				
					<path style="opacity:0.2;clip-path:url(#SVGID_00000053538278526162596490000009245902668338675349_);enable-background:new    ;" d="
					M142.7,290.1l-8.9-2.7l-11.3-2c0,0,5.1,8.2,5.9,13.8c0.1,0.9,0.2,1.7,0.2,2.4l15-9.9C143.3,291.1,143,290.5,142.7,290.1z"/>
			</g>
			<g>
				<path id="XMLID_00000162325692555446304910000013985361104986751165_" class="st2" d="M122.5,285.4c0,0,5.1,8.2,5.9,13.8
					c0.8,5.6-0.6,5.1-0.6,10.7c0,5.6,5.9,15,17.8,13.8c11.8-1.1,12.7-12.1,9-17.8s-7.3-7.6-9.3-11.3c-2-3.7-3.4-5.9-3.4-5.9
					L122.5,285.4z"/>
			</g>
		</g>
		<g>
			<path class="st3" d="M118.5,277c0,0-6-4.3-6.6-0.6c-0.6,3.7,3.7,5.2,3.7,5.2L118.5,277z"/>
			<g>
				<g>
					<g>
						<path id="XMLID_12_" class="st9" d="M125.1,255.5c0,0,2.6,11.2-0.3,18.6c-2.9,7.5-5.2,10.3-4.6,11.2c0.6,0.9,6.3,3.4,10,4.9
							c3.7,1.4,10.9,4.3,14.9,2.3c4-2,7.2-12.3,6.6-18.1s-6-12-7.7-16.6c-1.7-4.6-2.6-4.3-7.7-5.4
							C131.1,251.2,125.1,255.5,125.1,255.5z"/>
					</g>
					<g>
						<defs>
							<path id="SVGID_00000010990938418911128750000015045647839072607641_" d="M125.1,255.5c0,0,2.6,11.2-0.3,18.6
								c-2.9,7.5-5.2,10.3-4.6,11.2c0.6,0.9,6.3,3.4,10,4.9c3.7,1.4,10.9,4.3,14.9,2.3c4-2,7.2-12.3,6.6-18.1s-6-12-7.7-16.6
								c-1.7-4.6-2.6-4.3-7.7-5.4C131.1,251.2,125.1,255.5,125.1,255.5z"/>
						</defs>
						<clipPath id="SVGID_00000061431953503099641120000003339863322470260908_">
							<use xlink:href="#SVGID_00000010990938418911128750000015045647839072607641_"  style="overflow:visible;"/>
						</clipPath>
						
							<path style="opacity:0.2;clip-path:url(#SVGID_00000061431953503099641120000003339863322470260908_);enable-background:new    ;" d="
							M143.6,291.7c-5.4,0.5-14.4-7.7-14.4-16.7c0-4.8-1.7-9.4-3.3-12.6c0.3,3.7,0.1,8.1-1.2,11.7c-2.9,7.5-5.2,10.3-4.6,11.2
							c0.6,0.9,6.3,3.4,10,4.9c3.7,1.4,10.9,4.3,14.9,2.3c0.6-0.3,1.2-0.8,1.7-1.4C145.7,291.4,144.6,291.6,143.6,291.7z"/>
					</g>
					<g>
						<path id="XMLID_00000138559210256350803910000006398063601894680712_" class="st2" d="M125.1,255.5c0,0,2.6,11.2-0.3,18.6
							c-2.9,7.5-5.2,10.3-4.6,11.2c0.6,0.9,6.3,3.4,10,4.9c3.7,1.4,10.9,4.3,14.9,2.3c4-2,7.2-12.3,6.6-18.1s-6-12-7.7-16.6
							c-1.7-4.6-2.6-4.3-7.7-5.4C131.1,251.2,125.1,255.5,125.1,255.5z"/>
					</g>
				</g>
				<path class="st2" d="M138.8,262.7c0,0-0.6,3.7,1.1,4.6s2.9-0.6,3.4,2.6c0.6,3.2-4,4-4,4"/>
				<path class="st20" d="M133.9,267c0.3,1.2,0,2.3-0.6,2.5c-0.7,0.2-1.5-0.6-1.8-1.8c-0.3-1.2,0-2.3,0.6-2.5
					C132.8,265,133.6,265.8,133.9,267z"/>
				<path class="st20" d="M144.2,279.9c0.3,1.2,0,2.3-0.6,2.5c-0.7,0.2-1.5-0.6-1.8-1.8c-0.3-1.2,0-2.3,0.6-2.5
					C143.1,277.8,143.9,278.7,144.2,279.9z"/>
				<path class="st20" d="M143,263.3c0.3,1.2,0,2.3-0.6,2.5c-0.7,0.2-1.5-0.6-1.8-1.8c-0.3-1.2,0-2.3,0.6-2.5
					C141.8,261.3,142.6,262.1,143,263.3z"/>
				<path class="st2" d="M128.5,265.1c0,0,1.5-4.1,4.7-4.1"/>
				<path class="st2" d="M139,259.6c0,0,1.5-2,4.6,0.2"/>
			</g>
		</g>
		<g>
			<path class="st3" d="M132.2,306.2c0,0-4.4,1.8-7.6,1.8c-3.1,0-1,2.6,2.6,2.9s7.8-3.4,7.8-3.4S135.6,307.2,132.2,306.2z"/>
			<path class="st3" d="M140.3,302.8c0,0-8.8,2.1-11.4,2.9c-2.6,0.8-1.4,9.7-1.4,9.7s1.3,1.6,2.3,0.3c1-1.3,2.3-7.6,2.3-7.6
				s7,2.6,9.6,2.6s6.8-5.5,18.3-8.1c5.3-1.2,19-2.9,32.3-14.9c5.6-5.1,3.9-13-2.9-13.8c-6.8-0.8-13.8,3.1-18.3,6
				s-17.5,16.4-20.6,18.3s-2.9,2.1-5,2.6C143.7,301.2,140.3,302.8,140.3,302.8z"/>
			<path class="st3" d="M135.8,304.4c0,0-4.4,1-4.7,2.3s-2.6,11-1,11s3.1-1.3,3.4-3.1c0.3-1.8,1.6-7,1.6-7"/>
			<path class="st3" d="M139.2,304.4c0,0-4.4,1-4.7,2.3s-2.6,11-1,11s3.1-1.3,3.4-3.1s1.6-7,1.6-7"/>
			<path class="st3" d="M142.1,304.1c0,0-3.1,0.7-3.3,1.7s-1.8,7.8-0.7,7.8s2.2-0.9,2.4-2.2c0.2-1.3,1.1-5,1.1-5"/>
		</g>
		<path class="st2" d="M160.3,374.8c0,0,16.6-3,33.8,7"/>
		<path class="st2" d="M215.6,399.7c0,0-3.3-7.3-15.5-16.3"/>
		<path class="st15" d="M299.8,412.2c0.2,0.6,0.6,1.3,1.1,1.9c12.5-0.2,21.7-0.4,21.7-0.4s-0.7-6.1-4-8.3c-3.4-2.3-9-2.8-12.1-2
			c-3.1,0.8-12.1,3.4-12.1,3.4l7.5,0.5C301.8,407.3,298.5,408.3,299.8,412.2z"/>
	</g>
</g>
<g id="Floor">
	<line class="st2" x1="24.2" y1="414" x2="474.1" y2="414"/>
</g>
</svg>
