<?xml version="1.0" encoding="utf-8"?>
<!-- Generator: Adobe Illustrator 27.3.1, SVG Export Plug-In . SVG Version: 6.00 Build 0)  -->
<svg version="1.1" id="Camada_1" xmlns="http://www.w3.org/2000/svg" xmlns:xlink="http://www.w3.org/1999/xlink" x="0px" y="0px"
	 viewBox="0 0 500 500" style="enable-background:new 0 0 500 500;" xml:space="preserve">
<style type="text/css">
	.st0{fill:#D13F95;}
	.st1{fill:#2D0042;}
	.st2{fill:#39004D;}
	.st3{fill:#35004D;}
	.st4{fill:#45005C;}
	.st5{fill:url(#SVGID_1_);}
	.st6{fill:#420059;}
	.st7{fill:#F750AE;}
	.st8{fill:#F771C4;}
	.st9{fill:#F74F9E;}
	.st10{fill:#DE9A7C;}
	.st11{fill:#D67F66;}
	.st12{fill:#F95CB7;}
	.st13{fill:#F766CD;}
	.st14{fill:#FFA97A;}
	.st15{fill:#E2A78D;}
	.st16{fill:#000001;}
	.st17{fill:#572B6B;}
</style>
<g id="OBJECTS">
	<g>
		<g>
			<path class="st0" d="M247.8,63.1c-110.6,0-200.2,89.7-200.2,200.2s89.7,200.2,200.2,200.2s200.2-89.6,200.2-200.2
				S358.4,63.1,247.8,63.1z M247.8,418c-85.4,0-154.7-69.2-154.7-154.7c0-85.4,69.2-154.7,154.7-154.7
				c85.4,0,154.7,69.2,154.7,154.7C402.5,348.8,333.2,418,247.8,418z"/>
			<g>
				<g>
					<path class="st1" d="M227.7,146.8c-3.2,12.4-8.3,34.9-20.5,40.3c-0.5,0.2-1.1,0.4-1.7,0.6c-6.8,2.1-15.7-0.3-24.1-3.8
						c-6.7-2.8-13-6.3-17.8-8.8c-3.9-2.1-7.1-6.4-9.9-11.7c0-0.1-0.1-0.1-0.1-0.2c-1.4-2.7-2.8-5.6-4.1-8.7c0,0,0,0,0,0
						c-0.4-1-0.8-2-1.2-3c-2.8-6.9-5.4-13.9-8.2-19.2c-0.3-0.5-0.5-0.9-0.8-1.4c-0.2-0.3-0.3-0.5-0.4-0.8
						c-3.6-6.9-4.8-17.5-1.5-27.6c2.7-8.4,8.6-16.6,18.9-22l0,0c1-0.5,2.1-1.1,3.2-1.5c13.2-5.8,25.1-4.3,34.3,0.6
						c1.4,0.7,2.7,1.5,4,2.4c6.9,4.7,11.7,11.2,13.7,17.2C216.1,113.3,230.8,134.5,227.7,146.8z"/>
					<path class="st2" d="M205.5,187.7c-6.8,2.1-15.7-0.3-24.1-3.8c-6.7-2.8-13-6.3-17.8-8.8c-3.9-2.1-7.1-6.4-9.9-11.7
						c0-0.1-0.1-0.1-0.1-0.2c-1.4-2.8-2.8-5.6-4.1-8.7c0,0,0,0,0,0c-0.4-1-0.8-2-1.2-3c-2.6-6.5-4.9-13.1-8.2-19.2
						c-0.3-0.5-0.5-0.9-0.8-1.4c-0.2-0.3-0.3-0.5-0.4-0.8c-5-9.3-4.9-19-1.5-27.6c3.5-8.9,10.4-16.7,18.9-22c1-0.5,2.1-1.1,3.2-1.5
						c13.2-5.8,25.1-4.3,34.3,0.6c1.4,0.7,2.7,1.5,4,2.4c-2.1,1.6-3.9,3.3-5.5,5.4c-3.6,5-4.4,11.3-3.7,17.3
						c0.6,5.5,4.7,11.2,2.9,16c0,0.1-0.1,0.2-0.1,0.2c-2.5,5.9-6.9,6.1-3.7,13.3c3.2,7.1,10.5,11.3,12.6,18.9
						c-0.4,1.9-1.9,3.7-3.9,3.8c-4.5,0.4-9.2-13.8-11.6-16.9c-7.8-10.3-21.4-0.2-27.1,6.9c-1,1.3-2,2.9-1.4,4.5c0.3,0.9,1.1,1.5,2,2
						c3.1,1.8,6.9,2.1,10.4,1.6c4.2-0.7,11.7-5.3,15.9-2.3c1.7,1.2,0.8,3.8-0.1,5.7c-2.3,5-3.3,10.5-2.9,16c0.1,1.1,0.3,2.3,1,3.2
						c1.7,2,4.9,0.9,7.5,0.7c4.9-0.3,7.9,3,11.2,6.1C202.6,185.5,204.1,186.6,205.5,187.7z"/>
					<path class="st2" d="M147.9,144.4c-2.8-1.7-6.2-2.5-9.5-2.3c-0.2,0-0.5,0-0.7,0.2c-0.1,0.1-0.1,0.2-0.2,0.3
						c-0.7,1.7,0,3.7,1,5.3c1,1.6,2.4,2.9,3.4,4.6c1.7,2.9,1.9,6.6,4.1,9.2c2.6,3.1,7.8,3.8,11.3,1.6L147.9,144.4z"/>
					<path class="st3" d="M211.6,108.4c0.5-3.2,2-6.3,4.3-8.7c0.2-0.2,0.3-0.4,0.6-0.4c0.1,0,0.2,0,0.3,0c1.8,0.5,2.9,2.3,3.4,4.1
						c0.6,1.8,0.7,3.7,1.4,5.5c1.2,3.2,3.9,5.7,4.5,9c0.7,3.9-2.1,8.5-6,9.7L211.6,108.4z"/>
				</g>
				<g>
					<path class="st2" d="M201.5,235.2c0.1,5.5-1.6,10.9-3.3,16.2c-3,9.3-6.2,18.6-10.7,27.3c-5.5,10.8-13,20.4-20.4,29.9
						c-8.1,10.4-16.2,20.9-26.1,29.6c-9.9,8.7-21.8,15.6-34.8,17.6c-1,0.1-2.2,0.3-3.5,0.3c-5.2,0.2-12.2-0.8-14-5.3
						c-1.7-4.2,1.9-14.1,3-18.4c3.5-14.6,10-28.5,19.1-40.4c3.7-4.8,7.7-9.3,10.8-14.4c3.1-5.1,5.1-10.6,7.3-16.1
						c4.7-11.9,10.1-23.5,16-34.8c5.7-10.9,13.2-22.4,25.1-25.4c4.5-1.1,12.6-1.5,16.9,0.6c2.5,1.2,4.3,3.6,5.8,6.3
						c1.7,3.1,2.9,6.6,4,9.4C199.1,223.3,201.4,229.1,201.5,235.2z"/>
					<path class="st4" d="M192.9,208.2c-1.6,1.3-3.2,2.5-4.8,3.7c-15.9,12-31.5,25.8-39.9,43.9c-3.7,7.9-5.9,16.4-8.2,24.8
						c-1.2,4.3-2.5,8.9-5.6,12.1c-1.9,2-4.4,3.3-6.7,4.8c-13.3,8.5-21.6,24.2-21.2,40l1.5,11.8c-1,2.8-2.8,5-5,6.9
						c-5.2,0.2-12.2-0.8-14-5.3c-1.7-4.2,1.9-14.1,3-18.4c3.5-14.6,10-28.5,19.1-40.4c3.7-4.8,7.7-9.3,10.8-14.4
						c3.1-5.1,5.1-10.6,7.3-16.1c4.7-11.9,10.1-23.5,16-34.8c5.7-10.9,13.2-22.4,25.1-25.4c4.5-1.1,12.6-1.5,16.9,0.6
						C189.5,203.2,191.4,205.5,192.9,208.2z"/>
				</g>
				<g>
					<path class="st2" d="M409.5,353.3c-2.3,5.7-12.7,5.7-17.5,5c-0.6-0.1-1.3-0.2-1.9-0.3c-12.3-2.3-23.5-9-32.9-17.3
						c-9.9-8.7-18-19.2-26.1-29.6c-7.4-9.6-14.9-19.2-20.4-30c-4.5-8.7-7.7-18-10.7-27.4c-1.7-5.3-3.4-10.7-3.3-16.2
						c0.1-6.1,2.4-11.9,4.7-17.6c1.7-4.3,3.8-10.6,7.6-14.1h0c0.7-0.6,1.5-1.2,2.3-1.6c4.3-2.1,12.4-1.7,16.9-0.6
						c11.9,3,19.4,14.5,25.1,25.4c5.9,11.3,11.3,22.9,16,34.8c2.2,5.5,4.3,11.1,7.3,16.1c3.1,5.2,7.2,9.7,10.8,14.5
						c9.1,12,15.6,25.9,19.2,40.5C407.5,339.2,411.1,349.1,409.5,353.3z"/>
					<path class="st4" d="M409.5,353.3c-2.3,5.7-12.7,5.7-17.5,5c-0.6-0.1-1.3-0.2-1.9-0.3c-0.5-3.9-0.4-8-0.6-11.9
						c-0.7-12.2-5.2-24.2-12.9-33.8c-4.9-6.2-11.1-11.3-15.3-18c-3.3-5.3-5.3-11.3-7.4-17.2c-3.9-11.1-8.4-22-13.3-32.7
						c-7.1-15.4-16.4-31.4-31.7-38.6c0.7-0.6,1.5-1.2,2.3-1.6c4.3-2.1,12.4-1.7,16.9-0.6c11.9,3,19.4,14.5,25.1,25.4
						c5.9,11.3,11.3,22.9,16,34.8c2.2,5.5,4.3,11.1,7.3,16.1c3.1,5.2,7.2,9.7,10.8,14.5c9.1,12,15.6,25.9,19.2,40.5
						C407.5,339.2,411.1,349.1,409.5,353.3z"/>
				</g>
				
					<linearGradient id="SVGID_1_" gradientUnits="userSpaceOnUse" x1="253.5465" y1="360.9511" x2="203.6428" y2="358.1076" gradientTransform="matrix(1 0 0 -1 0 502)">
					<stop  offset="0" style="stop-color:#010002"/>
					<stop  offset="1" style="stop-color:#002054"/>
				</linearGradient>
				<path class="st5" d="M234,118.7c-2.5-3.2-7-3.9-11-3.9c-2,0-4.1,0.2-5.9,1.2c-2.3,1.2-3.8,3.6-4.9,6c-3.3,7.1-4.2,15.2-2.7,22.8
					c0.6,2.9,1.6,5.7,2.6,8.5c1.6,4.3,3.6,8.5,6.7,11.9c3.2,3.3,7.7,5.6,12.2,5c3.8-0.5,7.2-2.9,9.4-5.9s3.6-6.8,4.4-10.5
					c1.8-7.9,1.6-16.3-0.4-24.2L234,118.7z"/>
				<path class="st2" d="M274.5,37.7c-3.3,0.6-6.4,2.2-9,4.5c-0.5,0.4-0.9,0.8-1.2,1.3c-2.4,3-1.4,6.1-0.7,10.1
					c1.5,9.3,5.8,17.3,11.6,24.5C281.1,65,282.1,50.2,274.5,37.7z"/>
				<path class="st6" d="M307.1,84.8c-2.5-11.9-7.6-23.2-13.4-33.9c-2.1-3.9-4.4-7.9-7.9-10.6c-3.4-2.7-7.4-3.3-11.3-2.6
					c7.6,12.5,6.5,27.3,0.7,40.3c0.9,1.1,1.8,2.1,2.7,3.2c1.7,1.9,3.5,3.8,5.3,5.8c0.6,0.7,1.2,1.4,1.8,2.1
					c9.9,5.9,19.1,13.4,22.2,23.9C309.3,103.8,309.1,94.1,307.1,84.8z"/>
				<path class="st2" d="M285,89.1c4.4,5.3,8,11,8.7,17.7c0.6,6.5-1.8,12.9-5,18.6c-3.2,5.7-7.2,10.9-10.1,16.7
					c-6.1,12-7.8,28.7-5.9,41.9c1.1,7.5,3.3,14.8,4.9,22.2c0.5,2.4,4.7,19.4,2.1,20.7c10.6-5.7,19.2-15.2,23.8-26.3
					c1.5-3.6,2.6-7.4,2.5-11.3c0-3.3-0.8-6.5-1.8-9.6c-0.9-2.7-1.9-5.5-2.9-8.2c-3.6-9.6-7.4-19.3-5.6-29.3
					c1.4-7.6,6.1-14.2,9.1-21.4c1-2.5,1.8-5.1,2.4-7.7C304,102.6,294.9,95,285,89.1z"/>
				<path class="st7" d="M339.7,364.6c0,3.9,0,7.7,0,11.6c0,3.5,0,7-0.1,10.6c0,0.9,0,1.8,0,2.8c-0.1,5.8-0.2,11.5-0.3,17.3
					c-0.1,3.2-0.1,6.3-0.2,9.5c-0.2,8.6-0.5,17.2-0.9,25.9c-9.2,4.6-18.7,8.6-28.7,11.8c-5.1,1.7-10.3,3.1-15.6,4.4
					c-10.8,2.5-21.9,4.2-33.2,4.9c-1.8,0.1-3.6,0.2-5.4,0.3c-2.4,0.1-4.9,0.1-7.3,0.1c-13.2,0-26.1-1.3-38.6-3.7
					c-9.6-1.9-18.9-4.4-28-7.6c-4.5-1.6-8.9-3.3-13.3-5.2c-0.1-17,0-34,0.4-51c0-0.3,0-0.6,0-1c0-1.8,0.1-3.6,0.1-5.4
					c0.3-13.9,0.7-27.7,1.3-41.5c0.1-2.1,0.2-4.3,0.3-6.4v0c0.2-5.2,0.5-10.3,0.8-15.5c0.4-7.9,0.9-15.9,1.4-23.8
					c0.5-8.4,1.1-16.9,1.8-25.3c1.4-18.5,3.1-37.2,7.2-55.2c3.8-16.7,8.5-41.3,23.2-49.4c3.1-1.7,6.4-3.2,9.7-4.5l38.3,2.6l0.8,0
					l0.8,0l23-1.7l11.6-0.9c3.2,1.3,6.2,2.7,9.1,4.1c9.9,5,20,10.9,24.9,22.1c5.5,12.7,9,26.2,11.2,40c2.7,16.4,3.7,33.4,4.4,50.1
					c0.6,15.1,1.1,30.3,1.4,45.5c0.1,7.2,0.2,14.5,0.3,21.7C339.6,355.8,339.7,360.2,339.7,364.6z"/>
				<path class="st0" d="M260.6,463.2c-1.8,0.1-3.6,0.2-5.4,0.3c-2.4,0.1-4.9,0.1-7.3,0.1c-13.2,0-26.1-1.3-38.6-3.7
					c-9.8-15.7-23.2-36.7-27.5-39c-5.1-2.8-10.4-16.4-13.5-25.8c0-1.8,0.1-3.6,0.1-5.4c0.3-13.9,0.7-27.7,1.3-41.5l4.6,3.6l29.1,31
					l24.6,42.8L260.6,463.2z"/>
				<path class="st0" d="M339.7,364.6c0,3.9,0,7.7,0,11.6c0,3.5,0,7-0.1,10.6c0,0.9,0,1.8,0,2.8c-0.1,5.8-0.2,11.5-0.3,17.3
					c-0.1,3.2-0.1,6.3-0.2,9.5c-0.5,0.7-0.9,1.4-1.3,1.9c-4.9,7.6-19,14.8-21.7,15.6c-2.1,0.6-3.9,11.5-6.6,20.2
					c-5.1,1.7-10.3,3.1-15.6,4.4c-12.5,2.9-25.4,4.7-38.7,5.2l-21.7-27.7l8-13.5l23.9,5.6l18.2-13.2l7.8-18.1l17.5-31.2l-33.5-19.9
					c0,0-29.3,4.8-39.4,2.7c-10.1-2.1-48.7-21.1-50.8-19.5l-14.5-2.5c0.4-7.9,0.9-15.9,1.4-23.8l31.3-23.8l23.3-6.9l32,16.4l8.6,10
					l72.1,31.5c0.1,7.2,0.2,14.5,0.3,21.7C339.6,355.8,339.7,360.2,339.7,364.6z"/>
				<polygon class="st0" points="325.4,252.5 303.6,330.3 337.7,333.3 343.4,321.1 				"/>
				<path class="st0" d="M259.2,285.3c10.9-9.7,19.9-21.7,26.2-34.9c-6.1,4.1-12.3,8.2-18.4,12.3c7.7-7.8,12.5-18.4,13.1-29.4
					c-4.6,4.8-9.3,9.6-13.9,14.5c4.2-3,6.8-7.9,8.1-13c1.3-5,1.4-10.3,1.4-15.5c-5.8,6.7-12.1,12.9-18.9,18.6
					c5.8-5.9,8.4-14.6,7-22.8c-10.4,9.4-20.9,18.7-31.3,28.1c-0.9,0.8-1.9,1.6-3.1,1.7c-0.9,0-1.8-0.4-2.6-0.9
					c-7.2-4.2-13-10.6-16.4-18.2c-2.4,11.7-8.9,22-13.2,33.1c-5.9,15.1-8.2,32.4-19.4,44c21.5,1.7,41.5,12.1,62.9,14.7
					c4.2,0.5,8.6,0.7,12.6-0.4c7.1-2,12.5-7.6,17.4-13.1c0.7-0.8,1.4-1.6,1.5-2.6c0.1-1-0.7-2.2-1.7-2L259.2,285.3z"/>
				<path class="st8" d="M333.6,234.2l-8.2,4.9c-11.8-7.1-17.2-10.9-21.3-18.1c-10.1-17.4-12.3-37.2-20.6-43.7
					c-3.3-2.6-5.4-5.5-6.6-8.5l11.6-0.9c3.2,1.3,6.2,2.7,9.1,4.1c9.9,5,20,10.9,24.8,22.1C327.9,206.9,331.4,220.3,333.6,234.2z"/>
				<path class="st9" d="M290.2,192.7c-0.3,3.5-1.6,6.9-3.3,10c-2.6,4.9-5.9,9.4-9.8,13.2c2.7-6.4,4.7-13.1,6-19.9
					c0.1-0.8,0.3-1.6,0-2.3c-0.2-0.6-0.6-1-1-1.5c-0.6-0.6-1.1-1.2-1.7-1.8c2.2-3.1,3.9-6.2,5-9.2c0.6,0.5,1.2,1,1.7,1.6
					C289.5,185.4,290.4,189.2,290.2,192.7z"/>
				<path class="st10" d="M273,463.1c0,0.2-0.1,0.5-0.2,0.7c-0.1,0.2-0.1,0.3-0.3,0.5c-0.3,0.2-0.6,0.2-1,0.1
					c-3.9-0.6-7.6-1.7-11.2-3.4c1.5,1.2,3.1,2.7,2.9,4.6c-0.1,0.9-10.6-2.7-11.6-3c-3.6-1.2-7-2.6-9.9-5.1c0.6,2.3,2.9,3.7,4.9,5.1
					c2,1.4,4,3.4,3.7,5.8c0-0.1-6.8-3.1-7.5-3.4c-2.3-1.2-3.9-2.6-5.9-4.2c-1.9-1.6-3.9-3.1-5.8-4.7c-6.4-5.2-10.2-11.7-14.1-18.9
					c-1.5-2.8-3-5.6-3.5-8.7c-0.7-4.5-0.7-9.1-1.5-13.6c-0.1-0.8-1.9-11.1-2.5-11.1c0,0,8.9-0.2,15.5-0.3c4-0.1,7.2-0.1,7.2-0.1
					c3.2,2.5,7.1,3.9,10.5,6c5.5,3.5,8.4,8.4,11.9,13.7c1.9,2.8,4.1,5.6,7.1,7.2c0.7,0.4,1.5,0.8,2.1,1.4c0.6,0.6,0.9,1.5,0.5,2.3
					c-0.2,0.4-0.6,0.7-1,0.9c-0.3,0.1-0.6,0.3-0.8,0.3c-4.6,1.5-9.5-3.3-12.5-6.4c-0.8-0.8-1.8-1.8-3-1.6c-0.7,2.6,0.5,5.3,1.8,7.8
					c3.6,6.8,8.1,10.6,14.8,14.1c1.9,1,3.9,2.1,5.2,3.9c0.5,0.6,1.3,1.8,1.2,2.6c-0.2,1.2-1.1,1-1.6,2c0,0,0,0.1-0.1,0.1
					c0.1,0,0.3,0.1,0.4,0.1c0.9,0.3,1.8,0.8,2.5,1.4c0.3,0.2,0.5,0.5,0.7,0.8C272.8,460.6,273.2,461.9,273,463.1z"/>
				<path class="st11" d="M273,463.1c0,0.2-0.1,0.5-0.2,0.7c-0.1,0.2-0.1,0.3-0.3,0.5c-0.3,0.2-0.6,0.2-1,0.1
					c-3.9-0.6-7.6-1.7-11.2-3.4c1.5,1.2,3.1,2.7,2.9,4.6c-0.1,0.9-10.6-2.7-11.6-3c-3.6-1.2-7-2.6-9.9-5.1c0.6,2.3,2.9,3.7,4.9,5.1
					c2,1.4,4,3.4,3.7,5.8c0-0.1-6.8-3.1-7.5-3.4c-2.3-1.2-3.9-2.6-5.9-4.2c-1.9-1.6-3.9-3.1-5.8-4.7c-6.4-5.2-10.2-11.7-14.1-18.9
					c-1.5-2.8-3-5.6-3.5-8.7c-0.7-4.5-0.7-9.1-1.5-13.6c-0.1-0.8-1.9-11.1-2.5-11.1c0,0,8.9-0.2,15.5-0.3l3.1,1.7
					c-0.5,5.6-0.7,11.3-0.4,16.9c0.1,1.5,0.2,3,0.7,4.4c0.7,2,2.2,3.6,3.7,5.1C244.3,443.8,258.1,454.5,273,463.1z"/>
				<path class="st11" d="M271.4,458.9c-0.9-0.4-1.7-0.9-2.5-1.4C269.8,457.8,270.7,458.3,271.4,458.9z"/>
				<path class="st11" d="M250.2,428.5c3,3.1,7.9,7.8,12.5,6.4l-3.2-2.1c-4.4-4.2-8.7-8.4-13.1-12.6c-0.6-0.6-1.4-1.3-2.3-1.3
					c-0.7,0-1.3,0.5-1.7,1.1c1.4,2.3,3.1,4.6,4.9,6.9C248.4,426.8,249.4,427.7,250.2,428.5z"/>
				<path class="st12" d="M226.7,394.1c-1.4-1.5-2.8-3-4.2-4.6l-24.6,13.9c3.7,6.5,8.4,12.4,14,17.4c5-0.5,9.9-2.2,14.2-5
					C222.8,409.8,224.3,402.7,226.7,394.1z"/>
				<path class="st8" d="M235,407.5c0.5-0.7,1-1.5,0.9-2.3c0-0.9-0.7-1.7-1.3-2.4c-2.7-2.9-5.3-5.8-8-8.7
					c-2.4,8.6-3.9,15.7-0.5,21.8C229.6,413.7,232.6,410.8,235,407.5z"/>
				<path class="st13" d="M204.3,172.4c-0.5,0.3-0.9,0.6-1.4,0.9C203.3,172.9,203.8,172.6,204.3,172.4z"/>
				<path class="st8" d="M227.6,389.9c-1.1,5.5-4.2,10.4-8.2,14.3c-0.3,0.3-0.6,0.6-0.9,0.8c-4.4,4-10.3,6.8-16.2,6
					c-15.3-2-22-20.2-28.6-31.8c-5.6-10-11-20.2-17.5-29.7c-4.1-6-8.7-11.9-11.6-18.5c-2.2-5.1-2.6-10-2.2-15
					c0.3-4.5,1.2-9,1.8-13.8c1-7.8,2.1-15.5,3.3-23.3c2.6-16.6,5.9-33.2,9.8-49.6c3.9-16.5,10.4-29.8,24.3-40.3
					c7.7-5.8,12.4-9.6,21.2-15.7c-4.6,4.6-7.5,21.6-9.7,30.9c-0.4,2-0.9,3.6-1.3,4.6c-4.9,13.2-3,29.5-3.5,43.5
					c0,11.4-0.8,22.8-1.2,34.1c-0.1,4-0.5,7.9-0.8,11.8c-0.3,5-0.3,10,0.8,15.1c0.1,0.6,0.3,1.1,0.4,1.7c2.2,8,7.1,15.8,11.2,23
					c1.4,2.5,2.9,5,4.5,7.5c5.5,8.8,11.5,17.3,18,25.4C226.1,376.6,229.2,382.1,227.6,389.9z"/>
				<path class="st12" d="M218.5,405c-4.4,4-10.3,6.8-16.2,6c-15.3-2-22-20.2-28.6-31.8c-5.6-10-11-20.2-17.5-29.7
					c-4.1-6-8.7-11.9-11.6-18.5c-2.2-5.1-2.6-10-2.2-15c6.9-3.4,14.1-6.2,21.3-9c7.6-2.9,15.2-5.9,22.8-8.8c-0.3,5-0.3,10,0.8,15.1
					c0.1,0.6,0.3,1.1,0.4,1.7l-0.6,6.4c-5,7.7-9.9,15.3-14.9,23c-0.8,1.2-1.6,2.6-1.8,4c-0.2,1.9,0.8,3.7,1.8,5.3
					c9.2,15.2,19.1,30.1,29.5,44.6c1,1.3,1.9,2.7,3.3,3.6c3.4,2.4,8.2,1.4,12.1,2.7C217.7,404.7,218.1,404.8,218.5,405z"/>
				<path class="st12" d="M203.4,345.4c-10.2-6.1-19.8-13.5-28.2-21.9c-1.1-1.1-2.2-2.2-2.7-3.7c-0.5-1.5-0.4-3.1-0.3-4.7
					c2.2-27.6,5.9-55,9.6-82.4c1.3-9.8,2.8-20.1,8.6-28.1l2.9-0.4c-0.4,2-0.9,3.6-1.3,4.6c-4.9,13.2-3,29.5-3.5,43.5
					c0,11.4-0.8,22.8-1.2,34.1c-0.3,9.1-2,17.8,0,26.8c1.9,8.6,7.2,17,11.6,24.6C200.4,340.4,201.9,342.9,203.4,345.4z"/>
				<path class="st11" d="M278.7,156.4c-1.3-4.3-2-10.1-2-18.2h-23.8c0,0-12.8,0-25.8,0c0,2.1,0,4-0.1,5.8
					c-0.3,15.8-3.4,18.3-13.1,24c-0.8,8.7,2.2,17.3,6.3,24.8c4.2,7.6,10.3,10.6,18.5,12.8c3.5,0.9,7.1,2.6,10.7,2.1
					c1.1-0.1,2.2-0.3,3.3-0.5c5.4-18,14.7-35.2,26.5-49.5C279,157.2,278.9,156.8,278.7,156.4z"/>
				<path class="st10" d="M288.5,167.9c0,1.3-0.5,6.8-3.1,13.4c-1.2,2.9-2.8,6.1-5,9.2c-3.7,5.1-9.1,10-16.8,13.4
					c-3.2,1.4-6.8,2.5-10.8,3.2c3.4-11.2,8.3-22.2,14.3-32.3c3.6-6.1,7.7-11.9,12.1-17.2c0.6,1.7,1.3,3.1,2.1,4.3
					C283,164.8,285.5,166.6,288.5,167.9z"/>
				<path class="st11" d="M285.4,181.3c-1.2,2.9-2.8,6.1-5,9.2c-4.8-5-9.8-9.8-13.3-15.7c-0.2-0.3-0.4-0.7-0.6-1.1
					c-0.4-0.8-0.8-1.6-0.9-2.5c-0.1-1.2,0.2-2.4,0.7-3.5c2-5.2,4.6-10.2,7.8-14.8l6.8-7.8c0.5,5.5,0.6,11.1,0.5,16.7
					c-0.1,1.9-0.1,3.8-0.3,5.7c-0.3,3.9-0.6,8.2,1.8,11.2C283.5,179.8,284.4,180.5,285.4,181.3z"/>
				<g>
					<g>
						<path class="st14" d="M215.2,108.6c-9-7.1-12.3-1.5-11.8,5.3c0.5,6.8,5.4,23.1,14.4,17.9C217.5,120.7,215.2,108.6,215.2,108.6
							z"/>
						<path class="st10" d="M298.9,120.8c-0.5,4.1-4,12.8-10.5,13.2c-0.5,0.1-1.1,0-1.7-0.1c-0.7-0.1-1.4-0.3-2.2-0.6
							c0.1-2.1,0.3-4.2,0.6-6.2c0.1-1,0.3-1.9,0.4-2.8c0.7-4.2,1.6-7.3,1.6-7.3c2.1-1.2,3.9-1.9,5.4-2.1c0.7-0.1,1.3-0.2,1.9-0.2
							C297.9,114.8,299.2,117.6,298.9,120.8z"/>
						<path class="st11" d="M286.7,131.5c1.4,0.2,2.8-0.1,4-0.8c0.4-0.2,0.8-0.5,1-0.9c0.4-0.8,0-1.7,0.2-2.5
							c0.2-1.2,1.5-1.8,2.5-2.3s2.3-1.2,2.5-2.4c0.1-0.6-0.1-1.1-0.3-1.6c-0.4-0.9-0.8-1.8-1.5-2.6c-0.7-0.7-1.7-1.2-2.7-1.1
							c-1,0.1-1.9,0.8-2.5,1.7c-0.6,0.9-0.9,1.9-1.1,2.9L286.7,131.5z"/>
					</g>
					<path class="st10" d="M295.3,81.1c-1.2-10.1-3.5-21.1-10.2-29c-1.4-1.7-3-3-4.6-4.1c-0.4-0.2-0.7-0.5-1.1-0.7
						c-13.2-7.8-37.8-6.7-50.3,1.6c-5.6,3.7-10.1,10-13.2,19.2c-1.5,4.5-2.7,9.8-3.4,15.7c-0.6,4.8-0.9,10.1-0.9,15.8
						c0,0.6,0,1.2,0,1.8c0.1,6.7,0.9,13.2,2.3,19.7c0.7,3.3,1.6,6.5,2.7,9.8c2.8,8.4,7.3,13.9,13.7,19.1c0.6,0.5,1.2,1,1.8,1.4
						c0.6,0.5,1.2,0.9,1.8,1.4c7.5,5.4,14.7,8.8,24.2,7.2c4.9-0.8,9.7-3.4,14-6.6c3.4-2.5,6.6-5.5,9.3-8.3c0.4-0.4,0.8-0.9,1.2-1.3
						c4.2-4.5,6.7-10.1,8.4-15.9c0.2-0.5,0.3-1.1,0.5-1.7c0.8-2.8,1.5-5.6,2.1-8.4c0.1-0.3,0.1-0.6,0.2-1c0.1-0.4,0.2-0.8,0.2-1.2
						c0.1-0.6,0.2-1.2,0.3-1.8c0,0,0-0.1,0-0.1c0.1-0.8,0.3-1.6,0.4-2.4c0.1-0.7,0.2-1.5,0.3-2.2c0.1-0.9,0.2-1.9,0.3-2.8
						c0,0,0,0,0,0c0.2-2.2,0.4-4.4,0.5-6.7C296.3,93.4,296,87.3,295.3,81.1z"/>
					<path class="st11" d="M257.1,148.5c0.4-0.1,0.8-0.1,1.2,0s0.7,0.5,0.6,0.9c-0.1,0.4-0.5,0.5-0.8,0.7c-3,1.3-6.6,1.8-9.4-0.4
						c-0.3-0.2-0.5-0.5-0.4-0.8c0.1-0.3,0.5-0.3,0.8-0.2C251.8,148.9,254.4,149,257.1,148.5z"/>
					<path class="st11" d="M257.6,141.8c3.8-5.1-4-6.9-7.3-4c-0.5,0.4-1,1-1.1,1.6c-0.4,1.3,0.6,1.8,1.4,2.6
						c0.5,0.5,0.9,1.1,1.4,1.6s1.2,0.8,1.9,0.7c0.4-0.1,0.8-0.2,1.1-0.4C256,143.3,256.9,142.7,257.6,141.8z"/>
					<path class="st15" d="M258,137.3c-0.8-3.1-1.4-6.3-2.5-9.3c-0.2-0.5-0.4-1.1-0.9-1.3c-0.9-0.4-1.8,0.5-2,1.4
						c-0.9,3.1-1.9,6.2-2.8,9.3c-0.2,0.6-0.3,1.2,0,1.7c0.3,0.4,0.8,0.6,1.3,0.9c1,0.5,1.8,1.5,2.9,1.4c0.5,0,1-0.3,1.5-0.6
						c0.7-0.5,1.4-1,2.1-1.6c0.2-0.2,0.5-0.4,0.6-0.7C258.2,138.1,258.1,137.7,258,137.3z"/>
					<path class="st11" d="M263.6,117.4c-1.6,1.2-0.8,2.7,0.6,3.6c3.7,2.3,14.8,3.1,15-3.4c0-0.8-12.1-1.3-13.1-1.1
						C265.2,116.6,264.3,116.9,263.6,117.4z"/>
					<path class="st11" d="M274.9,73.7c-2-1-4.4-1.6-6.6-1.5l2.7,11v-0.8c0,1.7,0.2,3.4,0.5,5.1c2.5-3.8,4.6-7.8,6.2-12
						C276.8,74.8,275.9,74.2,274.9,73.7z"/>
					<path class="st11" d="M289.8,88.5c-2.4-3.6-5.4-6.7-8.5-9.7c-1.2-1.1-2.3-2.3-3.6-3.3c-1.6,4.2-3.7,8.3-6.2,12
						c1.3,7.2,5.3,13.9,11,18.5c2.9,2.3,3.9,6.7,4,10.3c0.1,2.4-0.7,5.2-1,7.6c-0.5,3.3-1.3,6.6-2.3,9.8
						c-2.4,7.1-6.1,13.8-10.9,19.5c3.4-2.5,6.6-5.5,9.3-8.3c0.4-0.4,0.8-0.9,1.2-1.3c4.2-4.5,6.7-10.1,8.4-15.9
						c0.5-3.3,1.8-6.7,2.6-10c0-0.1,0.1-0.3,0.1-0.4c0-0.2,0.1-0.4,0.1-0.6c0.1-0.4,0.2-0.8,0.2-1.2c0.1-0.6,0.2-1.2,0.3-1.8
						c0,0,0-0.1,0-0.1c0.1-0.8,0.3-1.6,0.4-2.4c0.1-0.7,0.2-1.5,0.3-2.2c0.1-0.9,0.2-1.9,0.3-2.8c0,0,0,0,0,0
						C295,99.9,293.2,93.7,289.8,88.5z"/>
					<path class="st11" d="M267.6,82.4l1.8-23.3c-8.5-5.2-19.2-6.1-29-3.8c-9.1,2.1-17.3,6.9-24.7,12.7c-1.5,4.5-2.7,9.8-3.4,15.7
						c-0.6,4.8-0.9,10.1-0.9,15.8c0,0.6,0,1.2,0,1.8c0.2,6.7,1.3,13.2,2.3,19.7c0.7,3.3,1.6,6.5,2.7,9.8c2.8,8.4,7.3,13.9,13.7,19.1
						c0.6,0.5,1.2,1,1.8,1.4c-0.7-0.5-0.5-5-0.6-6c-0.1-2.1-0.1-4.1,0.1-6.2c0.3-3.4,1.4-6.4,4.3-8.5c0.6-0.4,1.3-0.9,1.3-1.6
						c0-1-1.2-1.4-2.1-1.6c-1.4-0.4-2.7-1.1-3.8-1.9c-0.2-0.2-0.5-0.4-0.6-0.7c-0.1-0.4,0.1-0.9,0.5-1.1c2.1-1.5,5.9-1.2,8.3-1.3
						c2.7-0.1,5.8-0.7,7.3-2.9c0.7-1,1-2.3,0.3-3.3c-0.6-0.9-1.9-1.2-3-1.3c-2.7-0.3-5.5-0.3-8.3,0c0.1-1.9,1.1-3.6,2.4-5.1
						c4.8-5.6,12.5-8.8,18.9-12c3.4-1.7,5.1-4.7,7.6-7.6C266.8,87.9,268.6,85.1,267.6,82.4z"/>
				</g>
				<path class="st2" d="M275.2,39c-5.2-0.7-9.7,3.4-11.1,9.1c-1,4.3-2.1,8.7-2,13.1c0.3,8.7,5.2,15.5,8.9,23
					c0.1,0.2,0.3,0.5,0.4,0.7C280.1,70.9,283.3,53.5,275.2,39z"/>
				<g>
					<g>
						<path class="st16" d="M229.7,122.9c0.1,0.8,0.8,1.4,1.4,1.8c0.7,0.5,1.5,0.9,2.4,1.2c1.7,0.6,3.5,0.8,5.3,0.6
							c0.9-0.1,2-0.3,2.6-1c0.2-0.2,0.3-0.6,0.2-0.9c-0.2-0.4-0.7-0.4-1.1-0.4c-0.9,0-1.7,0.3-2.6,0.3c-0.8,0.1-1.7,0-2.5-0.1
							c-1-0.2-1.9-0.4-2.8-0.8c-0.8-0.3-1.7-1-2.6-1L229.7,122.9z"/>
						<path class="st16" d="M228.3,116.1c2.8,0.7,5.5,0.6,8.3,0c2.8-0.6,5.6-1.4,8.1-2.6c1.2-0.6,0.4-2.8-0.9-2.2
							c-2.5,1-5,2-7.6,2.6c-2.6,0.6-5.2,1.1-7.8,1.7C228,115.6,228,116,228.3,116.1z"/>
					</g>
					<g>
						<path class="st16" d="M276.5,122.9c-0.1,0.8-0.8,1.4-1.4,1.8c-0.7,0.5-1.5,0.9-2.4,1.2c-1.7,0.6-3.5,0.8-5.3,0.6
							c-0.9-0.1-2-0.3-2.6-1c-0.2-0.2-0.3-0.6-0.2-0.9c0.2-0.4,0.7-0.4,1.1-0.4c0.9,0,1.7,0.3,2.6,0.3c0.8,0.1,1.7,0,2.5-0.1
							c1-0.2,1.9-0.4,2.8-0.8c0.8-0.3,1.7-1,2.6-1L276.5,122.9z"/>
						<path class="st16" d="M279,116.1c-2.8,0.7-5.5,0.6-8.3,0c-2.8-0.6-5.6-1.4-8.1-2.6c-1.2-0.6-0.4-2.8,0.9-2.2
							c2.5,1,5,2,7.6,2.6c2.6,0.6,5.2,1.1,7.8,1.7C279.2,115.6,279.2,116,279,116.1z"/>
					</g>
				</g>
				<g>
					<path class="st4" d="M283,250.6c0.6,0.2,1.1,0.5,1.5,0.9c-1.5-1.2-12.7,12.1-14.3,13.6c-3.5,3.4-8,6.3-12.3,9.1
						c-2.6,1.7-5.3,3.3-7.7,5c-4.6,3.2-9.2,6.4-14.4,8.3c-4.6,1.7-9.7,2.9-14.5,3.4c-4.3,0.4-7.4,2.4-11.1,4.7
						c-8.3,5.1-16.1,11-23.3,17.5c-4.4,4-8.6,8.3-13.1,12.3c-3.9,3.5-8,6.7-12.2,9.8c-4.8,3.6-9.6,7.1-14.5,10.6
						c-3.4,2.4-6.9,4.8-10.6,6.7c-11.9,6.3-26,8.2-39.1,5.3c-0.4-0.1-0.8-0.2-1.2-0.3c-2.5-0.6-5.2-1.6-6.2-4
						c-0.5-1.1-0.5-2.5-0.3-3.7c0.6-3.7,2.5-7.1,4.3-10.3c5.4-9.4,11-18.9,19.1-26.1c21.4-19,53.1-17.2,74.4-36.3
						c4.1-3.7,4.6-8.8,5.8-14c1.9-8.7,6.7-16.2,13.2-22.1c4.4-4,9.6-7,14.2-10.9c4.5-3.8,6.9-9,13-10.8c-0.5,0.6-0.6,1.4-0.7,2.2
						c0,0.4,0,0.8,0,1.2c-0.3,5.5-3.4,10.8-6.7,14.9c-1.8,2.3-9.5,8.2-9.6,10.9c0,0.8,0.1,1.3,0.4,1.7c2.3,3.2,15.1-8.1,16.5-9.2
						c4-2.8,7.6-6.3,11.4-9.3c3.6-2.8,6.4-6.2,8.8-10.1c1.3-2.1,2.4-4.4,4.5-5.8c1.4-0.9,2.9-1.3,4.6-1.5c1-0.1,1.9-0.2,2.9-0.2
						c-0.4,0.1-3.1,6.8-3.5,7.6c-1.4,2.5-2.9,5-4.6,7.4c-2.6,3.7-5.4,7.3-8.2,10.9c-0.5,0.6-0.9,1.2-1.4,1.8c4.5-2.3,9.2-5,13-8.4
						c3.3-3,5.5-6.1,7.7-9.9c2-3.2,4.8-6.4,8.4-6.9c0.3,0,0.6-0.1,0.9-0.1c0.1,2.1-0.5,4.1-1.2,6c-1.9,5.3-4.5,10.3-7.8,14.9
						c-2.9,4-6.6,7.4-10.1,11c-0.5,0.5-0.9,1-1.4,1.5c2.2-2.2,5.3-3.2,7.7-4.9c3.3-2.2,5.2-6.5,7.7-9.6c2.6-3.3,6.1-6.3,10.2-6.5
						c0.2,0,0.4,0,0.7,0c-0.1,0-6.2,12.9-7.1,14.1c-2.6,3.9-5.5,8.8-9.1,11.7c-2.7,2.2-4.4,5.3-7.2,7.4c1.4-1,2.7-2.1,4.1-3.1
						c0,0,0,0,0,0c2.2-1.7,4.4-3.3,6.6-5c1.9-1.5,3.9-3,6.2-3.7C279.4,250.1,281.4,250,283,250.6z"/>
					<path class="st2" d="M284.6,251.5c-1.5-1.2-12.7,12.1-14.3,13.6c-3.5,3.4-8,6.3-12.3,9.1c-2.6,1.7-5.3,3.3-7.7,5
						c-4.6,3.2-9.2,6.4-14.4,8.3c-4.6,1.7-9.7,2.9-14.5,3.4c-4.3,0.4-7.4,2.4-11.1,4.7c-8.3,5.1-16.1,11-23.3,17.5
						c-4.4,4-8.6,8.3-13.1,12.3c-3.9,3.5-8,6.7-12.2,9.8c-4.8,3.6-9.6,7.1-14.5,10.6c-3.4,2.4-6.9,4.8-10.6,6.7
						c-11.9,6.3-26,8.2-39.1,5.3c18.4-7.1,35.6-16.7,52.2-27.3c21-13.4,41.1-27.6,59.1-44.9c0.3-0.3,0.7-0.6,1.1-0.8
						c0.4-0.1,0.8-0.1,1.1,0c3.8,0.3,7.5-0.3,11.2-0.4c4.3-0.1,8.6-0.4,12.7-1.6c3.3-1,6.3-2.6,9.3-4.2c6.7-3.7,13.1-7.9,19.3-12.5
						c5.8-4.3,11-9.5,16.9-13.7c0.8-0.6,1.6-1.2,2.5-1.7C283.6,250.8,284.1,251.1,284.6,251.5z"/>
					<path class="st2" d="M265.8,214.3c-0.4,0.1-3.1,6.8-3.5,7.6c-1.4,2.5-2.9,5-4.6,7.4c-2.6,3.7-5.4,7.3-8.2,10.9
						c-2.4,1.7-5,3-7.9,2.9c8.6-8.3,15.8-17.9,21.3-28.5C263.9,214.4,264.9,214.4,265.8,214.3z"/>
					<path class="st2" d="M278.1,216.7c0.1,2.1-0.5,4.1-1.2,6c-1.9,5.3-4.5,10.3-7.8,14.9c-2.9,4-6.6,7.4-10.1,11
						c-0.4,0.3-0.9,0.5-1.4,0.7c-1.7,0.7-3.7,0.6-5.1-0.5c6.5-4.7,12-10.8,16.1-17.8c2.8-4.8,5-10.1,8.5-14.3
						C277.5,216.7,277.8,216.7,278.1,216.7z"/>
					<path class="st2" d="M284,229.2c-0.1,0-6.2,12.9-7.1,14.1c-2.6,3.9-5.5,8.8-9.1,11.7c-2.7,2.2-4.4,5.3-7.2,7.4l0,0
						c-1.2,0.6-2.5,1-3.9,0.9c8.2-9.4,16.4-19,22.7-29.8c1-1.7,2.2-3.5,3.8-4.2C283.5,229.2,283.8,229.2,284,229.2z"/>
					<g>
						<path class="st2" d="M233.1,221.7c0,0.4,0,0.8,0,1.2c-0.3,5.5-3.4,10.8-6.7,14.9c-2.2,2.7-11.5,8.4-9.3,12.6
							c-2.1,0.5-6.5,0.3-4.4-3.1c0.5-0.8,1.2-1.3,1.9-1.9c4.2-3.4,8-7.3,11.3-11.6c1.6-2.1,3.1-4.3,4.3-6.6
							C231.3,225.2,231.5,223.3,233.1,221.7z"/>
					</g>
				</g>
				<g>
					<path class="st6" d="M275.5,62.3c0,2.1-0.1,4.1-0.3,6.1c-0.6,6.9-2.9,13.8-7.6,18.7c-3.3,3.4-7.6,5.8-12.2,6.8
						c-7.9,1.6-15.4-0.1-22.3,5.1c-5.4,4.2-7.8,11.1-8.8,17.8c-1.7,10.9-0.4,22.3,3.5,32.6c1.6,4.3,3.7,8.5,5.7,12.7
						c2,4.2,4.7,8,4.9,12.8c0.2,4.9-1.8,9.5-3.7,14c-1.6,3.8-3.3,7.7-4.9,11.5c-0.9,2.1-1.9,4.3-2.1,6.7c-0.3,2.8,0.4,5.7,1.2,8.4
						c3.7,11.8,10.3,22.3,17,32.7c0.3,0.4,0.6,0.9,0.8,1.3c-18,1.1-35.4-3.4-50.6-13c-1.2-0.8-2.4-1.5-3.5-2.4
						c-3.5-2.7-6.7-5.9-8.6-9.9c-2.7-5.5-2.8-11.8-1.4-17.8c0.7-2.9,1.8-5.8,3.1-8.5c5.4-11,14.4-19.1,19.8-29.9
						c1.3-2.5,2.6-5.1,3.2-7.9c0.9-3.8,0.5-7.9-0.3-11.7c-1.2-6.1-3.9-11.7-5.3-17.6c-1.3-5.5-1.8-11.7-2.3-17.4
						c-0.7-7.5,0.9-14.6,2.7-21.8c1.3-5.3,3.1-10.6,5.2-15.7c2.1-5,4.7-9.9,7.6-14.5c7.6-12.1,17.8-24,32.7-26.4
						c5.5-0.9,10.4,0,15.6,1.9c4.5,1.7,6.6,4.9,8.3,9.5C274.8,51.4,275.4,56.9,275.5,62.3z"/>
					<path class="st2" d="M275.5,62.3c0,2.1-0.1,4.1-0.3,6.1c-0.6,6.9-2.9,13.8-7.6,18.7c-3.3,3.4-7.6,5.8-12.2,6.8
						c-7.9,1.6-15.4-0.1-22.3,5.1c-5.4,4.2-7.8,11.1-8.8,17.8c-1.7,10.9-0.4,22.3,3.5,32.6c1.6,4.3,3.7,8.5,5.7,12.7
						c2,4.2,4.7,8,4.9,12.8c0.2,4.9-1.8,9.5-3.7,14c-1.6,3.8-3.3,7.7-4.9,11.5c-0.9,2.1-1.9,4.3-2.1,6.7c-0.3,2.8,0.4,5.7,1.2,8.4
						c3.7,11.8,10.3,22.3,17,32.7c-9.8-5.9-17.9-14.7-22.8-25.1c-0.5,2.1-1,4.1-1.6,6.2c-3.4-5.3-2.8-12.2-1.4-18.3
						c1.5-6.6,3.7-13.1,6.5-19.3c2.2-4.7,4.8-9.4,5.3-14.6c0.6-5.3-1.1-10.6-2.8-15.7c-4.5-13.9-8.9-27.9-9.7-42.5
						c-0.3-5.7-0.1-11.7,2.5-16.8c5-10.2,16.9-14.4,27.9-17.5c-3.6,0.9-7.4,0.9-10.9-0.1c7.6-1.9,15.3-3.9,22.1-7.7
						C267.2,73.6,272.6,68.6,275.5,62.3z"/>
					<path class="st2" d="M224.9,146.4c2.6,3.6,2.9,8.4,1.9,12.7s-3.1,8.2-5.3,12.1c-3.5,6.4-7,12.7-10.5,19.1
						c3.4-3.6,6.8-7.2,10.3-10.6c-1.2,3.3-2.6,6.6-4.2,9.8c3.8-4.1,7.4-8.4,10.5-13c-1.4,4.2-3.1,8.4-4.9,12.5
						c1.3-2.8,3.6-5,5.8-7.2c2.2-2.2,4.4-4.5,5.5-7.4c1.1-2.9,0.9-6.5-1.3-8.7L224.9,146.4z"/>
					<path class="st17" d="M252,51.5c2.4-1,4.9-1.9,7.3-2.8c3.5-1.2,7.4-2.3,10.9-1c-4.4-10-15.1-12.5-24.9-8.4
						c-6.2,2.6-11.4,7.2-16.3,11.9c-3.3,3.1-6.7,6.5-8,10.8c5-5.6,11.1-10.3,17.7-13.8c-2.8,3-5.3,6.4-7.4,9.9
						c4.4-3.3,9.1-6.2,13.9-8.7c-1.3,2-2.7,3.2-4.3,4.8c-0.8,0.8-2.2,4.2-2.9,4.5c4.5-2.4,9-5.2,13.7-7.2
						C251.9,51.6,251.9,51.6,252,51.5z"/>
					<path class="st17" d="M193.6,205.3c-0.5-6.3,3.3-10.6,6.4-15.8c-9.9,5.1-14.7,17.8-11.4,28.4c0.7-2.7,1.8-5.4,3.2-7.8
						c-0.4,3.8,0.9,7.8,3.5,10.7c-0.8-3.1-0.8-6.5,0-9.6c0.6,3.9,2.7,7.5,5.7,9.9c-0.9-2.5-1.4-5.2-1.4-7.8c1.6,3.3,4.1,6.2,7.1,8.2
						c-4.1-6.5-3.7-14.7-2.9-22.3c-2.1,2.5-3.4,5.6-3.7,8.9c-0.3-3.2-0.4-6.4-0.2-9.7c-2.3,2.6-3.7,5.9-4.1,9.3
						c-0.4-3.5,0-7.1,1.2-10.3C195.4,199.7,194.2,202.5,193.6,205.3z"/>
				</g>
				<g>
					<path class="st6" d="M287.9,174.2c2.9,5.3,9,9.6,8.8,16.2c-0.1,3.1-1.8,6-3.5,8.6c-3.8,5.6-8.3,10.8-13.4,15.3
						c2.1-4.9,3.7-10,5-15.2c0.6-2.6,1.2-5.4,0.6-8c-0.5-2.2-1.7-4.1-2.9-6c-3.6-5.6-7.1-11.3-10.7-16.9c-0.7-1.1-1.4-2.2-1.6-3.4
						c-0.3-1.6,0.1-3.2,0.6-4.7c2.5-7.6,7.4-14.1,11-21.1c2-3.9,3.6-7.9,4.9-12.1c1.3-4.2,2.1-8.5,2.6-12.9c0.1-1.5,0.3-3-0.1-4.5
						C287,99,276.3,93.7,271.5,84.9c6.5-10.6,9.9-23.2,7.7-35c-0.7-3.8-2-7.5-3.9-11c1.3,0.2,2.6,0.6,3.9,1.4
						c4.1,2.4,6.8,6.5,9.2,10.7c5.8,10.2,8.7,20.8,10.1,32.2c0.1,0.8,0.2,1.6,0.3,2.4c1.4,11.2,1.8,25.9-2.9,36.4
						c-0.1,0.3-0.2,0.5-0.3,0.7c-3.9,8.2-8,16.3-10.1,25.1C283.3,156.6,283.4,166.3,287.9,174.2z"/>
					<path class="st17" d="M293.2,186.7c-0.5,1.9-1.9,3.7-2.3,6.2c-0.3-2.5-0.6-4.9-1-7.4c-0.3,1.8-1.1,3.6-2.2,5.1
						c0.1-2.6,0.1-5.3-1-7.7c-1.2-2.5-3.5-4.3-5.3-6.4c-3.4-4-4.8-9.7-3.7-14.8c-0.6,2.9,3.3,8.8,4.8,11c-0.7-1.7-0.8-3.7-0.4-5.5
						c1,4,3.1,7.7,6,10.6c1.4,1.5,3,2.7,4.2,4.4C293.4,184,293.5,185.4,293.2,186.7z"/>
					<path class="st2" d="M295.8,112.2c-1.4-0.3-2.7-1-3.7-1.9c-0.3,5.9-2.6,11.4-5.5,16.6c1.3-4.2,2.1-8.5,2.6-12.9
						c0.1-1.5,0.3-3-0.1-4.5C287,99,276.3,93.7,271.5,84.9c6.5-10.6,9.9-23.2,7.7-35c2.5,6.9,2.8,14.5,0.7,21.5
						c-1.1,3.9-3,7.9-2.3,11.9c0.5,2.6,2,4.8,3.4,7C286,97.6,290.9,104.9,295.8,112.2z"/>
					<path class="st17" d="M299.6,75.4c-1.3-3.2-2.9-6.4-4.7-9.4c0.1,2.4,0.2,4.8,0.2,7.2c-1.8-3.9-3.9-7.6-6.3-11.2
						c0.3,3.6,0,7.2-0.8,10.7c-1.1-2.3-1.4-4.8-1.7-7.3c-1.1-7.7-3.3-15.3-6.3-22.6c5.7,1.5,9.9,6,12.7,11c2,3.5,3.6,7.2,5,11.1
						c0.7,1.9,1.6,4,1.8,6C299.6,72.5,299,74,299.6,75.4z"/>
				</g>
				<g>
					<path class="st10" d="M304.1,410.6c-0.4,0-1.6,6.2-2.2,9.3c-0.2,0.9-0.3,1.6-0.3,1.8c-0.7,4.5-0.8,9.1-1.5,13.6
						c-0.5,3.1-2,6-3.5,8.7c-3.9,7.2-7.7,13.7-14.1,18.9c-1.9,1.6-3.9,3.1-5.8,4.7c-2,1.6-3.6,3-5.9,4.2c-0.6,0.3-7.5,3.2-7.5,3.4
						c-0.4-2.4,1.7-4.4,3.7-5.8c2-1.4,4.3-2.8,4.9-5.1c-2.9,2.6-6.2,4-9.9,5.1c-1,0.3-11.5,4-11.5,3c-0.2-1.9,1.5-3.4,2.9-4.6
						c-3.5,1.6-7.2,2.8-11,3.4c0,0-0.1,0-0.1,0c-0.3,0.1-0.7,0.1-1-0.1c-0.1-0.1-0.2-0.3-0.3-0.5c-0.5-1.4-0.1-2.9,0.8-4.1
						c0.9-1.2,2.2-1.9,3.6-2.3c-0.5-1.1-1.5-0.9-1.7-2.1c-0.1-0.8,0.7-2,1.1-2.6c1.3-1.7,3.3-2.9,5.2-3.9
						c6.7-3.5,11.2-7.4,14.8-14.1c1.3-2.4,2.5-5.1,1.8-7.8c-1.2-0.2-2.2,0.8-3,1.6c-3.2,3.3-8.5,8.4-13.4,6c-0.4-0.2-0.8-0.5-1-0.9
						c-0.4-0.7-0.1-1.7,0.5-2.3c0.6-0.6,1.4-0.9,2.1-1.4c3-1.7,5.2-4.4,7.1-7.2c3.5-5.3,6.4-10.2,11.9-13.7c3.4-2.2,7.4-3.5,10.5-6
						L304.1,410.6z"/>
					<path class="st11" d="M301.9,419.9c-0.2,0.9-0.3,1.6-0.3,1.8c-0.7,4.5-0.8,9.1-1.5,13.6c-0.5,3.1-2,6-3.5,8.7
						c-3.9,7.2-7.7,13.7-14.1,18.9c-1.9,1.6-3.9,3.1-5.8,4.7c-2,1.6-3.6,3-5.9,4.2c-0.6,0.3-7.5,3.2-7.5,3.4
						c-0.4-2.4,1.7-4.4,3.7-5.8c2-1.4,4.3-2.8,4.9-5.1c-2.9,2.6-6.2,4-9.9,5.1c-1,0.3-11.5,4-11.5,3c-0.2-1.9,1.5-3.4,2.9-4.6
						c-3.5,1.6-7.2,2.8-11,3.4c4.1-3.4,8.3-6.9,12.4-10.3c4.4-3.7,8.9-7.4,12.2-12c3.7-5.2,5.8-11.3,8.6-17
						c2.9-5.7,6.8-11.3,12.7-13.7L301.9,419.9z"/>
					<path class="st8" d="M291.4,396.5c-4,4.4-8.1,8.9-12.1,13.3c-0.6,0.7-1.3,1.4-1.3,2.4c0,0.8,0.4,1.6,0.9,2.3
						c2.2,3,4.8,5.6,7.9,7.7c5.7-6.1,9.9-13.2,13.3-20.8L291.4,396.5z"/>
					<path class="st12" d="M300.1,401.4c-3.4,7.6-7.6,14.7-13.3,20.8c4.5,3.1,9.8,5.1,15.3,5.6c5.6-5,10.3-10.9,14-17.4L300.1,401.4
						z"/>
					<path class="st8" d="M309.7,179.4c0.5,0.2,0.9,0.5,1.4,0.9C310.6,180,310.1,179.7,309.7,179.4z"/>
					<path class="st8" d="M369.2,338c-2.2,5.1-5.4,9.7-8.6,14.3c-1,1.4-2,2.9-3,4.3c-6.5,9.5-11.9,19.7-17.5,29.7
						c-6.5,11.6-13.3,29.9-28.6,31.8c-2.7,0.3-5.5-0.1-8.1-1c-3.3-1.2-6.4-3.3-9-5.8c-4-3.9-7.1-8.8-8.2-14.3
						c-1.6-7.8,1.5-13.3,6.1-19.1c4.4-5.5,8.6-11.2,12.6-17c3.5-5.2,6.8-10.4,9.9-15.8c4.4-7.7,9.7-16,11.6-24.6
						c2-9,0.3-17.8,0-26.8c-0.4-11.4-1.2-22.8-1.2-34.1c-0.2-6.4,0.1-13.3-0.1-20.2c-0.1-8.1-0.8-16.2-3.5-23.3
						c-2.2-6.1-5.3-30-10.9-35.5c8.7,6.1,13.5,9.9,21.2,15.7c13.8,10.5,20.3,23.8,24.3,40.3c3.9,16.4,7.2,32.9,9.8,49.6
						c1.2,7.7,2.3,15.5,3.3,23.3C370.8,319.2,373.5,328.1,369.2,338z"/>
					<path class="st12" d="M360.6,352.2c-1,1.4-2,2.9-3,4.3c-6.5,9.5-11.9,19.7-17.5,29.7c-6.5,11.6-13.3,29.9-28.6,31.8
						c-2.7,0.3-5.5-0.1-8.1-1c6.8-12.3,14.1-24.4,21.8-36.2c-7.4-6-14.2-12.8-20.3-20.1c3.5-5.2,6.8-10.4,9.9-15.8
						c4.4-7.7,9.7-16,11.6-24.6c2-9,0.3-17.8,0-26.8c-0.4-11.4-1.2-22.8-1.2-34.1c-0.2-6.4,0.1-13.3-0.1-20.2
						c1.6,3.8,7.1,5.3,8.2,9.3c5.7,20.7,11.9,43,13.8,64.4c0.8,8.5,0.2,17.4,3.4,25.3C353.1,343.4,356.8,347.9,360.6,352.2z"/>
				</g>
				<g>
					<path class="st4" d="M195.5,315.2c-0.5,0.4-0.8,0.8-1.2,1.3c1-1.6,15.9,7.4,17.9,8.3c4.4,2.1,9.6,3.4,14.6,4.7
						c3.1,0.8,6.1,1.5,8.9,2.3c5.3,1.5,10.8,3.1,16.3,3.2c4.9,0.2,10.1-0.4,14.8-1.5c4.2-1,7.8-0.1,12,0.9
						c9.5,2.2,18.8,5.2,27.7,9.1c5.5,2.4,10.9,5.1,16.4,7.4c4.8,2,9.7,3.7,14.7,5.4c5.7,1.9,11.4,3.7,17.2,5.3c4,1.2,8.1,2.3,12.2,3
						c13.3,2.2,27.3-0.6,38.7-7.6c0.4-0.2,0.7-0.4,1-0.6c2.2-1.4,4.4-3.2,4.6-5.8c0.1-1.2-0.4-2.5-0.9-3.6c-1.7-3.3-4.6-5.9-7.4-8.4
						c-8.1-7.2-16.5-14.4-26.5-18.6c-26.4-11.1-55.9,0.8-82.3-10.4c-5.1-2.2-7.2-6.8-10-11.4c-4.6-7.6-11.6-13.3-19.7-16.7
						c-5.5-2.3-11.4-3.6-16.9-5.7c-5.5-2.1-9.5-6.3-15.8-6c0.7,0.4,1,1.2,1.3,1.9c0.1,0.4,0.3,0.8,0.4,1.2c2,5.1,6.7,9.1,11.2,12
						c2.5,1.5,11.6,4.7,12.6,7.3c0.3,0.7,0.4,1.3,0.2,1.7c-1.1,3.7-17-2.8-18.6-3.4c-4.7-1.3-9.2-3.5-13.8-5.1
						c-4.3-1.5-8.1-3.8-11.6-6.7c-1.9-1.6-3.7-3.4-6.1-4c-1.6-0.4-3.2-0.3-4.8,0c-1,0.2-1.9,0.5-2.8,0.7c0.4-0.1,5.1,5.5,5.7,6.1
						c2.1,2,4.4,3.8,6.7,5.5c3.7,2.6,7.5,5.2,11.3,7.7c0.6,0.4,1.3,0.8,1.9,1.2c-5-0.7-10.4-1.8-15-3.8c-4-1.7-7.1-4.1-10.5-6.9
						c-2.9-2.4-6.6-4.5-10.2-3.8c-0.3,0.1-0.6,0.1-0.8,0.2c0.6,2,1.8,3.7,3.1,5.3c3.5,4.4,7.6,8.4,12.2,11.6c4,2.9,8.7,4.9,13.1,7.2
						c0.6,0.3,1.2,0.6,1.8,1c-2.8-1.4-6-1.3-8.9-2.2c-3.8-1.1-7.1-4.5-10.4-6.6c-3.5-2.3-7.8-4-11.7-2.8c-0.2,0.1-0.4,0.1-0.6,0.2
						c0.1,0,10.1,10.2,11.2,11.1c3.7,2.8,8,6.6,12.4,8.2c3.2,1.2,5.9,3.6,9.2,4.7c-1.6-0.5-3.3-1.1-4.9-1.6c0,0,0,0,0,0
						c-2.6-0.9-5.2-1.7-7.9-2.6c-2.3-0.8-4.7-1.5-7.1-1.5C198.8,313.5,196.9,314,195.5,315.2z"/>
					<path class="st2" d="M194.4,316.5c1-1.6,15.9,7.4,17.9,8.3c4.4,2.1,9.6,3.4,14.6,4.7c3.1,0.8,6.1,1.5,8.9,2.3
						c5.3,1.5,10.8,3.1,16.3,3.2c4.9,0.2,10.1-0.4,14.8-1.5c4.2-1,7.8-0.1,12,0.9c9.5,2.2,18.8,5.2,27.7,9.1
						c5.5,2.4,10.9,5.1,16.4,7.4c4.8,2,9.7,3.7,14.7,5.4c5.7,1.9,11.4,3.7,17.2,5.3c4,1.2,8.1,2.3,12.2,3
						c13.3,2.2,27.3-0.6,38.7-7.6c-19.7-0.8-39.2-4.4-58.3-9c-24.3-5.9-47.8-12.9-70.5-23.5c-0.4-0.2-0.9-0.4-1.3-0.4
						c-0.4,0-0.7,0.2-1.1,0.3c-3.5,1.5-7.2,2.1-10.8,3.2c-4.1,1.3-8.3,2.4-12.6,2.5c-3.4,0.1-6.8-0.4-10.2-1
						c-7.6-1.4-15-3.3-22.3-5.6c-6.9-2.2-13.5-5.4-20.4-7.6c-0.9-0.3-1.9-0.6-2.9-0.8C195.1,315.6,194.7,316,194.4,316.5z"/>
					<path class="st2" d="M200.1,275.2c0.4-0.1,5.1,5.5,5.7,6.1c2.1,2,4.4,3.8,6.7,5.5c3.7,2.6,7.5,5.2,11.3,7.7
						c2.8,0.8,5.7,1.3,8.4,0.2c-10.8-5.1-20.7-11.9-29.4-20.2C202,274.7,201,275,200.1,275.2z"/>
					<path class="st2" d="M189.2,281.5c0.6,2,1.8,3.7,3.1,5.3c3.5,4.4,7.6,8.4,12.2,11.6c4,2.9,8.7,4.9,13.1,7.2
						c0.5,0.1,1,0.2,1.5,0.2c1.8,0.1,3.7-0.6,4.6-2.2c-7.7-2.4-14.9-6.4-20.9-11.6c-4.2-3.7-8-8-12.7-10.8
						C189.8,281.3,189.5,281.4,189.2,281.5z"/>
					<path class="st2" d="M187.7,295.2c0.1,0,10.1,10.2,11.2,11.1c3.7,2.8,8,6.6,12.4,8.2c3.2,1.2,5.9,3.6,9.2,4.7l0,0
						c1.3,0.2,2.7,0.1,3.9-0.4c-10.8-6.3-21.7-12.8-31.1-21c-1.5-1.3-3.2-2.7-5-2.8C188.1,295.1,187.9,295.1,187.7,295.2z"/>
					<g>
						<path class="st2" d="M233.5,271.7c0.1,0.4,0.2,0.7,0.4,1.1c2,5.1,6.7,9.1,11.2,12c3,1.9,13.6,4.2,12.9,8.9
							c2.1-0.2,6.2-1.8,3.2-4.4c-0.7-0.6-1.6-0.9-2.4-1.2c-5.1-1.8-9.9-4.3-14.4-7.4c-2.2-1.5-4.3-3.1-6.3-4.9
							C236.4,274.4,235.5,272.7,233.5,271.7z"/>
					</g>
				</g>
			</g>
			
				<rect x="78.9" y="236.2" transform="matrix(0.7071 -0.7071 0.7071 0.7071 -113.6226 252.3646)" class="st0" width="337.9" height="54.3"/>
		</g>
	</g>
</g>
</svg>
